Involve-MediumOblique.ufo
<glyph name="quotedbl" format="2">
	<unicode hex="0022"/>
	<advance width="318"/>
	<outline>
		<contour>
			<point x="165.667" y="513" type="line"/>
			<point x="224.333" y="513" type="line"/>
			<point x="266.333" y="739" type="line"/>
			<point x="207.667" y="739" type="line"/>
		</contour>
		<contour>
			<point x="285.333" y="513" type="line"/>
			<point x="344" y="513" type="line"/>
			<point x="386" y="739" type="line"/>
			<point x="327.333" y="739" type="line"/>
		</contour>
	</outline>
</glyph>
<glyph name="numbersign" format="2">
	<unicode hex="0023"/>
	<advance width="556"/>
	<outline>
		<contour>
			<point x="72.333" y="0" type="line"/>
			<point x="146" y="0" type="line"/>
			<point x="230" y="235.667" type="line"/>
			<point x="368.333" y="235.667" type="line"/>
			<point x="285.333" y="0" type="line"/>
			<point x="359.333" y="0" type="line"/>
			<point x="442.333" y="235.667" type="line"/>
			<point x="566.333" y="235.667" type="line"/>
			<point x="580" y="309.667" type="line"/>
			<point x="468.333" y="309.667" type="line"/>
			<point x="515.667" y="442.667" type="line"/>
			<point x="623.333" y="442.667" type="line"/>
			<point x="637" y="516.333" type="line"/>
			<point x="541.333" y="516.333" type="line"/>
			<point x="619.667" y="739" type="line"/>
			<point x="545" y="739" type="line"/>
			<point x="467.333" y="516.333" type="line"/>
			<point x="329.667" y="516.333" type="line"/>
			<point x="408" y="739" type="line"/>
			<point x="335.333" y="739" type="line"/>
			<point x="256.333" y="516.333" type="line"/>
			<point x="129.667" y="516.333" type="line"/>
			<point x="116" y="442.667" type="line"/>
			<point x="230.667" y="442.667" type="line"/>
			<point x="182.667" y="309.667" type="line"/>
			<point x="72" y="309.667" type="line"/>
			<point x="58.333" y="235.667" type="line"/>
			<point x="156.667" y="235.667" type="line"/>
		</contour>
		<contour>
			<point x="256" y="309.667" type="line"/>
			<point x="304.333" y="442.667" type="line"/>
			<point x="441.667" y="442.667" type="line"/>
			<point x="393.667" y="309.667" type="line"/>
		</contour>
	</outline>
</glyph>
<glyph name="dollar" format="2">
	<unicode hex="0024"/>
	<advance width="556"/>
	<outline>
		<contour>
			<point x="225.667" y="-66" type="line"/>
			<point x="312" y="-66" type="line"/>
			<point x="330.333" y="34.667" type="line"/>
			<point x="430.333" y="50"/>
			<point x="509" y="129.333"/>
			<point x="528.667" y="234.333" type="curve" smooth="yes"/>
			<point x="531.667" y="249.333"/>
			<point x="532.667" y="263.667"/>
			<point x="532.667" y="277.333" type="curve" smooth="yes"/>
			<point x="532.667" y="316"/>
			<point x="521" y="349.667"/>
			<point x="499.667" y="373.667" type="curve"/>
			<point x="479" y="398.333"/>
			<point x="453.667" y="412.667"/>
			<point x="390.333" y="435" type="curve" smooth="yes"/>
			<point x="324.333" y="458"/>
			<point x="300.667" y="476"/>
			<point x="296" y="509" type="curve"/>
			<point x="291.667" y="517.667"/>
			<point x="290" y="529"/>
			<point x="291.333" y="541.667" type="curve"/>
			<point x="300.667" y="592"/>
			<point x="335.667" y="624.667"/>
			<point x="382" y="626.333" type="curve"/>
			<point x="425" y="639"/>
			<point x="458" y="624.333"/>
			<point x="469.667" y="584.333" type="curve"/>
			<point x="481" y="579.667"/>
			<point x="486.333" y="567"/>
			<point x="486" y="548.333" type="curve"/>
			<point x="574.667" y="548.333" type="line"/>
			<point x="576.667" y="560"/>
			<point x="577.667" y="571"/>
			<point x="577.667" y="581.667" type="curve" smooth="yes"/>
			<point x="577.667" y="658.667"/>
			<point x="533.667" y="714"/>
			<point x="458.667" y="726.333" type="curve"/>
			<point x="477" y="825.333" type="line"/>
			<point x="390.667" y="825.333" type="line"/>
			<point x="372.333" y="726.333" type="line"/>
			<point x="282.667" y="708.333"/>
			<point x="215.667" y="640.667"/>
			<point x="198.333" y="548.333" type="curve" smooth="yes"/>
			<point x="196" y="535"/>
			<point x="195" y="522.333"/>
			<point x="195" y="510" type="curve" smooth="yes"/>
			<point x="195" y="468.333"/>
			<point x="211" y="434"/>
			<point x="242.333" y="411" type="curve"/>
			<point x="282.667" y="378"/>
			<point x="300" y="366.667"/>
			<point x="352.667" y="347.333" type="curve" smooth="yes"/>
			<point x="390.333" y="332.667"/>
			<point x="407.333" y="320"/>
			<point x="418.667" y="302.333" type="curve"/>
			<point x="430" y="288.333"/>
			<point x="436.333" y="270.333"/>
			<point x="436" y="249.333" type="curve"/>
			<point x="433" y="227.333"/>
			<point x="418.667" y="209.667"/>
			<point x="401.333" y="203.667" type="curve"/>
			<point x="377.667" y="151.667"/>
			<point x="326.333" y="123"/>
			<point x="276.333" y="137.667" type="curve"/>
			<point x="229.667" y="139.333"/>
			<point x="203" y="168"/>
			<point x="203.333" y="216.333" type="curve"/>
			<point x="196.177" y="222.333"/>
			<point x="167.324" y="228.333"/>
			<point x="160" y="235" type="curve"/>
			<point x="112.667" y="230.667" type="line"/>
			<point x="110" y="214.667"/>
			<point x="108.333" y="199.667"/>
			<point x="108.333" y="186" type="curve" smooth="yes"/>
			<point x="108.333" y="107"/>
			<point x="154.667" y="54.667"/>
			<point x="244" y="34.667" type="curve"/>
		</contour>
	</outline>
</glyph>
<glyph name="percent" format="2">
	<unicode hex="0025"/>
	<advance width="803"/>
	<outline>
		<contour>
			<point x="196.333" y="0" type="line"/>
			<point x="278.333" y="0" type="line"/>
			<point x="740" y="739" type="line"/>
			<point x="656.333" y="739" type="line"/>
		</contour>
		<contour>
			<point x="453" y="131.333" type="curve" smooth="yes"/>
			<point x="453" y="49.333"/>
			<point x="514.333" y="-13"/>
			<point x="600.667" y="-13" type="curve" smooth="yes"/>
			<point x="698.667" y="-13"/>
			<point x="792.333" y="66.667"/>
			<point x="810.667" y="164.667" type="curve" smooth="yes"/>
			<point x="812.667" y="175.667"/>
			<point x="813.667" y="186"/>
			<point x="813.667" y="196" type="curve" smooth="yes"/>
			<point x="813.667" y="277.667"/>
			<point x="753.333" y="341.333"/>
			<point x="668.333" y="341.333" type="curve" smooth="yes"/>
			<point x="567.667" y="341.333"/>
			<point x="474.333" y="263.667"/>
			<point x="456" y="163.667" type="curve" smooth="yes"/>
			<point x="454" y="152.667"/>
			<point x="453" y="141.667"/>
		</contour>
		<contour>
			<point x="615" y="66.667" type="curve" smooth="yes"/>
			<point x="568.667" y="66.667"/>
			<point x="535" y="101.333"/>
			<point x="535" y="146.667" type="curve" smooth="yes"/>
			<point x="535" y="152.667"/>
			<point x="535.667" y="158.333"/>
			<point x="536.667" y="164.667" type="curve"/>
			<point x="546.667" y="217.667"/>
			<point x="597.333" y="262"/>
			<point x="650" y="262" type="curve" smooth="yes"/>
			<point x="698.333" y="262"/>
			<point x="731.333" y="228"/>
			<point x="731.333" y="182.667" type="curve" smooth="yes"/>
			<point x="731.333" y="176.667"/>
			<point x="730.667" y="170.333"/>
			<point x="729.667" y="164" type="curve"/>
			<point x="719.667" y="110.333"/>
			<point x="668.667" y="66.667"/>
		</contour>
		<contour>
			<point x="119.333" y="540" type="curve" smooth="yes"/>
			<point x="119.333" y="457.333"/>
			<point x="180.333" y="395"/>
			<point x="266.667" y="395" type="curve" smooth="yes"/>
			<point x="364.667" y="395"/>
			<point x="458.667" y="474.667"/>
			<point x="477" y="572.667" type="curve" smooth="yes"/>
			<point x="479" y="583.667"/>
			<point x="480" y="594.667"/>
			<point x="480" y="604.667" type="curve" smooth="yes"/>
			<point x="480" y="686.333"/>
			<point x="419" y="750"/>
			<point x="334.667" y="750" type="curve" smooth="yes"/>
			<point x="234" y="750"/>
			<point x="140.667" y="671.667"/>
			<point x="122.333" y="572.333" type="curve" smooth="yes"/>
			<point x="120.333" y="561.333"/>
			<point x="119.333" y="550.333"/>
		</contour>
		<contour>
			<point x="220.667" y="534.667" type="curve"/>
			<point x="209" y="539.333"/>
			<point x="201.333" y="552"/>
			<point x="202" y="568" type="curve"/>
			<point x="209.333" y="609.333"/>
			<point x="248.667" y="644.333"/>
			<point x="287.667" y="646" type="curve"/>
			<point x="327" y="659.667"/>
			<point x="363.667" y="646"/>
			<point x="377" y="611.333" type="curve"/>
			<point x="389.333" y="606.667"/>
			<point x="397" y="592.667"/>
			<point x="396.333" y="576.667" type="curve"/>
			<point x="389" y="535.333"/>
			<point x="350.333" y="501"/>
			<point x="310.667" y="499.333" type="curve"/>
			<point x="272.667" y="485.667"/>
			<point x="234.333" y="500.667"/>
		</contour>
	</outline>
</glyph>
<glyph name="ampersand" format="2">
	<unicode hex="0026"/>
	<advance width="731"/>
	<outline>
		<contour>
			<point x="85" y="172" type="curve" smooth="yes"/>
			<point x="85" y="63.667"/>
			<point x="164.333" y="-13"/>
			<point x="283" y="-13" type="curve" smooth="yes"/>
			<point x="374.667" y="-13"/>
			<point x="441.333" y="28.667"/>
			<point x="521" y="134.667" type="curve"/>
			<point x="643.333" y="-13" type="line"/>
			<point x="720.333" y="49.667" type="line"/>
			<point x="583" y="218" type="line"/>
			<point x="761.667" y="465" type="line"/>
			<point x="657.333" y="465" type="line"/>
			<point x="528.667" y="286.667" type="line"/>
			<point x="434.333" y="403.667" type="line"/>
			<point x="554.667" y="460.333"/>
			<point x="604.667" y="511.667"/>
			<point x="604.667" y="611.667" type="curve" smooth="yes"/>
			<point x="604.667" y="693.667"/>
			<point x="543.333" y="752"/>
			<point x="451" y="752" type="curve" smooth="yes"/>
			<point x="341.667" y="752"/>
			<point x="238" y="661"/>
			<point x="238" y="549.667" type="curve" smooth="yes"/>
			<point x="238" y="513.333"/>
			<point x="252.333" y="481"/>
			<point x="288.667" y="433" type="curve"/>
			<point x="179" y="380"/>
			<point x="85" y="306.333"/>
		</contour>
		<contour>
			<point x="178.333" y="183.333" type="curve" smooth="yes"/>
			<point x="178.333" y="278.333"/>
			<point x="261.667" y="326.667"/>
			<point x="338.667" y="360.667" type="curve"/>
			<point x="466.667" y="203.333" type="line"/>
			<point x="402" y="110"/>
			<point x="355.333" y="75.667"/>
			<point x="293" y="75.667" type="curve" smooth="yes"/>
			<point x="224.667" y="75.667"/>
			<point x="178.333" y="120.667"/>
		</contour>
		<contour>
			<point x="383" y="469.667" type="curve"/>
			<point x="347" y="510"/>
			<point x="331.667" y="538.667"/>
			<point x="331.667" y="567" type="curve" smooth="yes"/>
			<point x="331.667" y="622.667"/>
			<point x="384" y="665.667"/>
			<point x="437.667" y="665.667" type="curve" smooth="yes"/>
			<point x="484" y="665.667"/>
			<point x="514.667" y="638"/>
			<point x="514.667" y="597.667" type="curve" smooth="yes"/>
			<point x="514.667" y="527.333"/>
			<point x="439.333" y="491.667"/>
		</contour>
	</outline>
</glyph>
<glyph name="quotesingle" format="2">
	<unicode hex="0027"/>
	<advance width="200"/>
	<outline>
		<contour>
			<point x="165.667" y="513" type="line"/>
			<point x="224.333" y="513" type="line"/>
			<point x="266.333" y="739" type="line"/>
			<point x="207.667" y="739" type="line"/>
		</contour>
	</outline>
</glyph>
<glyph name="parenleft" format="2">
	<unicode hex="0028"/>
	<advance width="365"/>
	<outline>
		<contour>
			<point x="320" y="-37.333" type="line"/>
			<point x="234.667" y="23"/>
			<point x="194" y="122"/>
			<point x="194" y="233" type="curve" smooth="yes"/>
			<point x="194" y="401.333"/>
			<point x="303.333" y="566.333"/>
			<point x="447" y="649" type="curve"/>
			<point x="464" y="739" type="line"/>
			<point x="255" y="666.333"/>
			<point x="98.333" y="436.333"/>
			<point x="98.333" y="215.667" type="curve" smooth="yes"/>
			<point x="98.333" y="76.333"/>
			<point x="166" y="-77.333"/>
			<point x="303.333" y="-129" type="curve"/>
		</contour>
	</outline>
</glyph>
<glyph name="parenright" format="2">
	<unicode hex="0029"/>
	<advance width="365"/>
	<outline>
		<contour>
			<point x="14.333" y="-129" type="line"/>
			<point x="223.667" y="-56"/>
			<point x="380" y="174.667"/>
			<point x="380" y="395" type="curve" smooth="yes"/>
			<point x="380" y="535"/>
			<point x="313" y="687.333"/>
			<point x="175" y="739" type="curve"/>
			<point x="158" y="647.333" type="line"/>
			<point x="242.667" y="587.667"/>
			<point x="283.333" y="486.667"/>
			<point x="283.333" y="377" type="curve" smooth="yes"/>
			<point x="283.333" y="208.667"/>
			<point x="174.667" y="44.667"/>
			<point x="31" y="-38.333" type="curve"/>
		</contour>
	</outline>
</glyph>
<glyph name="asterisk" format="2">
	<unicode hex="002A"/>
	<advance width="420"/>
	<outline>
		<contour>
			<point x="198.333" y="488" type="line"/>
			<point x="246.667" y="459" type="line"/>
			<point x="313" y="549" type="line"/>
			<point x="347.333" y="459" type="line"/>
			<point x="403.333" y="489.667" type="line"/>
			<point x="364.667" y="576.333" type="line"/>
			<point x="464.667" y="573.333" type="line"/>
			<point x="475.667" y="632" type="line"/>
			<point x="373.667" y="628" type="line"/>
			<point x="446" y="717" type="line"/>
			<point x="400.667" y="747.667" type="line"/>
			<point x="334.667" y="658.667" type="line"/>
			<point x="300.667" y="747.333" type="line"/>
			<point x="241.667" y="718" type="line"/>
			<point x="280" y="628" type="line"/>
			<point x="178" y="631.667" type="line"/>
			<point x="167" y="573.333" type="line"/>
			<point x="270" y="577" type="line"/>
		</contour>
	</outline>
</glyph>
<glyph name="plus" format="2">
	<unicode hex="002B"/>
	<advance width="604"/>
	<outline>
		<contour>
			<point x="270" y="71.667" type="line"/>
			<point x="361.333" y="71.667" type="line"/>
			<point x="400" y="282" type="line"/>
			<point x="606" y="282" type="line"/>
			<point x="622.667" y="370.667" type="line"/>
			<point x="416.667" y="370.667" type="line"/>
			<point x="455.333" y="579.667" type="line"/>
			<point x="364" y="579.667" type="line"/>
			<point x="325.333" y="370.667" type="line"/>
			<point x="118.667" y="370.667" type="line"/>
			<point x="102" y="282" type="line"/>
			<point x="308.667" y="282" type="line"/>
		</contour>
	</outline>
</glyph>
<glyph name="comma" format="2">
	<unicode hex="002C"/>
	<advance width="272"/>
	<outline>
		<contour>
			<point x="84.667" y="0" type="line"/>
			<point x="129.333" y="0" type="line"/>
			<point x="124.667" y="-50"/>
			<point x="97.333" y="-74.333"/>
			<point x="58.667" y="-79.667" type="curve"/>
			<point x="49.333" y="-131.333" type="line"/>
			<point x="128.333" y="-131.333"/>
			<point x="174.333" y="-84"/>
			<point x="191.333" y="5" type="curve" smooth="yes"/>
			<point x="214.333" y="126.667" type="line"/>
			<point x="108.667" y="126.667" type="line"/>
		</contour>
	</outline>
</glyph>
<glyph name="period" format="2">
	<unicode hex="002E"/>
	<advance width="278"/>
	<outline>
		<contour>
			<point x="92" y="0" type="line"/>
			<point x="185.667" y="0" type="line"/>
			<point x="209" y="126.667" type="line"/>
			<point x="115.333" y="126.667" type="line"/>
		</contour>
	</outline>
</glyph>
<glyph name="slash" format="2">
	<unicode hex="002F"/>
	<advance width="445"/>
	<outline>
		<contour>
			<point x="6.667" y="-128" type="line"/>
			<point x="82.667" y="-128" type="line"/>
			<point x="544.667" y="739" type="line"/>
			<point x="466.667" y="739" type="line"/>
		</contour>
	</outline>
</glyph>
<glyph name="zero" format="2">
	<unicode hex="0030"/>
	<advance width="556"/>
	<outline>
		<contour>
			<point x="71" y="179.333" type="curve" smooth="yes"/>
			<point x="71" y="52"/>
			<point x="154.333" y="-13"/>
			<point x="282" y="-13" type="curve" smooth="yes"/>
			<point x="453.333" y="-13"/>
			<point x="544.333" y="98.333"/>
			<point x="574.333" y="261.667" type="curve" smooth="yes"/>
			<point x="616.333" y="487.667" type="line" smooth="yes"/>
			<point x="622.333" y="517.667"/>
			<point x="624.667" y="542.667"/>
			<point x="624.667" y="564.667" type="curve" smooth="yes"/>
			<point x="624.667" y="683"/>
			<point x="537.667" y="752"/>
			<point x="417" y="752" type="curve" smooth="yes"/>
			<point x="250.333" y="752"/>
			<point x="150.333" y="644.667"/>
			<point x="120.667" y="485.333" type="curve" smooth="yes"/>
			<point x="79.333" y="261.667" type="line" smooth="yes"/>
			<point x="73.667" y="231"/>
			<point x="71" y="203.667"/>
		</contour>
		<contour>
			<point x="165.667" y="197.333" type="curve" smooth="yes"/>
			<point x="165.667" y="218"/>
			<point x="168.333" y="242.333"/>
			<point x="174" y="271" type="curve" smooth="yes"/>
			<point x="211.667" y="474" type="line" smooth="yes"/>
			<point x="231.333" y="582"/>
			<point x="284.667" y="666.667"/>
			<point x="402.667" y="666.667" type="curve" smooth="yes"/>
			<point x="479.333" y="666.667"/>
			<point x="528.667" y="623"/>
			<point x="528.667" y="546.333" type="curve" smooth="yes"/>
			<point x="528.667" y="526.333"/>
			<point x="526.333" y="503.333"/>
			<point x="520.667" y="474" type="curve" smooth="yes"/>
			<point x="482.667" y="270" type="line" smooth="yes"/>
			<point x="462.333" y="157"/>
			<point x="415.667" y="72.333"/>
			<point x="294" y="72.333" type="curve" smooth="yes"/>
			<point x="211.667" y="72.333"/>
			<point x="165.667" y="117"/>
		</contour>
	</outline>
</glyph>
<glyph name="one" format="2">
	<unicode hex="0031"/>
	<advance width="556"/>
	<outline>
		<contour>
			<point x="266.667" y="0" type="line"/>
			<point x="359.667" y="0" type="line"/>
			<point x="496.667" y="739" type="line"/>
			<point x="288.667" y="739" type="line"/>
			<point x="273" y="652.667" type="line"/>
			<point x="388" y="652.667" type="line"/>
		</contour>
	</outline>
</glyph>
<glyph name="two" format="2">
	<unicode hex="0032"/>
	<advance width="556"/>
	<outline>
		<contour>
			<point x="35.667" y="0" type="line"/>
			<point x="507.667" y="0" type="line"/>
			<point x="523.333" y="86.333" type="line"/>
			<point x="180.333" y="86.333" type="line"/>
			<point x="425.333" y="283.333" type="line" smooth="yes"/>
			<point x="520.667" y="359"/>
			<point x="612.333" y="437.333"/>
			<point x="612.333" y="568" type="curve" smooth="yes"/>
			<point x="612.333" y="677"/>
			<point x="534.333" y="752"/>
			<point x="414.667" y="752" type="curve" smooth="yes"/>
			<point x="256" y="752"/>
			<point x="157.333" y="639.333"/>
			<point x="130" y="494.667" type="curve"/>
			<point x="222.333" y="494.667" type="line"/>
			<point x="239.667" y="591.333"/>
			<point x="300" y="666.667"/>
			<point x="399" y="666.667" type="curve" smooth="yes"/>
			<point x="471.333" y="666.667"/>
			<point x="517.667" y="620.667"/>
			<point x="517.667" y="554.333" type="curve" smooth="yes"/>
			<point x="517.667" y="487.667"/>
			<point x="467.667" y="422.667"/>
			<point x="418" y="382.667" type="curve" smooth="yes"/>
			<point x="51" y="83.667" type="line"/>
		</contour>
	</outline>
</glyph>
<glyph name="three" format="2">
	<unicode hex="0033"/>
	<advance width="556"/>
	<outline>
		<contour>
			<point x="72" y="228.667" type="line"/>
			<point x="69.333" y="210.667"/>
			<point x="67.667" y="195.333"/>
			<point x="67.667" y="180.333" type="curve" smooth="yes"/>
			<point x="67.667" y="63.667"/>
			<point x="151.667" y="-13"/>
			<point x="272.333" y="-13" type="curve" smooth="yes"/>
			<point x="426" y="-13"/>
			<point x="558" y="123.667"/>
			<point x="558" y="275.667" type="curve" smooth="yes"/>
			<point x="558" y="342"/>
			<point x="528" y="392"/>
			<point x="467.667" y="424" type="curve"/>
			<point x="533" y="464.667"/>
			<point x="568.667" y="524.667"/>
			<point x="568.667" y="601" type="curve" smooth="yes"/>
			<point x="568.667" y="690.667"/>
			<point x="506.667" y="752"/>
			<point x="409.333" y="752" type="curve" smooth="yes"/>
			<point x="296.333" y="752"/>
			<point x="210.333" y="674.667"/>
			<point x="183.667" y="557.667" type="curve"/>
			<point x="277.333" y="557.667" type="line"/>
			<point x="293" y="628.333"/>
			<point x="334" y="666.667"/>
			<point x="394.333" y="666.667" type="curve" smooth="yes"/>
			<point x="443.333" y="666.667"/>
			<point x="474" y="635.333"/>
			<point x="474" y="588.667" type="curve" smooth="yes"/>
			<point x="474" y="508"/>
			<point x="408.667" y="462.667"/>
			<point x="333.667" y="462.667" type="curve" smooth="yes"/>
			<point x="307" y="462.667" type="line"/>
			<point x="291" y="377.333" type="line"/>
			<point x="306.333" y="377.333" type="line" smooth="yes"/>
			<point x="391.333" y="377.333"/>
			<point x="461.667" y="350.667"/>
			<point x="461.667" y="253.667" type="curve" smooth="yes"/>
			<point x="461.667" y="159.333"/>
			<point x="381.667" y="72.333"/>
			<point x="285.333" y="72.333" type="curve" smooth="yes"/>
			<point x="211.333" y="72.333"/>
			<point x="163" y="122.667"/>
			<point x="163" y="192.333" type="curve" smooth="yes"/>
			<point x="163" y="202.667"/>
			<point x="164" y="215"/>
			<point x="165.667" y="228.667" type="curve"/>
		</contour>
	</outline>
</glyph>
<glyph name="four" format="2">
	<unicode hex="0034"/>
	<advance width="556"/>
	<outline>
		<contour>
			<point x="35" y="127" type="line"/>
			<point x="390.667" y="127" type="line"/>
			<point x="367" y="0" type="line"/>
			<point x="460" y="0" type="line"/>
			<point x="483.667" y="127" type="line"/>
			<point x="555" y="127" type="line"/>
			<point x="570.333" y="211.333" type="line"/>
			<point x="499" y="211.333" type="line"/>
			<point x="597" y="739" type="line"/>
			<point x="501.667" y="739" type="line"/>
			<point x="49.667" y="207.667" type="line"/>
		</contour>
		<contour>
			<point x="152" y="211.333" type="line"/>
			<point x="477.333" y="596.333" type="line"/>
			<point x="406" y="211.333" type="line"/>
		</contour>
	</outline>
</glyph>
<glyph name="five" format="2">
	<unicode hex="0035"/>
	<advance width="556"/>
	<outline>
		<contour>
			<point x="66.667" y="228.333" type="line"/>
			<point x="65.667" y="216"/>
			<point x="65.333" y="204.333"/>
			<point x="65.333" y="194.333" type="curve" smooth="yes"/>
			<point x="65.333" y="74.667"/>
			<point x="151.667" y="-13"/>
			<point x="277.333" y="-13" type="curve" smooth="yes"/>
			<point x="443" y="-13"/>
			<point x="578.667" y="138"/>
			<point x="578.667" y="299.333" type="curve" smooth="yes"/>
			<point x="578.667" y="417.333"/>
			<point x="499.333" y="501.667"/>
			<point x="379.667" y="501.667" type="curve" smooth="yes"/>
			<point x="339" y="501.667"/>
			<point x="305.333" y="493.333"/>
			<point x="258.333" y="471.333" type="curve"/>
			<point x="324" y="652.667" type="line"/>
			<point x="584.667" y="652.667" type="line"/>
			<point x="600.333" y="739" type="line"/>
			<point x="267" y="739" type="line"/>
			<point x="131.333" y="367.667" type="line"/>
			<point x="203.333" y="342.333" type="line"/>
			<point x="253.667" y="393.333"/>
			<point x="301.333" y="416.333"/>
			<point x="354" y="416.333" type="curve" smooth="yes"/>
			<point x="432.667" y="416.333"/>
			<point x="483.333" y="360.667"/>
			<point x="483.333" y="282" type="curve" smooth="yes"/>
			<point x="483.333" y="177.333"/>
			<point x="399.667" y="72.333"/>
			<point x="289.333" y="72.333" type="curve" smooth="yes"/>
			<point x="210.333" y="72.333"/>
			<point x="158" y="125.667"/>
			<point x="158" y="211.667" type="curve" smooth="yes"/>
			<point x="158" y="217"/>
			<point x="158" y="222.667"/>
			<point x="159" y="228.333" type="curve"/>
		</contour>
	</outline>
</glyph>
<glyph name="six" format="2">
	<unicode hex="0036"/>
	<advance width="556"/>
	<outline>
		<contour>
			<point x="64.667" y="191.667" type="curve" smooth="yes"/>
			<point x="64.667" y="71.667"/>
			<point x="150" y="-13"/>
			<point x="279" y="-13" type="curve" smooth="yes"/>
			<point x="448.333" y="-13"/>
			<point x="582.667" y="137.667"/>
			<point x="582.667" y="302.333" type="curve" smooth="yes"/>
			<point x="582.667" y="416"/>
			<point x="509" y="497.333"/>
			<point x="398" y="497.333" type="curve" smooth="yes"/>
			<point x="369.333" y="497.333"/>
			<point x="349.333" y="493.333"/>
			<point x="317.333" y="480" type="curve"/>
			<point x="540.667" y="739" type="line"/>
			<point x="431" y="739" type="line"/>
			<point x="193.333" y="461" type="line" smooth="yes"/>
			<point x="123.667" y="380"/>
			<point x="64.667" y="303"/>
		</contour>
		<contour>
			<point x="160.333" y="207" type="curve" smooth="yes"/>
			<point x="160.333" y="311.333"/>
			<point x="244.333" y="414"/>
			<point x="353.333" y="414" type="curve" smooth="yes"/>
			<point x="436.333" y="414"/>
			<point x="486.667" y="361.667"/>
			<point x="486.667" y="282" type="curve" smooth="yes"/>
			<point x="486.667" y="176.333"/>
			<point x="405" y="72.333"/>
			<point x="294" y="72.333" type="curve" smooth="yes"/>
			<point x="212.333" y="72.333"/>
			<point x="160.333" y="127.333"/>
		</contour>
	</outline>
</glyph>
<glyph name="seven" format="2">
	<unicode hex="0037"/>
	<advance width="556"/>
	<outline>
		<contour>
			<point x="100" y="0" type="line"/>
			<point x="202" y="0" type="line"/>
			<point x="614.667" y="652.667" type="line"/>
			<point x="630.333" y="739" type="line"/>
			<point x="201.333" y="739" type="line"/>
			<point x="185.667" y="652.667" type="line"/>
			<point x="517.333" y="652.667" type="line"/>
		</contour>
	</outline>
</glyph>
<glyph name="eight" format="2">
	<unicode hex="0038"/>
	<advance width="556"/>
	<outline>
		<contour>
			<point x="76" y="176" type="curve" smooth="yes"/>
			<point x="76" y="66"/>
			<point x="157" y="-13"/>
			<point x="278.333" y="-13" type="curve" smooth="yes"/>
			<point x="430.333" y="-13"/>
			<point x="562.333" y="115.667"/>
			<point x="562.333" y="267.667" type="curve" smooth="yes"/>
			<point x="562.333" y="335.333"/>
			<point x="533" y="380.667"/>
			<point x="474" y="412.333" type="curve"/>
			<point x="546" y="449"/>
			<point x="584" y="518.333"/>
			<point x="584" y="597.667" type="curve" smooth="yes"/>
			<point x="584" y="689.667"/>
			<point x="519" y="752"/>
			<point x="418.333" y="752" type="curve" smooth="yes"/>
			<point x="294" y="752"/>
			<point x="180.333" y="646.667"/>
			<point x="180.333" y="521" type="curve" smooth="yes"/>
			<point x="180.333" y="473.333"/>
			<point x="196" y="444"/>
			<point x="234.667" y="412.333" type="curve"/>
			<point x="139.333" y="369"/>
			<point x="76" y="282"/>
		</contour>
		<contour>
			<point x="170.333" y="188.333" type="curve" smooth="yes"/>
			<point x="170.333" y="281.667"/>
			<point x="249.667" y="363.667"/>
			<point x="344" y="363.667" type="curve" smooth="yes"/>
			<point x="419.333" y="363.667"/>
			<point x="466.333" y="317.333"/>
			<point x="466.333" y="249.333" type="curve" smooth="yes"/>
			<point x="466.333" y="155.333"/>
			<point x="389.667" y="72.333"/>
			<point x="293.333" y="72.333" type="curve" smooth="yes"/>
			<point x="218.333" y="72.333"/>
			<point x="170.333" y="120.333"/>
		</contour>
		<contour>
			<point x="364.333" y="452.333" type="curve" smooth="yes"/>
			<point x="310" y="452.333"/>
			<point x="274" y="488"/>
			<point x="274" y="539" type="curve" smooth="yes"/>
			<point x="274" y="607"/>
			<point x="331.333" y="666.667"/>
			<point x="400.667" y="666.667" type="curve" smooth="yes"/>
			<point x="456.667" y="666.667"/>
			<point x="491" y="633.333"/>
			<point x="491" y="583" type="curve" smooth="yes"/>
			<point x="491" y="515"/>
			<point x="434" y="452.333"/>
		</contour>
	</outline>
</glyph>
<glyph name="nine" format="2">
	<unicode hex="0039"/>
	<advance width="556"/>
	<outline>
		<contour>
			<point x="152" y="0" type="line"/>
			<point x="261.667" y="0" type="line"/>
			<point x="499.333" y="278" type="line" smooth="yes"/>
			<point x="568.667" y="359"/>
			<point x="628" y="436"/>
			<point x="628" y="547" type="curve" smooth="yes"/>
			<point x="628" y="667"/>
			<point x="542.667" y="752"/>
			<point x="413.667" y="752" type="curve" smooth="yes"/>
			<point x="245" y="752"/>
			<point x="110.667" y="601.333"/>
			<point x="110.667" y="437" type="curve" smooth="yes"/>
			<point x="110.667" y="323.333"/>
			<point x="184.333" y="241"/>
			<point x="295" y="241" type="curve" smooth="yes"/>
			<point x="323.333" y="241"/>
			<point x="343" y="245.333"/>
			<point x="375.667" y="259" type="curve"/>
		</contour>
		<contour>
			<point x="337.667" y="325" type="curve" smooth="yes"/>
			<point x="257.667" y="325"/>
			<point x="206.667" y="378.667"/>
			<point x="206.667" y="457.667" type="curve" smooth="yes"/>
			<point x="206.667" y="561.333"/>
			<point x="286.333" y="666.667"/>
			<point x="396.333" y="666.667" type="curve" smooth="yes"/>
			<point x="479.667" y="666.667"/>
			<point x="532.333" y="612"/>
			<point x="532.333" y="532.333" type="curve" smooth="yes"/>
			<point x="532.333" y="426.333"/>
			<point x="448.667" y="325"/>
		</contour>
	</outline>
</glyph>
<glyph name="colon" format="2">
	<unicode hex="003A"/>
	<advance width="278"/>
	<outline>
		<contour>
			<point x="92" y="0" type="line"/>
			<point x="185.667" y="0" type="line"/>
			<point x="209" y="126.667" type="line"/>
			<point x="115.333" y="126.667" type="line"/>
		</contour>
		<contour>
			<point x="162" y="377" type="line"/>
			<point x="255.667" y="377" type="line"/>
			<point x="279.333" y="505.333" type="line"/>
			<point x="185.667" y="505.333" type="line"/>
		</contour>
	</outline>
</glyph>
<glyph name="semicolon" format="2">
	<unicode hex="003B"/>
	<advance width="278"/>
	<outline>
		<component base="comma" xOffset="30"/>
		<contour>
			<point x="178" y="377" type="line"/>
			<point x="271.667" y="377" type="line"/>
			<point x="295.333" y="505.333" type="line"/>
			<point x="201.667" y="505.333" type="line"/>
		</contour>
	</outline>
</glyph>
<glyph name="less" format="2">
	<unicode hex="003C"/>
	<advance width="604"/>
	<outline>
		<contour>
			<point x="96.667" y="264.667" type="line"/>
			<point x="563" y="35.667" type="line"/>
			<point x="579.667" y="126.333" type="line"/>
			<point x="231.667" y="302.667" type="line"/>
			<point x="645" y="479.667" type="line"/>
			<point x="662.333" y="570.667" type="line"/>
			<point x="110.667" y="340.667" type="line"/>
		</contour>
	</outline>
</glyph>
<glyph name="equal" format="2">
	<unicode hex="003D"/>
	<advance width="604"/>
	<outline>
		<contour>
			<point x="119.667" y="376.333" type="line"/>
			<point x="623.667" y="376.333" type="line"/>
			<point x="640.333" y="465" type="line"/>
			<point x="136.333" y="465" type="line"/>
		</contour>
		<contour>
			<point x="83" y="179.333" type="line"/>
			<point x="587" y="179.333" type="line"/>
			<point x="603.667" y="268" type="line"/>
			<point x="99.667" y="268" type="line"/>
		</contour>
	</outline>
</glyph>
<glyph name="greater" format="2">
	<unicode hex="003E"/>
	<advance width="604"/>
	<outline>
		<contour>
			<point x="54.333" y="35.667" type="line"/>
			<point x="606" y="265.333" type="line"/>
			<point x="620" y="341.333" type="line"/>
			<point x="153.667" y="570.667" type="line"/>
			<point x="136.333" y="479.667" type="line"/>
			<point x="486" y="303.333" type="line"/>
			<point x="71" y="126.333" type="line"/>
		</contour>
	</outline>
</glyph>
<glyph name="question" format="2">
	<unicode hex="003F"/>
	<advance width="567"/>
	<outline>
		<contour>
			<point x="363.333" y="191" type="line"/>
			<point x="377.333" y="262"/>
			<point x="405.333" y="298"/>
			<point x="484" y="358" type="curve" smooth="yes"/>
			<point x="562.333" y="417"/>
			<point x="613.667" y="474.333"/>
			<point x="613.667" y="575.333" type="curve" smooth="yes"/>
			<point x="613.667" y="679.667"/>
			<point x="539" y="752"/>
			<point x="424.667" y="752" type="curve" smooth="yes"/>
			<point x="276" y="752"/>
			<point x="179" y="648.333"/>
			<point x="148.333" y="512" type="curve"/>
			<point x="239.333" y="512" type="line"/>
			<point x="264.667" y="600.667"/>
			<point x="312.333" y="663.333"/>
			<point x="407.667" y="663.333" type="curve" smooth="yes"/>
			<point x="475" y="663.333"/>
			<point x="518.667" y="621.333"/>
			<point x="518.667" y="560" type="curve" smooth="yes"/>
			<point x="518.667" y="499"/>
			<point x="475.667" y="453"/>
			<point x="423.333" y="412" type="curve"/>
			<point x="325.667" y="338.667"/>
			<point x="290.667" y="287"/>
			<point x="272.333" y="191" type="curve"/>
		</contour>
		<contour>
			<point x="235.333" y="0" type="line"/>
			<point x="329" y="0" type="line"/>
			<point x="352.333" y="126.667" type="line"/>
			<point x="258.667" y="126.667" type="line"/>
		</contour>
	</outline>
</glyph>
<glyph name="at" format="2">
	<unicode hex="0040"/>
	<advance width="849"/>
	<outline>
		<contour>
			<point x="676.333" y="127.667" type="line"/>
			<point x="609.333" y="72.667"/>
			<point x="535.333" y="44.667"/>
			<point x="455" y="44.667" type="curve" smooth="yes"/>
			<point x="293.333" y="44.667"/>
			<point x="180.333" y="151.333"/>
			<point x="180.333" y="309" type="curve" smooth="yes"/>
			<point x="180.333" y="513.333"/>
			<point x="367.667" y="698.667"/>
			<point x="572" y="698.667" type="curve" smooth="yes"/>
			<point x="720.667" y="698.667"/>
			<point x="817" y="609"/>
			<point x="817" y="479.333" type="curve" smooth="yes"/>
			<point x="817" y="387.667"/>
			<point x="730.333" y="206.333"/>
			<point x="624" y="206.333" type="curve" smooth="yes"/>
			<point x="607.333" y="206.333"/>
			<point x="597.667" y="214"/>
			<point x="597.667" y="227.667" type="curve" smooth="yes"/>
			<point x="597.667" y="239.667"/>
			<point x="599.667" y="250"/>
			<point x="608.667" y="268.333" type="curve"/>
			<point x="747.667" y="573.667" type="line"/>
			<point x="675" y="573.667" type="line"/>
			<point x="652" y="522.333" type="line"/>
			<point x="635" y="572"/>
			<point x="601.667" y="587.667"/>
			<point x="548.333" y="587.667" type="curve" smooth="yes"/>
			<point x="403.667" y="587.667"/>
			<point x="263" y="408.333"/>
			<point x="263" y="270" type="curve" smooth="yes"/>
			<point x="263" y="195"/>
			<point x="308.667" y="147.333"/>
			<point x="384" y="147.333" type="curve" smooth="yes"/>
			<point x="433.333" y="147.333"/>
			<point x="470.333" y="163"/>
			<point x="510.333" y="200" type="curve"/>
			<point x="517.667" y="160.667"/>
			<point x="543" y="144"/>
			<point x="592" y="144" type="curve" smooth="yes"/>
			<point x="758.333" y="144"/>
			<point x="875.667" y="344"/>
			<point x="875.667" y="492" type="curve" smooth="yes"/>
			<point x="875.667" y="658.667"/>
			<point x="742" y="756.667"/>
			<point x="581.333" y="756.667" type="curve" smooth="yes"/>
			<point x="340" y="756.667"/>
			<point x="121" y="538.667"/>
			<point x="121" y="297" type="curve" smooth="yes"/>
			<point x="121" y="113.667"/>
			<point x="252" y="-13"/>
			<point x="442.667" y="-13" type="curve" smooth="yes"/>
			<point x="543.667" y="-13"/>
			<point x="637.667" y="22.667"/>
			<point x="710" y="85.667" type="curve"/>
		</contour>
		<contour>
			<point x="417.667" y="221.333" type="curve" smooth="yes"/>
			<point x="376.667" y="221.333"/>
			<point x="353" y="247.667"/>
			<point x="353" y="290" type="curve" smooth="yes"/>
			<point x="353" y="376"/>
			<point x="448" y="514.333"/>
			<point x="541" y="514.333" type="curve" smooth="yes"/>
			<point x="582" y="514.333"/>
			<point x="604.667" y="492"/>
			<point x="604.667" y="453.667" type="curve" smooth="yes"/>
			<point x="604.667" y="371.667"/>
			<point x="505.333" y="221.333"/>
		</contour>
	</outline>
</glyph>
<glyph name="A" format="2">
	<unicode hex="0041"/>
	<advance width="740"/>
	<outline>
		<contour>
			<point x="9.667" y="0" type="line"/>
			<point x="112" y="0" type="line"/>
			<point x="253.667" y="229.667" type="line"/>
			<point x="570.667" y="229.667" type="line"/>
			<point x="626" y="0" type="line"/>
			<point x="730.333" y="0" type="line"/>
			<point x="552" y="739" type="line"/>
			<point x="460.667" y="739" type="line"/>
		</contour>
		<contour>
			<point x="306" y="318" type="line"/>
			<point x="484" y="618.667" type="line"/>
			<point x="550" y="318" type="line"/>
		</contour>
	</outline>
</glyph>
<glyph name="B" format="2">
	<unicode hex="0042"/>
	<advance width="578"/>
	<outline>
		<contour>
			<point x="74.333" y="0" type="line"/>
			<point x="262" y="0" type="line" smooth="yes"/>
			<point x="472" y="0"/>
			<point x="590.667" y="94.667"/>
			<point x="590.667" y="261.333" type="curve" smooth="yes"/>
			<point x="590.667" y="327"/>
			<point x="562" y="367.333"/>
			<point x="495.333" y="397" type="curve"/>
			<point x="567.333" y="433.333"/>
			<point x="609" y="502.667"/>
			<point x="609" y="587.333" type="curve" smooth="yes"/>
			<point x="609" y="692"/>
			<point x="537.333" y="739"/>
			<point x="377.333" y="739" type="curve" smooth="yes"/>
			<point x="211.333" y="739" type="line"/>
		</contour>
		<contour>
			<point x="185.333" y="88.333" type="line"/>
			<point x="233" y="342.667" type="line"/>
			<point x="313.333" y="342.667" type="line" smooth="yes"/>
			<point x="442.667" y="342.667"/>
			<point x="493" y="314.333"/>
			<point x="493" y="242.333" type="curve" smooth="yes"/>
			<point x="493" y="139.333"/>
			<point x="420.667" y="88.333"/>
			<point x="275.333" y="88.333" type="curve" smooth="yes"/>
		</contour>
		<contour>
			<point x="249.333" y="432" type="line"/>
			<point x="290" y="649.667" type="line"/>
			<point x="368" y="649.667" type="line" smooth="yes"/>
			<point x="470.333" y="649.667"/>
			<point x="510.667" y="626"/>
			<point x="510.667" y="566.333" type="curve" smooth="yes"/>
			<point x="510.667" y="474.667"/>
			<point x="451.333" y="432"/>
			<point x="324" y="432" type="curve" smooth="yes"/>
		</contour>
	</outline>
</glyph>
<glyph name="C" format="2">
	<unicode hex="0043"/>
	<advance width="809"/>
	<outline>
		<contour>
			<point x="697" y="198" type="line"/>
			<point x="626" y="107.333"/>
			<point x="556.333" y="76.333"/>
			<point x="442" y="76.333" type="curve" smooth="yes"/>
			<point x="302.667" y="76.333"/>
			<point x="200.667" y="178.333"/>
			<point x="200.667" y="316.333" type="curve" smooth="yes"/>
			<point x="200.667" y="513.667"/>
			<point x="348" y="662.667"/>
			<point x="541.333" y="662.667" type="curve" smooth="yes"/>
			<point x="647.333" y="662.667"/>
			<point x="722.667" y="621"/>
			<point x="760.333" y="540.333" type="curve"/>
			<point x="866.667" y="540.333" type="line"/>
			<point x="832.333" y="670.667"/>
			<point x="712" y="752"/>
			<point x="554.333" y="752" type="curve" smooth="yes"/>
			<point x="298" y="752"/>
			<point x="102.667" y="555.667"/>
			<point x="102.667" y="296.333" type="curve" smooth="yes"/>
			<point x="102.667" y="114"/>
			<point x="236.667" y="-13"/>
			<point x="427.667" y="-13" type="curve" smooth="yes"/>
			<point x="594.667" y="-13"/>
			<point x="701.667" y="46.667"/>
			<point x="805.333" y="198" type="curve"/>
		</contour>
	</outline>
</glyph>
<glyph name="D" format="2">
	<unicode hex="0044"/>
	<advance width="729"/>
	<outline>
		<contour>
			<point x="74.333" y="0" type="line"/>
			<point x="264.333" y="0" type="line" smooth="yes"/>
			<point x="372" y="0"/>
			<point x="447" y="14.333"/>
			<point x="515" y="46.667" type="curve" smooth="yes"/>
			<point x="642.667" y="107.667"/>
			<point x="729" y="222.333"/>
			<point x="755.667" y="367.333" type="curve" smooth="yes"/>
			<point x="760.667" y="396.667"/>
			<point x="763.667" y="424"/>
			<point x="763.667" y="450.333" type="curve" smooth="yes"/>
			<point x="763.667" y="547.667"/>
			<point x="726.667" y="626.667"/>
			<point x="655.333" y="677.667" type="curve" smooth="yes"/>
			<point x="595.667" y="721.333"/>
			<point x="516" y="739"/>
			<point x="383.667" y="739" type="curve" smooth="yes"/>
			<point x="211.333" y="739" type="line"/>
		</contour>
		<contour>
			<point x="185.333" y="88.333" type="line"/>
			<point x="290.333" y="650.667" type="line"/>
			<point x="368" y="650.667" type="line" smooth="yes"/>
			<point x="468.333" y="650.667"/>
			<point x="527" y="639.667"/>
			<point x="571.667" y="612.333" type="curve" smooth="yes"/>
			<point x="632.333" y="576"/>
			<point x="666" y="510"/>
			<point x="666" y="429.333" type="curve" smooth="yes"/>
			<point x="666" y="410.333"/>
			<point x="664" y="390.333"/>
			<point x="660.333" y="369.333" type="curve" smooth="yes"/>
			<point x="643.667" y="277"/>
			<point x="590.333" y="195.333"/>
			<point x="516.667" y="146.667" type="curve" smooth="yes"/>
			<point x="455.667" y="105.333"/>
			<point x="381.333" y="88.333"/>
			<point x="264" y="88.333" type="curve" smooth="yes"/>
		</contour>
	</outline>
</glyph>
<glyph name="F" format="2">
	<unicode hex="0046"/>
	<advance width="488"/>
	<outline>
		<contour>
			<point x="74.333" y="0" type="line"/>
			<point x="169.333" y="0" type="line"/>
			<point x="230" y="326.333" type="line"/>
			<point x="499.333" y="326.333" type="line"/>
			<point x="515.333" y="414.667" type="line"/>
			<point x="246" y="414.667" type="line"/>
			<point x="290.333" y="650.667" type="line"/>
			<point x="570.667" y="650.667" type="line"/>
			<point x="586.667" y="739" type="line"/>
			<point x="211.333" y="739" type="line"/>
		</contour>
	</outline>
</glyph>
<glyph name="G" format="2">
	<unicode hex="0047"/>
	<advance width="867"/>
	<outline>
		<contour>
			<point x="382.333" y="265.667" type="line"/>
			<point x="759.667" y="265.667" type="line"/>
			<point x="704" y="152.333"/>
			<point x="578" y="76.333"/>
			<point x="452.667" y="76.333" type="curve" smooth="yes"/>
			<point x="302.667" y="76.333"/>
			<point x="200.667" y="176.333"/>
			<point x="200.667" y="314.333" type="curve" smooth="yes"/>
			<point x="200.667" y="504"/>
			<point x="371" y="662.667"/>
			<point x="558.333" y="662.667" type="curve" smooth="yes"/>
			<point x="663" y="662.667"/>
			<point x="742" y="616.667"/>
			<point x="776" y="535.333" type="curve"/>
			<point x="885" y="535.333" type="line"/>
			<point x="860" y="664"/>
			<point x="732.333" y="752"/>
			<point x="571.333" y="752" type="curve" smooth="yes"/>
			<point x="330" y="752"/>
			<point x="103.333" y="544.333"/>
			<point x="103.333" y="300" type="curve" smooth="yes"/>
			<point x="103.333" y="119"/>
			<point x="240.333" y="-13"/>
			<point x="441.333" y="-13" type="curve" smooth="yes"/>
			<point x="654" y="-13"/>
			<point x="849" y="145.667"/>
			<point x="894" y="353" type="curve"/>
			<point x="398.333" y="353" type="line"/>
		</contour>
	</outline>
</glyph>
<glyph name="H" format="2">
	<unicode hex="0048"/>
	<advance width="682"/>
	<outline>
		<contour>
			<point x="74.333" y="0" type="line"/>
			<point x="169.333" y="0" type="line"/>
			<point x="231" y="334.667" type="line"/>
			<point x="574.333" y="334.667" type="line"/>
			<point x="512.667" y="0" type="line"/>
			<point x="607.667" y="0" type="line"/>
			<point x="744.667" y="739" type="line"/>
			<point x="649.667" y="739" type="line"/>
			<point x="591.333" y="423" type="line"/>
			<point x="248" y="423" type="line"/>
			<point x="306.333" y="739" type="line"/>
			<point x="211.333" y="739" type="line"/>
		</contour>
	</outline>
</glyph>
<glyph name="I" format="2">
	<unicode hex="0049"/>
	<advance width="244"/>
	<outline>
		<contour>
			<point x="74.333" y="0" type="line"/>
			<point x="169.333" y="0" type="line"/>
			<point x="306.333" y="739" type="line"/>
			<point x="211.333" y="739" type="line"/>
		</contour>
	</outline>
</glyph>
<glyph name="J" format="2">
	<unicode hex="004A"/>
	<advance width="486"/>
	<outline>
		<contour>
			<point x="45.333" y="175" type="line"/>
			<point x="43.333" y="162.333"/>
			<point x="43.333" y="150"/>
			<point x="43.333" y="139" type="curve" smooth="yes"/>
			<point x="43.333" y="42.333"/>
			<point x="110" y="-13.667"/>
			<point x="211" y="-13.667" type="curve" smooth="yes"/>
			<point x="337.667" y="-13.667"/>
			<point x="425.333" y="72.333"/>
			<point x="453.333" y="224.667" type="curve" smooth="yes"/>
			<point x="548.667" y="739" type="line"/>
			<point x="453.667" y="739" type="line"/>
			<point x="358.667" y="226" type="line" smooth="yes"/>
			<point x="340" y="126.333"/>
			<point x="295.333" y="75.667"/>
			<point x="227.333" y="75.667" type="curve" smooth="yes"/>
			<point x="173.333" y="75.667"/>
			<point x="138.667" y="105.667"/>
			<point x="138.667" y="157.667" type="curve" smooth="yes"/>
			<point x="138.667" y="163"/>
			<point x="138.667" y="169"/>
			<point x="139.667" y="175" type="curve"/>
		</contour>
	</outline>
</glyph>
<glyph name="K" format="2">
	<unicode hex="004B"/>
	<advance width="599"/>
	<outline>
		<contour>
			<point x="74.333" y="0" type="line"/>
			<point x="169.333" y="0" type="line"/>
			<point x="207.667" y="209.333" type="line"/>
			<point x="301.667" y="304" type="line"/>
			<point x="473.667" y="0" type="line"/>
			<point x="590.667" y="0" type="line"/>
			<point x="373.333" y="378" type="line"/>
			<point x="727.667" y="739" type="line"/>
			<point x="610.667" y="739" type="line"/>
			<point x="234" y="349.333" type="line"/>
			<point x="306.333" y="739" type="line"/>
			<point x="211.333" y="739" type="line"/>
		</contour>
	</outline>
</glyph>
<glyph name="L" format="2">
	<unicode hex="004C"/>
	<advance width="459"/>
	<outline>
		<contour>
			<point x="74.333" y="0" type="line"/>
			<point x="448.667" y="0" type="line"/>
			<point x="464.667" y="88.333" type="line"/>
			<point x="185.333" y="88.333" type="line"/>
			<point x="306.333" y="739" type="line"/>
			<point x="211.333" y="739" type="line"/>
		</contour>
	</outline>
</glyph>
<glyph name="M" format="2">
	<unicode hex="004D"/>
	<advance width="917"/>
	<outline>
		<contour>
			<point x="74.333" y="0" type="line"/>
			<point x="169.333" y="0" type="line"/>
			<point x="285" y="623.333" type="line"/>
			<point x="418.333" y="0" type="line"/>
			<point x="498.333" y="0" type="line"/>
			<point x="863.667" y="623.333" type="line"/>
			<point x="748" y="0" type="line"/>
			<point x="843" y="0" type="line"/>
			<point x="980" y="739" type="line"/>
			<point x="840.667" y="739" type="line"/>
			<point x="483.667" y="133" type="line"/>
			<point x="350.667" y="739" type="line"/>
			<point x="211.333" y="739" type="line"/>
		</contour>
	</outline>
</glyph>
<glyph name="N" format="2">
	<unicode hex="004E"/>
	<advance width="740"/>
	<outline>
		<contour>
			<point x="74.333" y="0" type="line"/>
			<point x="169.333" y="0" type="line"/>
			<point x="282.667" y="612.333" type="line"/>
			<point x="565.667" y="0" type="line"/>
			<point x="666" y="0" type="line"/>
			<point x="803" y="739" type="line"/>
			<point x="708" y="739" type="line"/>
			<point x="598.667" y="151" type="line"/>
			<point x="330" y="739" type="line"/>
			<point x="211.333" y="739" type="line"/>
		</contour>
	</outline>
</glyph>
<glyph name="O" format="2">
	<unicode hex="004F"/>
	<advance width="860"/>
	<outline>
		<contour>
			<point x="103.333" y="300.667" type="curve" smooth="yes"/>
			<point x="103.333" y="122.333"/>
			<point x="238.333" y="-13"/>
			<point x="429.667" y="-13" type="curve" smooth="yes"/>
			<point x="688" y="-13"/>
			<point x="893.667" y="178.667"/>
			<point x="893.667" y="438.333" type="curve" smooth="yes"/>
			<point x="893.667" y="616"/>
			<point x="760.667" y="752"/>
			<point x="574.667" y="752" type="curve" smooth="yes"/>
			<point x="311" y="752"/>
			<point x="103.333" y="566"/>
		</contour>
		<contour>
			<point x="200.667" y="316" type="curve" smooth="yes"/>
			<point x="200.667" y="512.333"/>
			<point x="354" y="662.667"/>
			<point x="549.667" y="662.667" type="curve" smooth="yes"/>
			<point x="696.333" y="662.667"/>
			<point x="796.333" y="561"/>
			<point x="796.333" y="423.667" type="curve" smooth="yes"/>
			<point x="796.333" y="226"/>
			<point x="643" y="76.333"/>
			<point x="445.333" y="76.333" type="curve" smooth="yes"/>
			<point x="301.333" y="76.333"/>
			<point x="200.667" y="179.667"/>
		</contour>
	</outline>
</glyph>
<glyph name="P" format="2">
	<unicode hex="0050"/>
	<advance width="586"/>
	<outline>
		<contour>
			<point x="74.333" y="0" type="line"/>
			<point x="169.333" y="0" type="line"/>
			<point x="223.333" y="293" type="line"/>
			<point x="332.667" y="293" type="line" smooth="yes"/>
			<point x="433" y="293"/>
			<point x="487.333" y="304.333"/>
			<point x="536" y="333.667" type="curve" smooth="yes"/>
			<point x="595.667" y="369"/>
			<point x="638" y="435"/>
			<point x="652.667" y="513.667" type="curve" smooth="yes"/>
			<point x="656.333" y="532.333"/>
			<point x="658.333" y="550.667"/>
			<point x="658.333" y="567.333" type="curve" smooth="yes"/>
			<point x="658.333" y="626.667"/>
			<point x="637.667" y="672.667"/>
			<point x="597.667" y="700.333" type="curve" smooth="yes"/>
			<point x="557.333" y="728.333"/>
			<point x="505.333" y="739"/>
			<point x="408.333" y="739" type="curve" smooth="yes"/>
			<point x="211.333" y="739" type="line"/>
		</contour>
		<contour>
			<point x="240" y="381.333" type="line"/>
			<point x="290.333" y="650.667" type="line"/>
			<point x="375.667" y="650.667" type="line" smooth="yes"/>
			<point x="439.333" y="650.667"/>
			<point x="476" y="646.667"/>
			<point x="503.333" y="637.667" type="curve" smooth="yes"/>
			<point x="540.667" y="625.333"/>
			<point x="560.333" y="593.333"/>
			<point x="560.333" y="547.667" type="curve" smooth="yes"/>
			<point x="560.333" y="536.667"/>
			<point x="559.333" y="525.333"/>
			<point x="557" y="513.333" type="curve" smooth="yes"/>
			<point x="547" y="460.667"/>
			<point x="516.333" y="419"/>
			<point x="474" y="401.333" type="curve"/>
			<point x="443.667" y="387"/>
			<point x="403.333" y="381.333"/>
			<point x="344.667" y="381.333" type="curve" smooth="yes"/>
		</contour>
	</outline>
</glyph>
<glyph name="Q" format="2">
	<unicode hex="0051"/>
	<advance width="869"/>
	<outline>
		<contour>
			<point x="842.667" y="74" type="line"/>
			<point x="833.667" y="72.667"/>
			<point x="828.333" y="72.333"/>
			<point x="823.333" y="72.333" type="curve" smooth="yes"/>
			<point x="794.667" y="72.333"/>
			<point x="771.333" y="81.667"/>
			<point x="740.667" y="105" type="curve"/>
			<point x="846" y="186.333"/>
			<point x="908.667" y="311"/>
			<point x="908.667" y="444" type="curve" smooth="yes"/>
			<point x="908.667" y="624.667"/>
			<point x="777.333" y="752"/>
			<point x="578" y="752" type="curve" smooth="yes"/>
			<point x="333" y="752"/>
			<point x="103.333" y="550"/>
			<point x="103.333" y="300.333" type="curve" smooth="yes"/>
			<point x="103.333" y="120.333"/>
			<point x="240.667" y="-13"/>
			<point x="439" y="-13" type="curve" smooth="yes"/>
			<point x="518.333" y="-13"/>
			<point x="598.333" y="9"/>
			<point x="665.667" y="49" type="curve"/>
			<point x="708" y="7.333"/>
			<point x="758.333" y="-15"/>
			<point x="806" y="-15" type="curve" smooth="yes"/>
			<point x="812.667" y="-15"/>
			<point x="820.333" y="-14.333"/>
			<point x="827" y="-13.333" type="curve"/>
		</contour>
		<contour>
			<point x="220.333" y="219.667" type="curve"/>
			<point x="259.667" y="232.333"/>
			<point x="285" y="236.333"/>
			<point x="324.667" y="236.333" type="curve" smooth="yes"/>
			<point x="435.667" y="236.333"/>
			<point x="516" y="201"/>
			<point x="599.667" y="112.667" type="curve"/>
			<point x="551.667" y="87"/>
			<point x="509.333" y="76.333"/>
			<point x="454.667" y="76.333" type="curve" smooth="yes"/>
			<point x="345.667" y="76.333"/>
			<point x="257.333" y="130.333"/>
		</contour>
		<contour>
			<point x="200.333" y="297.333" type="curve"/>
			<point x="203.333" y="495.333"/>
			<point x="356.333" y="662.667"/>
			<point x="560.333" y="662.667" type="curve" smooth="yes"/>
			<point x="710.333" y="662.667"/>
			<point x="810.333" y="563.333"/>
			<point x="810.333" y="425.333" type="curve" smooth="yes"/>
			<point x="810.333" y="320"/>
			<point x="760.333" y="229.667"/>
			<point x="679.667" y="162.667" type="curve"/>
			<point x="585" y="262.333"/>
			<point x="495" y="319"/>
			<point x="347.667" y="319" type="curve" smooth="yes"/>
			<point x="294.667" y="319"/>
			<point x="253.333" y="313"/>
		</contour>
	</outline>
</glyph>
<glyph name="R" format="2">
	<unicode hex="0052"/>
	<advance width="606"/>
	<outline>
		<contour>
			<point x="74.333" y="0" type="line"/>
			<point x="169.333" y="0" type="line"/>
			<point x="290.333" y="650.667" type="line"/>
			<point x="380" y="650.667" type="line" smooth="yes"/>
			<point x="464.333" y="650.667"/>
			<point x="573" y="646"/>
			<point x="573" y="535.667" type="curve" smooth="yes"/>
			<point x="573" y="374.667"/>
			<point x="444" y="352"/>
			<point x="318.333" y="352" type="curve" smooth="yes"/>
			<point x="260.667" y="352" type="line"/>
			<point x="450" y="0" type="line"/>
			<point x="567.667" y="0" type="line"/>
			<point x="414" y="275" type="line"/>
			<point x="567.333" y="297"/>
			<point x="670.667" y="398"/>
			<point x="670.667" y="555" type="curve" smooth="yes"/>
			<point x="670.667" y="715.333"/>
			<point x="534.667" y="739"/>
			<point x="404.333" y="739" type="curve" smooth="yes"/>
			<point x="211.333" y="739" type="line"/>
		</contour>
	</outline>
</glyph>
<glyph name="S" format="2">
	<unicode hex="0053"/>
	<advance width="507"/>
	<outline>
		<contour>
			<point x="59.333" y="208.333" type="line"/>
			<point x="57.333" y="195"/>
			<point x="57.333" y="182.667"/>
			<point x="57.333" y="170.667" type="curve" smooth="yes"/>
			<point x="57.333" y="57.333"/>
			<point x="136.333" y="-13"/>
			<point x="254" y="-13" type="curve" smooth="yes"/>
			<point x="404" y="-13"/>
			<point x="526.667" y="100.667"/>
			<point x="526.667" y="250.333" type="curve" smooth="yes"/>
			<point x="526.667" y="361.667"/>
			<point x="449.333" y="399.333"/>
			<point x="358.333" y="430.333" type="curve" smooth="yes"/>
			<point x="291.667" y="453"/>
			<point x="242.667" y="475.333"/>
			<point x="242.667" y="532" type="curve" smooth="yes"/>
			<point x="242.667" y="603.667"/>
			<point x="303.333" y="662.667"/>
			<point x="375.667" y="662.667" type="curve" smooth="yes"/>
			<point x="435" y="662.667"/>
			<point x="470" y="627"/>
			<point x="470" y="568.667" type="curve" smooth="yes"/>
			<point x="470" y="562.667"/>
			<point x="469.667" y="557"/>
			<point x="468" y="548.667" type="curve"/>
			<point x="566.667" y="548.667" type="line"/>
			<point x="569.333" y="561.667"/>
			<point x="570.333" y="576"/>
			<point x="570.333" y="588.333" type="curve" smooth="yes"/>
			<point x="570.333" y="688.667"/>
			<point x="499.333" y="752"/>
			<point x="393.333" y="752" type="curve" smooth="yes"/>
			<point x="255.667" y="752"/>
			<point x="144.333" y="649.333"/>
			<point x="144.333" y="511.333" type="curve" smooth="yes"/>
			<point x="144.333" y="418.333"/>
			<point x="209.333" y="377.667"/>
			<point x="293.667" y="349.333" type="curve" smooth="yes"/>
			<point x="394" y="315.667"/>
			<point x="428.333" y="296"/>
			<point x="428.333" y="227.667" type="curve" smooth="yes"/>
			<point x="428.333" y="144.333"/>
			<point x="358.333" y="76.333"/>
			<point x="271.333" y="76.333" type="curve" smooth="yes"/>
			<point x="201.333" y="76.333"/>
			<point x="158.333" y="117.333"/>
			<point x="158.333" y="185.333" type="curve" smooth="yes"/>
			<point x="158.333" y="192.333"/>
			<point x="158.667" y="200.667"/>
			<point x="159.667" y="208.333" type="curve"/>
		</contour>
	</outline>
</glyph>
<glyph name="T" format="2">
	<unicode hex="0054"/>
	<advance width="426"/>
	<outline>
		<contour>
			<point x="165.333" y="0" type="line"/>
			<point x="260.333" y="0" type="line"/>
			<point x="381.333" y="650.667" type="line"/>
			<point x="539.667" y="650.667" type="line"/>
			<point x="555.667" y="739" type="line"/>
			<point x="144" y="739" type="line"/>
			<point x="128" y="650.667" type="line"/>
			<point x="286.333" y="650.667" type="line"/>
		</contour>
	</outline>
</glyph>
<glyph name="V" format="2">
	<unicode hex="0056"/>
	<advance width="699"/>
	<outline>
		<contour>
			<point x="306.667" y="0" type="line"/>
			<point x="392" y="0" type="line"/>
			<point x="828.333" y="739" type="line"/>
			<point x="727" y="739" type="line"/>
			<point x="372" y="120.333" type="line"/>
			<point x="247" y="739" type="line"/>
			<point x="145" y="739" type="line"/>
		</contour>
	</outline>
</glyph>
<glyph name="W" format="2">
	<unicode hex="0057"/>
	<advance width="945"/>
	<outline>
		<contour>
			<point x="223.667" y="0" type="line"/>
			<point x="323.667" y="0" type="line"/>
			<point x="577.333" y="567" type="line"/>
			<point x="621.333" y="0" type="line"/>
			<point x="721" y="0" type="line"/>
			<point x="1071.33" y="739" type="line"/>
			<point x="974" y="739" type="line"/>
			<point x="697.667" y="138.333" type="line"/>
			<point x="649.667" y="739" type="line"/>
			<point x="569.667" y="739" type="line"/>
			<point x="298.333" y="138.333" type="line"/>
			<point x="245" y="739" type="line"/>
			<point x="147.667" y="739" type="line"/>
		</contour>
	</outline>
</glyph>
<glyph name="X" format="2">
	<unicode hex="0058"/>
	<advance width="634"/>
	<outline>
		<contour>
			<point x="7.667" y="0" type="line"/>
			<point x="120" y="0" type="line"/>
			<point x="372.333" y="295.667" type="line"/>
			<point x="515.667" y="0" type="line"/>
			<point x="626.667" y="0" type="line"/>
			<point x="442.667" y="374.667" type="line"/>
			<point x="753.667" y="739" type="line"/>
			<point x="643.333" y="739" type="line"/>
			<point x="401.667" y="455.667" type="line"/>
			<point x="266.333" y="739" type="line"/>
			<point x="154" y="739" type="line"/>
			<point x="329" y="374.667" type="line"/>
		</contour>
	</outline>
</glyph>
<glyph name="Y" format="2">
	<unicode hex="0059"/>
	<advance width="607"/>
	<outline>
		<contour>
			<point x="255.333" y="0" type="line"/>
			<point x="350.333" y="0" type="line"/>
			<point x="398" y="255.667" type="line"/>
			<point x="740.333" y="739" type="line"/>
			<point x="637" y="739" type="line"/>
			<point x="367" y="349.667" type="line"/>
			<point x="244.667" y="739" type="line"/>
			<point x="140.667" y="739" type="line"/>
			<point x="303" y="255.667" type="line"/>
		</contour>
	</outline>
</glyph>
<glyph name="Z" format="2">
	<unicode hex="005A"/>
	<advance width="494"/>
	<outline>
		<contour>
			<point x="21.333" y="0" type="line"/>
			<point x="480" y="0" type="line"/>
			<point x="496" y="88.333" type="line"/>
			<point x="148.333" y="88.333" type="line"/>
			<point x="587.667" y="653.333" type="line"/>
			<point x="603.333" y="739" type="line"/>
			<point x="170.667" y="739" type="line"/>
			<point x="154.667" y="650.667" type="line"/>
			<point x="477.667" y="650.667" type="line"/>
			<point x="36.333" y="83.333" type="line"/>
		</contour>
	</outline>
</glyph>
<glyph name="bracketleft" format="2">
	<unicode hex="005B"/>
	<advance width="338"/>
	<outline>
		<contour>
			<point x="295.333" y="-30" type="line"/>
			<point x="232.333" y="-0.667"/>
			<point x="210" y="35"/>
			<point x="210" y="100.333" type="curve" smooth="yes"/>
			<point x="210" y="121.667"/>
			<point x="212.333" y="145.667"/>
			<point x="217.667" y="172.667" type="curve" smooth="yes"/>
			<point x="267" y="438.333" type="line" smooth="yes"/>
			<point x="286.667" y="544"/>
			<point x="322" y="601"/>
			<point x="419.333" y="640" type="curve"/>
			<point x="437.667" y="739" type="line"/>
			<point x="296.333" y="703"/>
			<point x="205.667" y="600.333"/>
			<point x="179" y="456.667" type="curve" smooth="yes"/>
			<point x="125.667" y="171.667" type="line" smooth="yes"/>
			<point x="119.333" y="137.667"/>
			<point x="116" y="107.667"/>
			<point x="116" y="81" type="curve" smooth="yes"/>
			<point x="116" y="-23"/>
			<point x="174.667" y="-101.333"/>
			<point x="277" y="-129" type="curve"/>
		</contour>
	</outline>
</glyph>
<glyph name="bracketright" format="2">
	<unicode hex="005D"/>
	<advance width="338"/>
	<outline>
		<contour>
			<point x="14" y="-129" type="line"/>
			<point x="156.667" y="-92"/>
			<point x="245.333" y="8.333"/>
			<point x="272.667" y="154" type="curve" smooth="yes"/>
			<point x="325.333" y="438.333" type="line" smooth="yes"/>
			<point x="331.667" y="472.333"/>
			<point x="334.667" y="502.333"/>
			<point x="334.667" y="529" type="curve" smooth="yes"/>
			<point x="334.667" y="634.667"/>
			<point x="279" y="710.667"/>
			<point x="174.667" y="739" type="curve"/>
			<point x="156.333" y="640" type="line"/>
			<point x="219" y="610.667"/>
			<point x="241.333" y="574.667"/>
			<point x="241.333" y="509.667" type="curve" smooth="yes"/>
			<point x="241.333" y="489"/>
			<point x="239" y="465"/>
			<point x="233.667" y="438" type="curve" smooth="yes"/>
			<point x="184.667" y="171.667" type="line" smooth="yes"/>
			<point x="165" y="66"/>
			<point x="129.667" y="9.667"/>
			<point x="32.333" y="-30" type="curve"/>
		</contour>
	</outline>
</glyph>
<glyph name="asciicircum" format="2">
	<unicode hex="005E"/>
	<advance width="604"/>
	<outline>
		<contour>
			<point x="76.333" y="241" type="line"/>
			<point x="162" y="224.333" type="line"/>
			<point x="420.333" y="636.333" type="line"/>
			<point x="524.667" y="224.333" type="line"/>
			<point x="616.333" y="241" type="line"/>
			<point x="488" y="739" type="line"/>
			<point x="390.667" y="739" type="line"/>
		</contour>
	</outline>
</glyph>
<glyph name="underscore" format="2">
	<unicode hex="005F"/>
	<advance width="500"/>
	<outline>
		<contour>
			<point x="-24" y="-129.333" type="line"/>
			<point x="476" y="-129.333" type="line"/>
			<point x="489" y="-60.667" type="line"/>
			<point x="-11" y="-60.667" type="line"/>
		</contour>
	</outline>
</glyph>
<glyph name="grave" format="2">
	<unicode hex="0060"/>
	<advance width="388"/>
	<outline>
		<contour>
			<point x="205" y="724.333" type="line"/>
			<point x="390.667" y="611" type="line"/>
			<point x="442" y="674.667" type="line"/>
			<point x="258" y="792.333" type="line"/>
		</contour>
	</outline>
</glyph>
<glyph name="a" format="2">
	<unicode hex="0061"/>
	<advance width="678"/>
	<outline>
		<contour>
			<point x="527.667" y="0" type="line"/>
			<point x="617.667" y="0" type="line"/>
			<point x="719.333" y="549.333" type="line"/>
			<point x="629.333" y="549.333" type="line"/>
			<point x="612.667" y="460" type="line"/>
			<point x="573.667" y="531.667"/>
			<point x="517.667" y="562.333"/>
			<point x="427.667" y="562.333" type="curve" smooth="yes"/>
			<point x="263.667" y="562.333"/>
			<point x="118" y="438.667"/>
			<point x="87.667" y="273" type="curve" smooth="yes"/>
			<point x="83.667" y="253.333"/>
			<point x="82.333" y="234"/>
			<point x="82.333" y="215.333" type="curve" smooth="yes"/>
			<point x="82.333" y="80.333"/>
			<point x="178" y="-13"/>
			<point x="324.333" y="-13" type="curve" smooth="yes"/>
			<point x="412.333" y="-13"/>
			<point x="474.667" y="15.667"/>
			<point x="544" y="88" type="curve"/>
		</contour>
		<contour>
			<point x="179" y="234.333" type="curve" smooth="yes"/>
			<point x="179" y="246.667"/>
			<point x="180" y="260.667"/>
			<point x="182.667" y="274" type="curve" smooth="yes"/>
			<point x="203.667" y="387.333"/>
			<point x="305.667" y="476.333"/>
			<point x="414.667" y="476.333" type="curve" smooth="yes"/>
			<point x="515.333" y="476.333"/>
			<point x="581.333" y="410.667"/>
			<point x="581.333" y="316" type="curve" smooth="yes"/>
			<point x="581.333" y="302.667"/>
			<point x="580" y="289.333"/>
			<point x="577.333" y="275" type="curve" smooth="yes"/>
			<point x="556" y="159.333"/>
			<point x="456.667" y="73"/>
			<point x="345.333" y="73" type="curve" smooth="yes"/>
			<point x="245.667" y="73"/>
			<point x="179" y="140"/>
		</contour>
	</outline>
</glyph>
<glyph name="b" format="2">
	<unicode hex="0062"/>
	<advance width="677"/>
	<outline>
		<contour>
			<point x="60" y="0" type="line"/>
			<point x="150" y="0" type="line"/>
			<point x="165.667" y="86.333" type="line"/>
			<point x="203" y="20.667"/>
			<point x="267.333" y="-13"/>
			<point x="354.667" y="-13" type="curve" smooth="yes"/>
			<point x="540.667" y="-13"/>
			<point x="696" y="150.667"/>
			<point x="696" y="333.667" type="curve" smooth="yes"/>
			<point x="696" y="468.333"/>
			<point x="601" y="564.667"/>
			<point x="459" y="564.667" type="curve" smooth="yes"/>
			<point x="373.333" y="564.667"/>
			<point x="301" y="532.667"/>
			<point x="240.667" y="469.667" type="curve"/>
			<point x="290.667" y="739" type="line"/>
			<point x="197" y="739" type="line"/>
		</contour>
		<contour>
			<point x="195" y="235.333" type="curve" smooth="yes"/>
			<point x="195" y="361.333"/>
			<point x="304.333" y="478.667"/>
			<point x="432.667" y="478.667" type="curve" smooth="yes"/>
			<point x="535" y="478.667"/>
			<point x="599.667" y="414.333"/>
			<point x="599.667" y="319.333" type="curve" smooth="yes"/>
			<point x="599.667" y="188.667"/>
			<point x="494" y="73"/>
			<point x="360.333" y="73" type="curve" smooth="yes"/>
			<point x="261" y="73"/>
			<point x="195" y="141.667"/>
		</contour>
	</outline>
</glyph>
<glyph name="c" format="2">
	<unicode hex="0063"/>
	<advance width="640"/>
	<outline>
		<contour>
			<point x="530.333" y="168" type="line"/>
			<point x="469" y="100.333"/>
			<point x="416" y="73"/>
			<point x="345.667" y="73" type="curve" smooth="yes"/>
			<point x="246.333" y="73"/>
			<point x="179.333" y="141.333"/>
			<point x="179.333" y="235.667" type="curve" smooth="yes"/>
			<point x="179.333" y="362"/>
			<point x="290" y="476.333"/>
			<point x="417.333" y="476.333" type="curve" smooth="yes"/>
			<point x="491.333" y="476.333"/>
			<point x="544" y="442.333"/>
			<point x="569" y="377" type="curve"/>
			<point x="674.333" y="377" type="line"/>
			<point x="651.333" y="492.667"/>
			<point x="560.667" y="562.333"/>
			<point x="434.333" y="562.333" type="curve" smooth="yes"/>
			<point x="253" y="562.333"/>
			<point x="83.333" y="406"/>
			<point x="83.333" y="222" type="curve" smooth="yes"/>
			<point x="83.333" y="86"/>
			<point x="184.667" y="-13"/>
			<point x="332.667" y="-13" type="curve" smooth="yes"/>
			<point x="465.333" y="-13"/>
			<point x="563.333" y="57.333"/>
			<point x="636.333" y="168" type="curve"/>
		</contour>
	</outline>
</glyph>
<glyph name="d" format="2">
	<unicode hex="0064"/>
	<advance width="678"/>
	<outline>
		<contour>
			<point x="82.667" y="218.333" type="curve" smooth="yes"/>
			<point x="82.667" y="83.333"/>
			<point x="180.667" y="-13"/>
			<point x="326.667" y="-13" type="curve" smooth="yes"/>
			<point x="413" y="-13"/>
			<point x="475.667" y="17.333"/>
			<point x="544.667" y="90" type="curve"/>
			<point x="528.333" y="0" type="line"/>
			<point x="618.333" y="0" type="line"/>
			<point x="755.333" y="739" type="line"/>
			<point x="661.667" y="739" type="line"/>
			<point x="612.667" y="475" type="line"/>
			<point x="574.333" y="532.667"/>
			<point x="509" y="564.667"/>
			<point x="428.333" y="564.667" type="curve" smooth="yes"/>
			<point x="244.667" y="564.667"/>
			<point x="82.667" y="401.667"/>
		</contour>
		<contour>
			<point x="179.667" y="238" type="curve" smooth="yes"/>
			<point x="179.667" y="361.333"/>
			<point x="290" y="478.667"/>
			<point x="414.667" y="478.667" type="curve" smooth="yes"/>
			<point x="516.667" y="478.667"/>
			<point x="585" y="410.333"/>
			<point x="585" y="315.333" type="curve" smooth="yes"/>
			<point x="585" y="191.667"/>
			<point x="473.333" y="73"/>
			<point x="347.667" y="73" type="curve" smooth="yes"/>
			<point x="247.333" y="73"/>
			<point x="179.667" y="143.333"/>
		</contour>
	</outline>
</glyph>
<glyph name="e" format="2">
	<unicode hex="0065"/>
	<advance width="645"/>
	<outline>
		<contour>
			<point x="527.667" y="174.667" type="line"/>
			<point x="484" y="111.333"/>
			<point x="414.667" y="73"/>
			<point x="341" y="73" type="curve" smooth="yes"/>
			<point x="241.333" y="73"/>
			<point x="170.667" y="143"/>
			<point x="178.667" y="238.667" type="curve"/>
			<point x="651.667" y="238.667" type="line"/>
			<point x="660.667" y="273"/>
			<point x="665.333" y="305.333"/>
			<point x="665.333" y="334" type="curve" smooth="yes"/>
			<point x="665.333" y="469.667"/>
			<point x="564.333" y="562.333"/>
			<point x="427.667" y="562.333" type="curve" smooth="yes"/>
			<point x="247" y="562.333"/>
			<point x="83.333" y="402.333"/>
			<point x="83.333" y="221.333" type="curve" smooth="yes"/>
			<point x="83.333" y="86"/>
			<point x="182.667" y="-13"/>
			<point x="328" y="-13" type="curve" smooth="yes"/>
			<point x="446.667" y="-13"/>
			<point x="568.667" y="62.333"/>
			<point x="627.333" y="174.667" type="curve"/>
		</contour>
		<contour>
			<point x="194.667" y="322.333" type="line"/>
			<point x="232" y="416.333"/>
			<point x="316.333" y="476.333"/>
			<point x="412" y="476.333" type="curve" smooth="yes"/>
			<point x="510" y="476.333"/>
			<point x="571.667" y="418.667"/>
			<point x="576.333" y="322.333" type="curve"/>
		</contour>
	</outline>
</glyph>
<glyph name="f" format="2">
	<unicode hex="0066"/>
	<advance width="307"/>
	<outline>
		<contour>
			<point x="90" y="0" type="line"/>
			<point x="183.667" y="0" type="line"/>
			<point x="269.667" y="464.333" type="line"/>
			<point x="385.333" y="464.333" type="line"/>
			<point x="400.333" y="546" type="line"/>
			<point x="284.667" y="546" type="line"/>
			<point x="300" y="627.667"/>
			<point x="336" y="651.667"/>
			<point x="423" y="651.667" type="curve"/>
			<point x="439" y="738.333" type="line"/>
			<point x="292" y="738.333"/>
			<point x="221" y="682"/>
			<point x="191" y="546" type="curve"/>
			<point x="118.333" y="546" type="line"/>
			<point x="103.333" y="464.333" type="line"/>
			<point x="176" y="464.333" type="line"/>
		</contour>
	</outline>
</glyph>
<glyph name="g" format="2">
	<unicode hex="0067"/>
	<advance width="670"/>
	<outline>
		<contour>
			<point x="49" y="-26.333" type="line"/>
			<point x="67.667" y="-148.667"/>
			<point x="154.333" y="-217"/>
			<point x="291.667" y="-217" type="curve" smooth="yes"/>
			<point x="499" y="-217"/>
			<point x="593.333" y="-87"/>
			<point x="628" y="100.333" type="curve" smooth="yes"/>
			<point x="711.333" y="549.333" type="line"/>
			<point x="619.667" y="549.333" type="line"/>
			<point x="603.333" y="461.333" type="line"/>
			<point x="565.333" y="530.667"/>
			<point x="507.333" y="562.333"/>
			<point x="418.667" y="562.333" type="curve" smooth="yes"/>
			<point x="233.667" y="562.333"/>
			<point x="82.667" y="397.333"/>
			<point x="82.667" y="216" type="curve" smooth="yes"/>
			<point x="82.667" y="82"/>
			<point x="175.667" y="-13"/>
			<point x="316" y="-13" type="curve" smooth="yes"/>
			<point x="408" y="-13"/>
			<point x="476.333" y="22"/>
			<point x="536.667" y="98.333" type="curve"/>
			<point x="509.667" y="-38"/>
			<point x="453.667" y="-132.667"/>
			<point x="308" y="-132.667" type="curve" smooth="yes"/>
			<point x="212.667" y="-132.667"/>
			<point x="170.333" y="-104.667"/>
			<point x="147.333" y="-26.333" type="curve"/>
		</contour>
		<contour>
			<point x="337.333" y="73" type="curve" smooth="yes"/>
			<point x="240" y="73"/>
			<point x="179" y="137"/>
			<point x="179" y="231.333" type="curve" smooth="yes"/>
			<point x="179" y="356"/>
			<point x="275.333" y="476.333"/>
			<point x="406" y="476.333" type="curve" smooth="yes"/>
			<point x="506.667" y="476.333"/>
			<point x="571.667" y="413.333"/>
			<point x="571.667" y="319.667" type="curve" smooth="yes"/>
			<point x="571.667" y="192.667"/>
			<point x="468" y="73"/>
		</contour>
	</outline>
</glyph>
<glyph name="h" format="2">
	<unicode hex="0068"/>
	<advance width="606"/>
	<outline>
		<contour>
			<point x="60" y="0" type="line"/>
			<point x="153.667" y="0" type="line"/>
			<point x="208.333" y="293.667" type="line" smooth="yes"/>
			<point x="226.667" y="392.667"/>
			<point x="278.667" y="476.333"/>
			<point x="392" y="476.333" type="curve" smooth="yes"/>
			<point x="469" y="476.333"/>
			<point x="513.333" y="434.667"/>
			<point x="513.333" y="357.333" type="curve" smooth="yes"/>
			<point x="513.333" y="338"/>
			<point x="511" y="315.667"/>
			<point x="506" y="290.333" type="curve" smooth="yes"/>
			<point x="452.667" y="0" type="line"/>
			<point x="546.333" y="0" type="line"/>
			<point x="601.667" y="300.333" type="line" smooth="yes"/>
			<point x="608" y="333.667"/>
			<point x="611" y="361.333"/>
			<point x="611" y="386.333" type="curve" smooth="yes"/>
			<point x="611" y="501.333"/>
			<point x="536" y="562.667"/>
			<point x="420.333" y="562.667" type="curve" smooth="yes"/>
			<point x="351.667" y="562.667"/>
			<point x="291.333" y="537.333"/>
			<point x="244.333" y="489.333" type="curve"/>
			<point x="290.667" y="739" type="line"/>
			<point x="197" y="739" type="line"/>
		</contour>
	</outline>
</glyph>
<glyph name="i" format="2">
	<unicode hex="0069"/>
	<advance width="214"/>
	<outline>
		<contour>
			<point x="60" y="0" type="line"/>
			<point x="153.667" y="0" type="line"/>
			<point x="255.333" y="549.333" type="line"/>
			<point x="161.667" y="549.333" type="line"/>
		</contour>
		<contour>
			<point x="174" y="613.333" type="line"/>
			<point x="267.667" y="613.333" type="line"/>
			<point x="290.667" y="739" type="line"/>
			<point x="197" y="739" type="line"/>
		</contour>
	</outline>
</glyph>
<glyph name="j" format="2">
	<unicode hex="006A"/>
	<advance width="220"/>
	<outline>
		<contour>
			<point x="-61" y="-189.667" type="line"/>
			<point x="-13.333" y="-188.333"/>
			<point x="26" y="-176"/>
			<point x="63" y="-151" type="curve" smooth="yes"/>
			<point x="121.667" y="-111.667"/>
			<point x="149" y="-63.333"/>
			<point x="167.333" y="37.667" type="curve" smooth="yes"/>
			<point x="262" y="549.333" type="line"/>
			<point x="168.333" y="549.333" type="line"/>
			<point x="73.667" y="38.667" type="line" smooth="yes"/>
			<point x="55" y="-63.333"/>
			<point x="29.667" y="-93"/>
			<point x="-43.667" y="-99.333" type="curve"/>
		</contour>
		<contour>
			<point x="180.667" y="613.333" type="line"/>
			<point x="274.333" y="613.333" type="line"/>
			<point x="297.333" y="739" type="line"/>
			<point x="203.667" y="739" type="line"/>
		</contour>
	</outline>
</glyph>
<glyph name="k" format="2">
	<unicode hex="006B"/>
	<advance width="520"/>
	<outline>
		<contour>
			<point x="60" y="0" type="line"/>
			<point x="153.667" y="0" type="line"/>
			<point x="173.667" y="107" type="line"/>
			<point x="269.333" y="205" type="line"/>
			<point x="395.333" y="0" type="line"/>
			<point x="516.333" y="0" type="line"/>
			<point x="339" y="275.667" type="line"/>
			<point x="598" y="549.333" type="line"/>
			<point x="484.333" y="549.333" type="line"/>
			<point x="198.333" y="241" type="line"/>
			<point x="290.667" y="739" type="line"/>
			<point x="197" y="739" type="line"/>
		</contour>
	</outline>
</glyph>
<glyph name="l" format="2">
	<unicode hex="006C"/>
	<advance width="214"/>
	<outline>
		<contour>
			<point x="60" y="0" type="line"/>
			<point x="153.667" y="0" type="line"/>
			<point x="290.667" y="739" type="line"/>
			<point x="197" y="739" type="line"/>
		</contour>
	</outline>
</glyph>
<glyph name="m" format="2">
	<unicode hex="006D"/>
	<advance width="938"/>
	<outline>
		<contour>
			<point x="60" y="0" type="line"/>
			<point x="153.667" y="0" type="line"/>
			<point x="210" y="303.667" type="line" smooth="yes"/>
			<point x="228.333" y="404"/>
			<point x="279.667" y="476.333"/>
			<point x="376" y="476.333" type="curve" smooth="yes"/>
			<point x="443.667" y="476.333"/>
			<point x="486.667" y="437.333"/>
			<point x="486.667" y="370.667" type="curve" smooth="yes"/>
			<point x="486.667" y="354.667"/>
			<point x="484.333" y="335.667"/>
			<point x="480.333" y="314" type="curve" smooth="yes"/>
			<point x="422.333" y="0" type="line"/>
			<point x="516" y="0" type="line"/>
			<point x="572.333" y="302.333" type="line" smooth="yes"/>
			<point x="589.333" y="394.333"/>
			<point x="634.667" y="476.333"/>
			<point x="741.333" y="476.333" type="curve" smooth="yes"/>
			<point x="811" y="476.333"/>
			<point x="849" y="438"/>
			<point x="849" y="370.667" type="curve" smooth="yes"/>
			<point x="849" y="354"/>
			<point x="846.667" y="335"/>
			<point x="842.667" y="312.667" type="curve" smooth="yes"/>
			<point x="784.667" y="0" type="line"/>
			<point x="878.333" y="0" type="line"/>
			<point x="938" y="323.333" type="line" smooth="yes"/>
			<point x="943" y="350"/>
			<point x="946" y="374"/>
			<point x="946" y="395.667" type="curve" smooth="yes"/>
			<point x="946" y="505"/>
			<point x="873" y="562.333"/>
			<point x="763.667" y="562.333" type="curve" smooth="yes"/>
			<point x="681.667" y="562.333"/>
			<point x="618.667" y="532.333"/>
			<point x="560" y="463.667" type="curve"/>
			<point x="531.667" y="533.333"/>
			<point x="486" y="562.333"/>
			<point x="405" y="562.333" type="curve" smooth="yes"/>
			<point x="337.333" y="562.333"/>
			<point x="292.333" y="542.333"/>
			<point x="241" y="490" type="curve"/>
			<point x="251.667" y="549.333" type="line"/>
			<point x="161.667" y="549.333" type="line"/>
		</contour>
	</outline>
</glyph>
<glyph name="n" format="2">
	<unicode hex="006E"/>
	<advance width="606"/>
	<outline>
		<contour>
			<point x="60" y="0" type="line"/>
			<point x="153.667" y="0" type="line"/>
			<point x="207" y="287.667" type="line" smooth="yes"/>
			<point x="225.667" y="390.667"/>
			<point x="274.333" y="476.333"/>
			<point x="393" y="476.333" type="curve" smooth="yes"/>
			<point x="469.333" y="476.333"/>
			<point x="513.667" y="434.333"/>
			<point x="513.667" y="360" type="curve" smooth="yes"/>
			<point x="513.667" y="338.667"/>
			<point x="510.667" y="313.333"/>
			<point x="505" y="281.667" type="curve" smooth="yes"/>
			<point x="453" y="0" type="line"/>
			<point x="546.667" y="0" type="line"/>
			<point x="600.333" y="290.333" type="line" smooth="yes"/>
			<point x="608" y="330.667"/>
			<point x="611.333" y="362.333"/>
			<point x="611.333" y="389" type="curve" smooth="yes"/>
			<point x="611.333" y="500.333"/>
			<point x="535" y="562.333"/>
			<point x="424" y="562.333" type="curve" smooth="yes"/>
			<point x="354.667" y="562.333"/>
			<point x="297.333" y="538.333"/>
			<point x="240" y="484.333" type="curve"/>
			<point x="252" y="549.333" type="line"/>
			<point x="161.667" y="549.333" type="line"/>
		</contour>
	</outline>
</glyph>
<glyph name="o" format="2">
	<unicode hex="006F"/>
	<advance width="652"/>
	<outline>
		<contour>
			<point x="82.667" y="219.333" type="curve" smooth="yes"/>
			<point x="82.667" y="84.333"/>
			<point x="182" y="-13"/>
			<point x="328.333" y="-13" type="curve" smooth="yes"/>
			<point x="512.333" y="-13"/>
			<point x="670.333" y="148.333"/>
			<point x="670.333" y="330.333" type="curve" smooth="yes"/>
			<point x="670.333" y="464.667"/>
			<point x="575.667" y="562.333"/>
			<point x="434" y="562.333" type="curve" smooth="yes"/>
			<point x="249.333" y="562.333"/>
			<point x="82.667" y="405.333"/>
		</contour>
		<contour>
			<point x="178.667" y="233.667" type="curve" smooth="yes"/>
			<point x="178.667" y="358"/>
			<point x="284" y="476.333"/>
			<point x="412" y="476.333" type="curve" smooth="yes"/>
			<point x="510.667" y="476.333"/>
			<point x="574.333" y="410.333"/>
			<point x="574.333" y="315.667" type="curve" smooth="yes"/>
			<point x="574.333" y="189.667"/>
			<point x="472" y="73"/>
			<point x="342" y="73" type="curve" smooth="yes"/>
			<point x="243.333" y="73"/>
			<point x="178.667" y="140"/>
		</contour>
	</outline>
</glyph>
<glyph name="p" format="2">
	<unicode hex="0070"/>
	<advance width="675"/>
	<outline>
		<contour>
			<point x="24.667" y="-189.667" type="line"/>
			<point x="118.333" y="-189.667" type="line"/>
			<point x="168.333" y="80" type="line"/>
			<point x="206" y="18.333"/>
			<point x="267" y="-13"/>
			<point x="350.333" y="-13" type="curve" smooth="yes"/>
			<point x="513" y="-13"/>
			<point x="659" y="111.667"/>
			<point x="689.333" y="275" type="curve" smooth="yes"/>
			<point x="693.333" y="294.667"/>
			<point x="694.667" y="314.333"/>
			<point x="694.667" y="333" type="curve" smooth="yes"/>
			<point x="694.667" y="467.667"/>
			<point x="601" y="562.333"/>
			<point x="458.333" y="562.333" type="curve" smooth="yes"/>
			<point x="370.667" y="562.333"/>
			<point x="293" y="528.667"/>
			<point x="236.333" y="465" type="curve"/>
			<point x="251.667" y="549.333" type="line"/>
			<point x="161.667" y="549.333" type="line"/>
		</contour>
		<contour>
			<point x="195" y="234.667" type="curve" smooth="yes"/>
			<point x="195" y="247.667"/>
			<point x="196" y="260"/>
			<point x="198.667" y="273.667" type="curve" smooth="yes"/>
			<point x="220" y="388"/>
			<point x="321.333" y="476.333"/>
			<point x="431.333" y="476.333" type="curve" smooth="yes"/>
			<point x="532.667" y="476.333"/>
			<point x="598.333" y="410.667"/>
			<point x="598.333" y="315.333" type="curve" smooth="yes"/>
			<point x="598.333" y="301.667"/>
			<point x="596.333" y="287.333"/>
			<point x="593.667" y="272.667" type="curve" smooth="yes"/>
			<point x="572.667" y="159.333"/>
			<point x="471.667" y="73"/>
			<point x="360" y="73" type="curve" smooth="yes"/>
			<point x="261" y="73"/>
			<point x="195" y="141"/>
		</contour>
	</outline>
</glyph>
<glyph name="q" format="2">
	<unicode hex="0071"/>
	<advance width="676"/>
	<outline>
		<contour>
			<point x="486.667" y="-189.667" type="line"/>
			<point x="580.333" y="-189.667" type="line"/>
			<point x="717.333" y="549.333" type="line"/>
			<point x="627.333" y="549.333" type="line"/>
			<point x="611.667" y="463" type="line"/>
			<point x="578.667" y="529"/>
			<point x="516.333" y="562.333"/>
			<point x="426.667" y="562.333" type="curve" smooth="yes"/>
			<point x="266" y="562.333"/>
			<point x="118.667" y="437.333"/>
			<point x="88.667" y="275" type="curve" smooth="yes"/>
			<point x="85.333" y="255.667"/>
			<point x="82.667" y="237.667"/>
			<point x="82.667" y="219.333" type="curve" smooth="yes"/>
			<point x="82.667" y="85"/>
			<point x="179" y="-13"/>
			<point x="322.333" y="-13" type="curve" smooth="yes"/>
			<point x="405.667" y="-13"/>
			<point x="478.667" y="19"/>
			<point x="536.667" y="80.333" type="curve"/>
		</contour>
		<contour>
			<point x="178.667" y="233" type="curve" smooth="yes"/>
			<point x="178.667" y="246"/>
			<point x="179.667" y="259.333"/>
			<point x="182.333" y="273.333" type="curve" smooth="yes"/>
			<point x="203.667" y="388.333"/>
			<point x="304.667" y="476.333"/>
			<point x="416" y="476.333" type="curve" smooth="yes"/>
			<point x="517" y="476.333"/>
			<point x="583" y="409.667"/>
			<point x="583" y="314.667" type="curve" smooth="yes"/>
			<point x="583" y="301.333"/>
			<point x="581.667" y="288"/>
			<point x="579" y="273.667" type="curve" smooth="yes"/>
			<point x="557.667" y="159.667"/>
			<point x="456" y="73"/>
			<point x="343.667" y="73" type="curve" smooth="yes"/>
			<point x="244.333" y="73"/>
			<point x="178.667" y="139"/>
		</contour>
	</outline>
</glyph>
<glyph name="r" format="2">
	<unicode hex="0072"/>
	<advance width="311"/>
	<outline>
		<contour>
			<point x="60" y="0" type="line"/>
			<point x="153.667" y="0" type="line"/>
			<point x="212" y="315.333" type="line" smooth="yes"/>
			<point x="230" y="412"/>
			<point x="287" y="464.333"/>
			<point x="383.667" y="471" type="curve"/>
			<point x="401" y="562.333" type="line"/>
			<point x="324.333" y="559.667"/>
			<point x="281" y="537"/>
			<point x="239" y="479.333" type="curve"/>
			<point x="251.667" y="549.333" type="line"/>
			<point x="161.667" y="549.333" type="line"/>
		</contour>
	</outline>
</glyph>
<glyph name="s" format="2">
	<unicode hex="0073"/>
	<advance width="405"/>
	<outline>
		<contour>
			<point x="48" y="166" type="line"/>
			<point x="46" y="153"/>
			<point x="44.333" y="140.333"/>
			<point x="44.333" y="128.667" type="curve" smooth="yes"/>
			<point x="44.333" y="44.667"/>
			<point x="106.667" y="-13"/>
			<point x="200" y="-13" type="curve" smooth="yes"/>
			<point x="326.667" y="-13"/>
			<point x="412.667" y="65.333"/>
			<point x="412.667" y="177.333" type="curve" smooth="yes"/>
			<point x="412.667" y="245.667"/>
			<point x="374" y="294.667"/>
			<point x="286.333" y="326" type="curve" smooth="yes"/>
			<point x="240" y="342.333"/>
			<point x="205.667" y="369"/>
			<point x="205.667" y="405" type="curve" smooth="yes"/>
			<point x="205.667" y="450"/>
			<point x="240" y="476.333"/>
			<point x="287.333" y="476.333" type="curve" smooth="yes"/>
			<point x="324.667" y="476.333"/>
			<point x="348.333" y="458"/>
			<point x="348.333" y="422.333" type="curve" smooth="yes"/>
			<point x="348.333" y="417.333"/>
			<point x="348" y="412.333"/>
			<point x="347" y="408.333" type="curve"/>
			<point x="440.333" y="408.333" type="line"/>
			<point x="441.667" y="418.333"/>
			<point x="442.667" y="428"/>
			<point x="442.667" y="437.333" type="curve" smooth="yes"/>
			<point x="442.667" y="514"/>
			<point x="385" y="562.333"/>
			<point x="306" y="562.333" type="curve" smooth="yes"/>
			<point x="188.333" y="562.333"/>
			<point x="109" y="494"/>
			<point x="109" y="390.667" type="curve" smooth="yes"/>
			<point x="109" y="327"/>
			<point x="144.333" y="277.667"/>
			<point x="228.667" y="248" type="curve" smooth="yes"/>
			<point x="291.333" y="225.667"/>
			<point x="315.333" y="191.667"/>
			<point x="315.333" y="154.667" type="curve" smooth="yes"/>
			<point x="315.333" y="100.333"/>
			<point x="277" y="73"/>
			<point x="219.333" y="73" type="curve" smooth="yes"/>
			<point x="171" y="73"/>
			<point x="139.333" y="96.667"/>
			<point x="139.333" y="146" type="curve" smooth="yes"/>
			<point x="139.333" y="152.333"/>
			<point x="140" y="160"/>
			<point x="141.333" y="166" type="curve"/>
		</contour>
	</outline>
</glyph>
<glyph name="t" format="2">
	<unicode hex="0074"/>
	<advance width="327"/>
	<outline>
		<contour>
			<point x="112.667" y="0" type="line"/>
			<point x="206.333" y="0" type="line"/>
			<point x="292.333" y="464.333" type="line"/>
			<point x="401" y="464.333" type="line"/>
			<point x="416.667" y="549.333" type="line"/>
			<point x="308" y="549.333" type="line"/>
			<point x="343.333" y="739" type="line"/>
			<point x="249.667" y="739" type="line"/>
			<point x="214.333" y="549.333" type="line"/>
			<point x="114" y="549.333" type="line"/>
			<point x="98.333" y="464.333" type="line"/>
			<point x="198.667" y="464.333" type="line"/>
		</contour>
	</outline>
</glyph>
<glyph name="u" format="2">
	<unicode hex="0075"/>
	<advance width="605"/>
	<outline>
		<contour>
			<point x="454.667" y="0" type="line"/>
			<point x="545" y="0" type="line"/>
			<point x="646.667" y="549.333" type="line"/>
			<point x="553" y="549.333" type="line"/>
			<point x="502" y="275" type="line"/>
			<point x="483" y="167.667"/>
			<point x="434.667" y="73"/>
			<point x="310" y="73" type="curve" smooth="yes"/>
			<point x="234" y="73"/>
			<point x="193" y="112.667"/>
			<point x="193" y="186" type="curve" smooth="yes"/>
			<point x="193" y="207.333"/>
			<point x="196" y="232.667"/>
			<point x="201.667" y="262.333" type="curve" smooth="yes"/>
			<point x="254.667" y="549.333" type="line"/>
			<point x="161" y="549.333" type="line"/>
			<point x="106.667" y="253.667" type="line" smooth="yes"/>
			<point x="100.667" y="220.667"/>
			<point x="96.667" y="190.667"/>
			<point x="96.667" y="163.333" type="curve" smooth="yes"/>
			<point x="96.667" y="54.333"/>
			<point x="162" y="-13"/>
			<point x="282.333" y="-13" type="curve" smooth="yes"/>
			<point x="361.333" y="-13"/>
			<point x="415.333" y="12.667"/>
			<point x="468.667" y="74.333" type="curve"/>
		</contour>
	</outline>
</glyph>
<glyph name="v" format="2">
	<unicode hex="0076"/>
	<advance width="555"/>
	<outline>
		<contour>
			<point x="234" y="0" type="line"/>
			<point x="321.333" y="0" type="line"/>
			<point x="650.667" y="549.333" type="line"/>
			<point x="550.667" y="549.333" type="line"/>
			<point x="298.667" y="120.333" type="line"/>
			<point x="207.333" y="549.333" type="line"/>
			<point x="108" y="549.333" type="line"/>
		</contour>
	</outline>
</glyph>
<glyph name="w" format="2">
	<unicode hex="0077"/>
	<advance width="814"/>
	<outline>
		<contour>
			<point x="211" y="0" type="line"/>
			<point x="291.667" y="0" type="line"/>
			<point x="473" y="361.667" type="line"/>
			<point x="520.333" y="0" type="line"/>
			<point x="600.667" y="0" type="line"/>
			<point x="910.333" y="549.333" type="line"/>
			<point x="815" y="549.333" type="line"/>
			<point x="585" y="131.333" type="line"/>
			<point x="538.333" y="504.667" type="line"/>
			<point x="462.333" y="504.667" type="line"/>
			<point x="275.667" y="131.333" type="line"/>
			<point x="204.333" y="549.333" type="line"/>
			<point x="107.333" y="549.333" type="line"/>
		</contour>
	</outline>
</glyph>
<glyph name="x" format="2">
	<unicode hex="0078"/>
	<advance width="506"/>
	<outline>
		<contour>
			<point x="6.333" y="0" type="line"/>
			<point x="115.667" y="0" type="line"/>
			<point x="292" y="209.333" type="line"/>
			<point x="389.667" y="0" type="line"/>
			<point x="499.667" y="0" type="line"/>
			<point x="359" y="281.333" type="line"/>
			<point x="592" y="549.333" type="line"/>
			<point x="485.333" y="549.333" type="line"/>
			<point x="318.333" y="353" type="line"/>
			<point x="222.667" y="549.333" type="line"/>
			<point x="116.667" y="549.333" type="line"/>
			<point x="250.667" y="281.333" type="line"/>
		</contour>
	</outline>
</glyph>
<glyph name="y" format="2">
	<unicode hex="0079"/>
	<advance width="547"/>
	<outline>
		<contour>
			<point x="86.667" y="-189.667" type="line"/>
			<point x="187" y="-189.667" type="line"/>
			<point x="641.333" y="549.333" type="line"/>
			<point x="537.667" y="549.333" type="line"/>
			<point x="294" y="139" type="line"/>
			<point x="213.333" y="549.333" type="line"/>
			<point x="108.667" y="549.333" type="line"/>
			<point x="221.333" y="29.333" type="line"/>
		</contour>
	</outline>
</glyph>
<glyph name="braceleft" format="2">
	<unicode hex="007B"/>
	<advance width="346"/>
	<outline>
		<contour>
			<point x="286" y="-55.333" type="line"/>
			<point x="234" y="-50.667"/>
			<point x="218.333" y="-41.667"/>
			<point x="218.333" y="-10.667" type="curve" smooth="yes"/>
			<point x="218.333" y="-0.667"/>
			<point x="220" y="10.667"/>
			<point x="222.667" y="26" type="curve" smooth="yes"/>
			<point x="251.667" y="180.333" type="line" smooth="yes"/>
			<point x="254.667" y="197.333"/>
			<point x="256.667" y="212.333"/>
			<point x="256.667" y="224.667" type="curve" smooth="yes"/>
			<point x="256.667" y="273.667"/>
			<point x="230.667" y="291.333"/>
			<point x="185.667" y="305.667" type="curve"/>
			<point x="257" y="323"/>
			<point x="282" y="346.667"/>
			<point x="298" y="432" type="curve" smooth="yes"/>
			<point x="326.333" y="586.333" type="line"/>
			<point x="340.333" y="657.333"/>
			<point x="359" y="662.333"/>
			<point x="420.333" y="667.667" type="curve"/>
			<point x="433.333" y="739" type="line"/>
			<point x="314.667" y="739"/>
			<point x="263.333" y="712"/>
			<point x="242.667" y="600.333" type="curve" smooth="yes"/>
			<point x="212.333" y="434.667" type="line" smooth="yes"/>
			<point x="201.333" y="373.333"/>
			<point x="179" y="352.333"/>
			<point x="115.333" y="342.667" type="curve"/>
			<point x="101.667" y="269.667" type="line"/>
			<point x="149.333" y="261.667"/>
			<point x="168.333" y="247.333"/>
			<point x="168.333" y="211" type="curve" smooth="yes"/>
			<point x="168.333" y="201.333"/>
			<point x="167.333" y="190.667"/>
			<point x="164.667" y="177.667" type="curve" smooth="yes"/>
			<point x="133.667" y="12" type="line" smooth="yes"/>
			<point x="130.667" y="-4.667"/>
			<point x="129.333" y="-20.333"/>
			<point x="129.333" y="-34" type="curve" smooth="yes"/>
			<point x="129.333" y="-114.667"/>
			<point x="186.667" y="-126.667"/>
			<point x="273" y="-126.667" type="curve"/>
		</contour>
	</outline>
</glyph>
<glyph name="bar" format="2">
	<unicode hex="007C"/>
	<advance width="648"/>
	<outline>
		<contour>
			<point x="282.667" y="0" type="line"/>
			<point x="365" y="0" type="line"/>
			<point x="502" y="739" type="line"/>
			<point x="419.667" y="739" type="line"/>
		</contour>
	</outline>
</glyph>
<glyph name="braceright" format="2">
	<unicode hex="007D"/>
	<advance width="344"/>
	<outline>
		<contour>
			<point x="26" y="-126.667" type="line"/>
			<point x="151.333" y="-126.667"/>
			<point x="195" y="-102.667"/>
			<point x="216" y="12" type="curve" smooth="yes"/>
			<point x="247" y="177.667" type="line" smooth="yes"/>
			<point x="258" y="239"/>
			<point x="279" y="260"/>
			<point x="341.333" y="269.667" type="curve"/>
			<point x="355.667" y="342.667" type="line"/>
			<point x="309.333" y="350"/>
			<point x="291" y="365"/>
			<point x="291" y="400.667" type="curve" smooth="yes"/>
			<point x="291" y="410.333"/>
			<point x="292" y="421.667"/>
			<point x="294.667" y="434.667" type="curve" smooth="yes"/>
			<point x="325" y="600.333" type="line" smooth="yes"/>
			<point x="328" y="617"/>
			<point x="330" y="632.667"/>
			<point x="330" y="646.333" type="curve" smooth="yes"/>
			<point x="330" y="726"/>
			<point x="275" y="739"/>
			<point x="186.333" y="739" type="curve"/>
			<point x="173.333" y="667.667" type="line"/>
			<point x="224" y="664.333"/>
			<point x="239.667" y="654.667"/>
			<point x="239.667" y="620.333" type="curve" smooth="yes"/>
			<point x="239.667" y="612.333"/>
			<point x="238" y="597.667"/>
			<point x="236" y="586.333" type="curve" smooth="yes"/>
			<point x="207.667" y="432" type="line" smooth="yes"/>
			<point x="204.667" y="415"/>
			<point x="203" y="400"/>
			<point x="203" y="387.667" type="curve" smooth="yes"/>
			<point x="203" y="337.333"/>
			<point x="229.667" y="321.667"/>
			<point x="274" y="306" type="curve"/>
			<point x="200.667" y="284"/>
			<point x="176" y="259.667"/>
			<point x="161.333" y="180.333" type="curve" smooth="yes"/>
			<point x="132.333" y="26" type="line" smooth="yes"/>
			<point x="119.667" y="-44.333"/>
			<point x="102.333" y="-50"/>
			<point x="39" y="-55.333" type="curve"/>
		</contour>
	</outline>
</glyph>
<glyph name="asciitilde" format="2">
	<unicode hex="007E"/>
	<advance width="604"/>
	<outline>
		<contour>
			<point x="138.333" y="211.333" type="line"/>
			<point x="181" y="268.667"/>
			<point x="206.667" y="298.333"/>
			<point x="251" y="298.333" type="curve" smooth="yes"/>
			<point x="269.333" y="298.333"/>
			<point x="279.333" y="295"/>
			<point x="317" y="278" type="curve" smooth="yes"/>
			<point x="367.667" y="255.333" type="line" smooth="yes"/>
			<point x="406" y="238.333"/>
			<point x="433" y="230.667"/>
			<point x="455.333" y="230.667" type="curve" smooth="yes"/>
			<point x="507.333" y="230.667"/>
			<point x="564" y="270.667"/>
			<point x="618" y="344.333" type="curve"/>
			<point x="577.333" y="400.333" type="line"/>
			<point x="536" y="346"/>
			<point x="502.667" y="321"/>
			<point x="476.667" y="321" type="curve" smooth="yes"/>
			<point x="457.667" y="321"/>
			<point x="439.667" y="327"/>
			<point x="400.667" y="344" type="curve" smooth="yes"/>
			<point x="340" y="370.667" type="line" smooth="yes"/>
			<point x="313.667" y="382.667"/>
			<point x="288.667" y="388.667"/>
			<point x="266.667" y="388.667" type="curve" smooth="yes"/>
			<point x="207.333" y="388.667"/>
			<point x="157" y="343.333"/>
			<point x="100" y="267.667" type="curve"/>
		</contour>
	</outline>
</glyph>
<glyph name="exclamdown" format="2">
	<unicode hex="00A1"/>
	<advance width="304"/>
	<outline>
		<contour>
			<point x="70" y="-189.667" type="line"/>
			<point x="163.667" y="-189.667" type="line"/>
			<point x="265" y="356.667" type="line"/>
			<point x="171.333" y="356.667" type="line"/>
		</contour>
		<contour>
			<point x="183.667" y="422.667" type="line"/>
			<point x="277.333" y="422.667" type="line"/>
			<point x="300.667" y="549.333" type="line"/>
			<point x="207" y="549.333" type="line"/>
		</contour>
	</outline>
</glyph>
<glyph name="cent" format="2">
	<unicode hex="00A2"/>
	<advance width="556"/>
	<outline>
		<contour>
			<point x="256.667" y="54.333" type="line"/>
			<point x="342.333" y="54.333" type="line"/>
			<point x="360.333" y="150" type="line"/>
			<point x="443" y="164.333"/>
			<point x="518.333" y="218.333"/>
			<point x="562.333" y="296.667" type="curve"/>
			<point x="459.667" y="296.667" type="line"/>
			<point x="413" y="252.667"/>
			<point x="374.333" y="234.667"/>
			<point x="326.333" y="234.667" type="curve" smooth="yes"/>
			<point x="255" y="234.667"/>
			<point x="206.333" y="284.667"/>
			<point x="206.333" y="353" type="curve" smooth="yes"/>
			<point x="206.333" y="446.333"/>
			<point x="286" y="527.667"/>
			<point x="380" y="527.667" type="curve" smooth="yes"/>
			<point x="434.333" y="527.667"/>
			<point x="474.333" y="502.333"/>
			<point x="493.333" y="456.333" type="curve"/>
			<point x="596" y="456.333" type="line"/>
			<point x="585.667" y="538.333"/>
			<point x="529.667" y="598"/>
			<point x="446.333" y="613" type="curve"/>
			<point x="464.333" y="709.667" type="line"/>
			<point x="378.667" y="709.667" type="line"/>
			<point x="360.667" y="613" type="line"/>
			<point x="223.667" y="593"/>
			<point x="111.333" y="478"/>
			<point x="111.333" y="336.333" type="curve" smooth="yes"/>
			<point x="111.333" y="237.667"/>
			<point x="173.333" y="163"/>
			<point x="274.667" y="150" type="curve"/>
		</contour>
	</outline>
</glyph>
<glyph name="sterling" format="2">
	<unicode hex="00A3"/>
	<advance width="556"/>
	<outline>
		<contour>
			<point x="53" y="0" type="line"/>
			<point x="329.667" y="0" type="line" smooth="yes"/>
			<point x="472.667" y="0"/>
			<point x="625.333" y="81.333"/>
			<point x="625.333" y="244.667" type="curve" smooth="yes"/>
			<point x="625.333" y="252.333"/>
			<point x="625" y="260"/>
			<point x="623.667" y="270" type="curve"/>
			<point x="531.667" y="270" type="line"/>
			<point x="533.667" y="261.333"/>
			<point x="534.333" y="252.667"/>
			<point x="534.333" y="244" type="curve" smooth="yes"/>
			<point x="534.333" y="136.667"/>
			<point x="457" y="86.333"/>
			<point x="352.667" y="86.333" type="curve" smooth="yes"/>
			<point x="312.333" y="86.333" type="line"/>
			<point x="337.333" y="128.333"/>
			<point x="359" y="175.333"/>
			<point x="359" y="224.667" type="curve" smooth="yes"/>
			<point x="359" y="261.333"/>
			<point x="346.667" y="297"/>
			<point x="323.333" y="334.667" type="curve"/>
			<point x="502.333" y="334.667" type="line"/>
			<point x="519" y="421" type="line"/>
			<point x="260.667" y="421" type="line"/>
			<point x="250.333" y="443.667"/>
			<point x="246" y="460.333"/>
			<point x="246" y="479.333" type="curve" smooth="yes"/>
			<point x="246" y="590.333"/>
			<point x="312" y="666.667"/>
			<point x="422" y="666.667" type="curve" smooth="yes"/>
			<point x="499.333" y="666.667"/>
			<point x="546.667" y="620.667"/>
			<point x="549.667" y="541" type="curve"/>
			<point x="640.667" y="541" type="line"/>
			<point x="641.667" y="547.667"/>
			<point x="642.333" y="560"/>
			<point x="642.333" y="568.667" type="curve" smooth="yes"/>
			<point x="642.333" y="676.333"/>
			<point x="560.667" y="752"/>
			<point x="436.333" y="752" type="curve" smooth="yes"/>
			<point x="265.667" y="752"/>
			<point x="152.333" y="643"/>
			<point x="152.333" y="474" type="curve" smooth="yes"/>
			<point x="152.333" y="457.667"/>
			<point x="155" y="442"/>
			<point x="159.667" y="421" type="curve"/>
			<point x="90.333" y="421" type="line"/>
			<point x="73.667" y="334.667" type="line"/>
			<point x="205" y="334.667" type="line"/>
			<point x="248" y="288"/>
			<point x="265" y="258.667"/>
			<point x="265" y="220.667" type="curve" smooth="yes"/>
			<point x="265" y="170.667"/>
			<point x="243" y="121"/>
			<point x="207.667" y="86.333" type="curve"/>
			<point x="68.667" y="86.333" type="line"/>
		</contour>
	</outline>
</glyph>
<glyph name="currency" format="2">
	<unicode hex="00A4"/>
	<advance width="556"/>
	<outline>
		<contour>
			<point x="107.667" y="88" type="line"/>
			<point x="158.333" y="130" type="line"/>
			<point x="201.667" y="97.333"/>
			<point x="240" y="84.333"/>
			<point x="293" y="84.333" type="curve" smooth="yes"/>
			<point x="346" y="84.333"/>
			<point x="388.667" y="96.667"/>
			<point x="447" y="130" type="curve"/>
			<point x="481" y="88" type="line"/>
			<point x="554.333" y="150" type="line"/>
			<point x="519.667" y="192.333" type="line"/>
			<point x="558.333" y="233"/>
			<point x="580" y="276"/>
			<point x="590.333" y="333" type="curve" smooth="yes"/>
			<point x="594" y="352"/>
			<point x="595.333" y="369"/>
			<point x="595.333" y="385.333" type="curve" smooth="yes"/>
			<point x="595.333" y="417.333"/>
			<point x="589" y="445.667"/>
			<point x="574" y="477.667" type="curve"/>
			<point x="623.333" y="520" type="line"/>
			<point x="573.333" y="583.667" type="line"/>
			<point x="521.667" y="541.333" type="line"/>
			<point x="483.667" y="570.333"/>
			<point x="439.667" y="584"/>
			<point x="385.333" y="584" type="curve" smooth="yes"/>
			<point x="332.333" y="584"/>
			<point x="290.667" y="571.667"/>
			<point x="235.667" y="540.667" type="curve"/>
			<point x="200" y="583.333" type="line"/>
			<point x="125" y="520.667" type="line"/>
			<point x="160.333" y="477.667" type="line"/>
			<point x="119.333" y="428.333"/>
			<point x="100.667" y="391.333"/>
			<point x="90.333" y="335.333" type="curve" smooth="yes"/>
			<point x="86.667" y="316.667"/>
			<point x="85.333" y="300"/>
			<point x="85.333" y="284" type="curve" smooth="yes"/>
			<point x="85.333" y="252.667"/>
			<point x="91.667" y="224.333"/>
			<point x="106.333" y="192.667" type="curve"/>
			<point x="57.667" y="151" type="line"/>
		</contour>
		<contour>
			<point x="175" y="303.333" type="curve" smooth="yes"/>
			<point x="175" y="313.333"/>
			<point x="176" y="324.333"/>
			<point x="177.667" y="335" type="curve"/>
			<point x="194.667" y="426.333"/>
			<point x="278.667" y="497.333"/>
			<point x="369.333" y="497.333" type="curve" smooth="yes"/>
			<point x="453" y="497.333"/>
			<point x="505.667" y="445.667"/>
			<point x="505.667" y="368.333" type="curve" smooth="yes"/>
			<point x="505.667" y="357.667"/>
			<point x="504.333" y="345.667"/>
			<point x="502.333" y="334" type="curve" smooth="yes"/>
			<point x="485.333" y="243"/>
			<point x="402.667" y="172.333"/>
			<point x="312" y="172.333" type="curve" smooth="yes"/>
			<point x="230" y="172.333"/>
			<point x="175" y="226.667"/>
		</contour>
	</outline>
</glyph>
<glyph name="yen" format="2">
	<unicode hex="00A5"/>
	<advance width="556"/>
	<outline>
		<contour>
			<point x="243.667" y="0" type="line"/>
			<point x="336.667" y="0" type="line"/>
			<point x="377.667" y="220.333" type="line"/>
			<point x="580.667" y="220.333" type="line"/>
			<point x="594" y="294.333" type="line"/>
			<point x="408.333" y="294.333" type="line"/>
			<point x="477" y="390.667" type="line"/>
			<point x="616.333" y="390.667" type="line"/>
			<point x="630.667" y="464.667" type="line"/>
			<point x="531.333" y="464.667" type="line"/>
			<point x="727" y="739" type="line"/>
			<point x="625" y="739" type="line"/>
			<point x="355.667" y="350.667" type="line"/>
			<point x="226.667" y="739" type="line"/>
			<point x="126.333" y="739" type="line"/>
			<point x="221.333" y="464.667" type="line"/>
			<point x="120" y="464.667" type="line"/>
			<point x="105.667" y="390.667" type="line"/>
			<point x="246.333" y="390.667" type="line"/>
			<point x="280" y="294.333" type="line"/>
			<point x="92.667" y="294.333" type="line"/>
			<point x="79.333" y="220.333" type="line"/>
			<point x="284.667" y="220.333" type="line"/>
		</contour>
	</outline>
</glyph>
<glyph name="brokenbar" format="2">
	<unicode hex="00A6"/>
	<advance width="648"/>
	<outline>
		<contour>
			<point x="364.333" y="441.667" type="line"/>
			<point x="446.667" y="441.667" type="line"/>
			<point x="502" y="739" type="line"/>
			<point x="419.667" y="739" type="line"/>
		</contour>
		<contour>
			<point x="282.667" y="0" type="line"/>
			<point x="365" y="0" type="line"/>
			<point x="420.333" y="297.333" type="line"/>
			<point x="338" y="297.333" type="line"/>
		</contour>
	</outline>
</glyph>
<glyph name="section" format="2">
	<unicode hex="00A7"/>
	<advance width="597"/>
	<outline>
		<contour>
			<point x="100.333" y="61" type="line"/>
			<point x="98.667" y="48"/>
			<point x="97.667" y="35.667"/>
			<point x="97.667" y="23.333" type="curve" smooth="yes"/>
			<point x="97.667" y="-80.667"/>
			<point x="170" y="-146.333"/>
			<point x="276.333" y="-146.333" type="curve" smooth="yes"/>
			<point x="393" y="-146.333"/>
			<point x="510" y="-57.333"/>
			<point x="510" y="65.333" type="curve" smooth="yes"/>
			<point x="510" y="95"/>
			<point x="500.333" y="120.333"/>
			<point x="479" y="147.333" type="curve"/>
			<point x="535.667" y="185"/>
			<point x="583.667" y="246"/>
			<point x="583.667" y="316.667" type="curve" smooth="yes"/>
			<point x="583.667" y="364.667"/>
			<point x="557" y="403.667"/>
			<point x="505.667" y="431" type="curve" smooth="yes"/>
			<point x="360" y="507.333" type="line" smooth="yes"/>
			<point x="330" y="523"/>
			<point x="313.667" y="546.333"/>
			<point x="313.667" y="573.333" type="curve" smooth="yes"/>
			<point x="313.667" y="630.667"/>
			<point x="368.333" y="666.667"/>
			<point x="421.667" y="666.667" type="curve" smooth="yes"/>
			<point x="478" y="666.667"/>
			<point x="505.333" y="642.667"/>
			<point x="506" y="591.667" type="curve"/>
			<point x="595.333" y="591.667" type="line"/>
			<point x="596.333" y="597"/>
			<point x="596.667" y="603.333"/>
			<point x="596.667" y="609" type="curve" smooth="yes"/>
			<point x="596.667" y="697.333"/>
			<point x="537.667" y="752"/>
			<point x="439" y="752" type="curve" smooth="yes"/>
			<point x="328.667" y="752"/>
			<point x="224" y="671.333"/>
			<point x="224" y="556" type="curve" smooth="yes"/>
			<point x="224" y="532.333"/>
			<point x="230" y="513"/>
			<point x="244" y="491.667" type="curve"/>
			<point x="178.667" y="450.667"/>
			<point x="130" y="390"/>
			<point x="130" y="311" type="curve" smooth="yes"/>
			<point x="130" y="264.333"/>
			<point x="155" y="232.333"/>
			<point x="213" y="200.333" type="curve" smooth="yes"/>
			<point x="348.667" y="125.667" type="line" smooth="yes"/>
			<point x="399.333" y="97.667"/>
			<point x="420.333" y="76.667"/>
			<point x="420.333" y="47.333" type="curve" smooth="yes"/>
			<point x="420.333" y="-18"/>
			<point x="351.333" y="-61"/>
			<point x="292.333" y="-61" type="curve" smooth="yes"/>
			<point x="233" y="-61"/>
			<point x="188.333" y="-24.333"/>
			<point x="188.333" y="37.333" type="curve" smooth="yes"/>
			<point x="188.333" y="45.333"/>
			<point x="188.667" y="53"/>
			<point x="190.333" y="61" type="curve"/>
		</contour>
		<contour>
			<point x="428.333" y="193" type="curve"/>
			<point x="262.667" y="282.333" type="line" smooth="yes"/>
			<point x="232.667" y="298.667"/>
			<point x="218.333" y="317"/>
			<point x="218.333" y="339.333" type="curve" smooth="yes"/>
			<point x="218.333" y="381.333"/>
			<point x="253.333" y="419"/>
			<point x="286.667" y="440.333" type="curve"/>
			<point x="446.333" y="356.333" type="line" smooth="yes"/>
			<point x="480" y="338.667"/>
			<point x="494.333" y="319.333"/>
			<point x="494.333" y="294" type="curve" smooth="yes"/>
			<point x="494.333" y="253"/>
			<point x="460.333" y="213.333"/>
		</contour>
	</outline>
</glyph>
<glyph name="dieresis" format="2">
	<unicode hex="00A8"/>
	<advance width="403"/>
	<outline>
		<contour>
			<point x="186.333" y="625.333" type="line"/>
			<point x="280" y="625.333" type="line"/>
			<point x="304" y="753.667" type="line"/>
			<point x="210.333" y="753.667" type="line"/>
		</contour>
		<contour>
			<point x="354.333" y="625.333" type="line"/>
			<point x="448" y="625.333" type="line"/>
			<point x="472" y="753.667" type="line"/>
			<point x="378.333" y="753.667" type="line"/>
		</contour>
	</outline>
</glyph>
<glyph name="copyright" format="2">
	<unicode hex="00A9"/>
	<advance width="762"/>
	<outline>
		<contour>
			<point x="552" y="280.667" type="line"/>
			<point x="515.667" y="240"/>
			<point x="474.333" y="219.333"/>
			<point x="429" y="219.333" type="curve" smooth="yes"/>
			<point x="360" y="219.333"/>
			<point x="311.667" y="273"/>
			<point x="311.667" y="343" type="curve" smooth="yes"/>
			<point x="311.667" y="352.333"/>
			<point x="312.333" y="362"/>
			<point x="314.333" y="372.333" type="curve" smooth="yes"/>
			<point x="330" y="456.667"/>
			<point x="406.667" y="523.333"/>
			<point x="486.333" y="523.333" type="curve" smooth="yes"/>
			<point x="533.333" y="523.333"/>
			<point x="567.667" y="500.667"/>
			<point x="587.667" y="458.667" type="curve"/>
			<point x="674" y="458.667" type="line"/>
			<point x="655.333" y="539.667"/>
			<point x="588.333" y="591.667"/>
			<point x="498.333" y="591.667" type="curve" smooth="yes"/>
			<point x="376.333" y="591.667"/>
			<point x="261.333" y="495"/>
			<point x="238.667" y="372" type="curve"/>
			<point x="235.667" y="358"/>
			<point x="234.667" y="344.333"/>
			<point x="234.667" y="331.333" type="curve" smooth="yes"/>
			<point x="234.667" y="228.667"/>
			<point x="309.333" y="151"/>
			<point x="416" y="151" type="curve" smooth="yes"/>
			<point x="504.333" y="151"/>
			<point x="589.667" y="200.667"/>
			<point x="639" y="280.667" type="curve"/>
		</contour>
		<contour>
			<point x="59.333" y="299.333" type="curve" smooth="yes"/>
			<point x="59.333" y="121.333"/>
			<point x="191" y="-13"/>
			<point x="378.667" y="-13" type="curve" smooth="yes"/>
			<point x="590" y="-13"/>
			<point x="792.667" y="158"/>
			<point x="831.667" y="369" type="curve" smooth="yes"/>
			<point x="835.667" y="393"/>
			<point x="838.667" y="415.667"/>
			<point x="838.667" y="438.667" type="curve" smooth="yes"/>
			<point x="838.667" y="615.667"/>
			<point x="708" y="752"/>
			<point x="524.333" y="752" type="curve" smooth="yes"/>
			<point x="307" y="752"/>
			<point x="105.333" y="583"/>
			<point x="65.333" y="369" type="curve" smooth="yes"/>
			<point x="61.333" y="345"/>
			<point x="59.333" y="322"/>
		</contour>
		<contour>
			<point x="124.333" y="310.333" type="curve" smooth="yes"/>
			<point x="124.333" y="329.667"/>
			<point x="126" y="349"/>
			<point x="129.667" y="369.333" type="curve" smooth="yes"/>
			<point x="162.667" y="545.667"/>
			<point x="332.667" y="691.667"/>
			<point x="505" y="691.667" type="curve" smooth="yes"/>
			<point x="664.667" y="691.667"/>
			<point x="773.667" y="580.333"/>
			<point x="773.667" y="430" type="curve" smooth="yes"/>
			<point x="773.667" y="410.333"/>
			<point x="771.667" y="390.333"/>
			<point x="767.667" y="369" type="curve" smooth="yes"/>
			<point x="734.667" y="192.333"/>
			<point x="565.333" y="48.333"/>
			<point x="389" y="48.333" type="curve" smooth="yes"/>
			<point x="233.333" y="48.333"/>
			<point x="124.333" y="161.333"/>
		</contour>
	</outline>
</glyph>
<glyph name="ordfeminine" format="2">
	<unicode hex="00AA"/>
	<advance width="373"/>
	<outline>
		<contour>
			<point x="364" y="445.667" type="line"/>
			<point x="418" y="445.667" type="line"/>
			<point x="472.333" y="739" type="line"/>
			<point x="418.333" y="739" type="line"/>
			<point x="410.667" y="696" type="line"/>
			<point x="395.333" y="727.333"/>
			<point x="359.667" y="746.667"/>
			<point x="319.333" y="746.667" type="curve" smooth="yes"/>
			<point x="236" y="746.667"/>
			<point x="156" y="678.333"/>
			<point x="140.667" y="593.333" type="curve" smooth="yes"/>
			<point x="138.667" y="583.333"/>
			<point x="138" y="573.333"/>
			<point x="138" y="563.667" type="curve" smooth="yes"/>
			<point x="138" y="492"/>
			<point x="188.333" y="437.667"/>
			<point x="260" y="437.667" type="curve" smooth="yes"/>
			<point x="302.333" y="437.667"/>
			<point x="336.667" y="453.667"/>
			<point x="371.667" y="489.333" type="curve"/>
		</contour>
		<contour>
			<point x="277" y="495" type="curve" smooth="yes"/>
			<point x="232.333" y="495"/>
			<point x="199.333" y="530.667"/>
			<point x="199.333" y="575" type="curve" smooth="yes"/>
			<point x="199.333" y="580.667"/>
			<point x="200" y="586.333"/>
			<point x="201" y="592.333" type="curve" smooth="yes"/>
			<point x="210.667" y="643.667"/>
			<point x="262.333" y="689.333"/>
			<point x="311.667" y="689.333" type="curve" smooth="yes"/>
			<point x="357.333" y="689.333"/>
			<point x="389" y="656.333"/>
			<point x="389" y="611" type="curve" smooth="yes"/>
			<point x="389" y="605"/>
			<point x="388.333" y="598.333"/>
			<point x="387.333" y="591.667" type="curve"/>
			<point x="377.667" y="539.333"/>
			<point x="327" y="495"/>
		</contour>
		<contour>
			<point x="90" y="316" type="line"/>
			<point x="399" y="316" type="line"/>
			<point x="410" y="373.333" type="line"/>
			<point x="101" y="373.333" type="line"/>
		</contour>
	</outline>
</glyph>
<glyph name="guillemotleft" format="2">
	<unicode hex="00AB"/>
	<advance width="437"/>
	<outline>
		<contour>
			<point x="182" y="102" type="line"/>
			<point x="233" y="165" type="line"/>
			<point x="173" y="296.333" type="line"/>
			<point x="282" y="426.667" type="line"/>
			<point x="253.667" y="489" type="line"/>
			<point x="100" y="314.333" type="line"/>
			<point x="93.667" y="278.333" type="line"/>
		</contour>
		<contour>
			<point x="368.333" y="102" type="line"/>
			<point x="419.333" y="165" type="line"/>
			<point x="359.333" y="296.333" type="line"/>
			<point x="468.333" y="426.667" type="line"/>
			<point x="440" y="489" type="line"/>
			<point x="285" y="314.333" type="line"/>
			<point x="278.667" y="278.333" type="line"/>
		</contour>
	</outline>
</glyph>
<glyph name="logicalnot" format="2">
	<unicode hex="00AC"/>
	<advance width="604"/>
	<outline>
		<contour>
			<point x="115.667" y="361.667" type="line"/>
			<point x="533.667" y="361.667" type="line"/>
			<point x="496" y="159.333" type="line"/>
			<point x="582" y="159.333" type="line"/>
			<point x="636" y="448.333" type="line"/>
			<point x="132" y="448.333" type="line"/>
		</contour>
	</outline>
</glyph>
<glyph name="registered" format="2">
	<unicode hex="00AE"/>
	<advance width="762"/>
	<outline>
		<contour>
			<point x="278.667" y="160" type="line"/>
			<point x="353" y="160" type="line"/>
			<point x="386.667" y="339.333" type="line"/>
			<point x="481.667" y="160" type="line"/>
			<point x="572.667" y="160" type="line"/>
			<point x="483.333" y="313.667" type="line"/>
			<point x="561.333" y="324.667"/>
			<point x="611" y="371"/>
			<point x="624.667" y="444.333" type="curve" smooth="yes"/>
			<point x="626.667" y="454.333"/>
			<point x="627.667" y="464"/>
			<point x="627.667" y="473" type="curve" smooth="yes"/>
			<point x="627.667" y="503.667"/>
			<point x="618.333" y="530.333"/>
			<point x="601.333" y="549" type="curve" smooth="yes"/>
			<point x="579.333" y="573.333"/>
			<point x="546.667" y="583"/>
			<point x="488.333" y="583" type="curve" smooth="yes"/>
			<point x="356.667" y="583" type="line"/>
		</contour>
		<contour>
			<point x="391.667" y="367.333" type="line"/>
			<point x="418.667" y="513.333" type="line"/>
			<point x="476" y="513.333" type="line" smooth="yes"/>
			<point x="523" y="513.333"/>
			<point x="550.333" y="492.333"/>
			<point x="550.333" y="457" type="curve" smooth="yes"/>
			<point x="550.333" y="452.333"/>
			<point x="549.667" y="446.667"/>
			<point x="548.667" y="442" type="curve"/>
			<point x="539.667" y="393.667"/>
			<point x="499.333" y="367.333"/>
			<point x="433.333" y="367.333" type="curve" smooth="yes"/>
		</contour>
		<contour>
			<point x="59.333" y="299.333" type="curve" smooth="yes"/>
			<point x="59.333" y="121.333"/>
			<point x="191" y="-13"/>
			<point x="378.667" y="-13" type="curve" smooth="yes"/>
			<point x="590" y="-13"/>
			<point x="792.667" y="158"/>
			<point x="831.667" y="369" type="curve" smooth="yes"/>
			<point x="835.667" y="393"/>
			<point x="838.667" y="415.667"/>
			<point x="838.667" y="438.667" type="curve" smooth="yes"/>
			<point x="838.667" y="615.667"/>
			<point x="708" y="752"/>
			<point x="524.333" y="752" type="curve" smooth="yes"/>
			<point x="307" y="752"/>
			<point x="105.333" y="583"/>
			<point x="65.333" y="369" type="curve" smooth="yes"/>
			<point x="61.333" y="345"/>
			<point x="59.333" y="322"/>
		</contour>
		<contour>
			<point x="124.333" y="310.333" type="curve" smooth="yes"/>
			<point x="124.333" y="329.667"/>
			<point x="126" y="349"/>
			<point x="129.667" y="369.333" type="curve" smooth="yes"/>
			<point x="162.667" y="545.667"/>
			<point x="332.667" y="691.667"/>
			<point x="505" y="691.667" type="curve" smooth="yes"/>
			<point x="664.667" y="691.667"/>
			<point x="773.667" y="580.333"/>
			<point x="773.667" y="430" type="curve" smooth="yes"/>
			<point x="773.667" y="410.333"/>
			<point x="771.667" y="390.333"/>
			<point x="767.667" y="369" type="curve" smooth="yes"/>
			<point x="734.667" y="192.333"/>
			<point x="565.333" y="48.333"/>
			<point x="389" y="48.333" type="curve" smooth="yes"/>
			<point x="233.333" y="48.333"/>
			<point x="124.333" y="161.333"/>
		</contour>
	</outline>
</glyph>
<glyph name="macron" format="2">
	<unicode hex="00AF"/>
	<advance width="458"/>
	<outline>
		<contour>
			<point x="190" y="644.667" type="line"/>
			<point x="507" y="644.667" type="line"/>
			<point x="521.333" y="720.667" type="line"/>
			<point x="204.333" y="720.667" type="line"/>
		</contour>
	</outline>
</glyph>
<glyph name="plusminus" format="2">
	<unicode hex="00B1"/>
	<advance width="604"/>
	<outline>
		<contour>
			<point x="161.333" y="255" type="line"/>
			<point x="344" y="255" type="line"/>
			<point x="333" y="196" type="line"/>
			<point x="448.333" y="196" type="line"/>
			<point x="477" y="349.333" type="line"/>
			<point x="555" y="349.333" type="line"/>
			<point x="575.667" y="463.667" type="line"/>
			<point x="393.667" y="463.667" type="line"/>
			<point x="408.333" y="542.667" type="line"/>
			<point x="293" y="542.667" type="line"/>
			<point x="259" y="359.333" type="line"/>
			<point x="180.333" y="359.333" type="line"/>
		</contour>
		<contour>
			<point x="50" y="0" type="line"/>
			<point x="554" y="0" type="line"/>
			<point x="570.667" y="88.667" type="line"/>
			<point x="66.667" y="88.667" type="line"/>
		</contour>
	</outline>
</glyph>
<glyph name="twosuperior" format="2">
	<unicode hex="00B2"/>
	<advance width="333"/>
	<outline>
		<contour>
			<point x="66" y="290.667" type="line"/>
			<point x="373.667" y="290.667" type="line"/>
			<point x="386" y="354" type="line"/>
			<point x="181" y="354" type="line"/>
			<point x="320.333" y="459.667" type="line" smooth="yes"/>
			<point x="376" y="500.667"/>
			<point x="436.667" y="555.667"/>
			<point x="436.667" y="630.333" type="curve" smooth="yes"/>
			<point x="436.667" y="697.667"/>
			<point x="384.333" y="747"/>
			<point x="308.333" y="747" type="curve" smooth="yes"/>
			<point x="207" y="747"/>
			<point x="139" y="679"/>
			<point x="122" y="582.667" type="curve"/>
			<point x="191" y="582.667" type="line"/>
			<point x="201.333" y="639.667"/>
			<point x="235.667" y="684"/>
			<point x="295.333" y="684" type="curve" smooth="yes"/>
			<point x="337" y="684"/>
			<point x="365.667" y="656"/>
			<point x="365.667" y="619.667" type="curve" smooth="yes"/>
			<point x="365.667" y="585.667"/>
			<point x="348" y="561"/>
			<point x="312.333" y="533.333" type="curve" smooth="yes"/>
			<point x="77.333" y="349.333" type="line"/>
		</contour>
	</outline>
</glyph>
<glyph name="threesuperior" format="2">
	<unicode hex="00B3"/>
	<advance width="333"/>
	<outline>
		<contour>
			<point x="90.667" y="437.667" type="line"/>
			<point x="89" y="424.667"/>
			<point x="88" y="413.667"/>
			<point x="88" y="403.333" type="curve" smooth="yes"/>
			<point x="88" y="331"/>
			<point x="144" y="282.667"/>
			<point x="219.333" y="282.667" type="curve" smooth="yes"/>
			<point x="312.667" y="282.667"/>
			<point x="405.333" y="362.333"/>
			<point x="405.333" y="458.333" type="curve" smooth="yes"/>
			<point x="405.333" y="496.333"/>
			<point x="388.333" y="526.333"/>
			<point x="355.333" y="547.667" type="curve"/>
			<point x="391" y="574.333"/>
			<point x="410.667" y="604.333"/>
			<point x="410.667" y="649.333" type="curve" smooth="yes"/>
			<point x="410.667" y="706"/>
			<point x="367.667" y="746.667"/>
			<point x="304.667" y="746.667" type="curve" smooth="yes"/>
			<point x="229" y="746.667"/>
			<point x="173" y="696.333"/>
			<point x="155.333" y="619.333" type="curve"/>
			<point x="225.667" y="619.333" type="line"/>
			<point x="235" y="655.667"/>
			<point x="253" y="684"/>
			<point x="293" y="684" type="curve" smooth="yes"/>
			<point x="321.667" y="684"/>
			<point x="340.333" y="666.333"/>
			<point x="340.333" y="641" type="curve" smooth="yes"/>
			<point x="340.333" y="592.333"/>
			<point x="294" y="576.667"/>
			<point x="252" y="576.667" type="curve" smooth="yes"/>
			<point x="234.667" y="576.667" type="line"/>
			<point x="223" y="513.333" type="line"/>
			<point x="241.333" y="513.333" type="line" smooth="yes"/>
			<point x="291.333" y="513.333"/>
			<point x="333.667" y="495.667"/>
			<point x="333.667" y="443.667" type="curve" smooth="yes"/>
			<point x="333.667" y="390.333"/>
			<point x="282.333" y="345.667"/>
			<point x="230.333" y="345.667" type="curve" smooth="yes"/>
			<point x="191" y="345.667"/>
			<point x="159" y="374.333"/>
			<point x="159" y="411.333" type="curve" smooth="yes"/>
			<point x="159" y="418.333"/>
			<point x="159" y="427"/>
			<point x="160.667" y="437.667" type="curve"/>
		</contour>
	</outline>
</glyph>
<glyph name="acute" format="2">
	<unicode hex="00B4"/>
	<advance width="385"/>
	<outline>
		<contour>
			<point x="223.667" y="611" type="line"/>
			<point x="449.333" y="727" type="line"/>
			<point x="421.667" y="796.333" type="line"/>
			<point x="195.333" y="674.333" type="line"/>
		</contour>
	</outline>
</glyph>
<glyph name="mu" format="2">
	<unicode hex="00B5"/>
	<advance width="606"/>
	<outline>
		<contour>
			<point x="24.667" y="-189.667" type="line"/>
			<point x="118.333" y="-189.667" type="line"/>
			<point x="167.667" y="74" type="line"/>
			<point x="193" y="16.667"/>
			<point x="239" y="-13"/>
			<point x="302.667" y="-13" type="curve" smooth="yes"/>
			<point x="371" y="-13"/>
			<point x="422.333" y="13.667"/>
			<point x="469.333" y="74.333" type="curve"/>
			<point x="455.333" y="0" type="line"/>
			<point x="545.667" y="0" type="line"/>
			<point x="647.333" y="549.333" type="line"/>
			<point x="553.667" y="549.333" type="line"/>
			<point x="502.667" y="275" type="line" smooth="yes"/>
			<point x="490.333" y="206.667"/>
			<point x="475.333" y="167"/>
			<point x="451" y="136" type="curve" smooth="yes"/>
			<point x="418.667" y="96.333"/>
			<point x="369" y="72.333"/>
			<point x="319.333" y="72.333" type="curve" smooth="yes"/>
			<point x="279.333" y="72.333"/>
			<point x="242.667" y="90"/>
			<point x="219.667" y="121.333" type="curve"/>
			<point x="202.333" y="143"/>
			<point x="194.667" y="161.667"/>
			<point x="194.667" y="192.333" type="curve" smooth="yes"/>
			<point x="194.667" y="212.667"/>
			<point x="197.667" y="238.333"/>
			<point x="204.333" y="275" type="curve" smooth="yes"/>
			<point x="255.333" y="549.333" type="line"/>
			<point x="161.667" y="549.333" type="line"/>
		</contour>
	</outline>
</glyph>
<glyph name="paragraph" format="2">
	<unicode hex="00B6"/>
	<advance width="576"/>
	<outline>
		<contour>
			<point x="207" y="-131.333" type="line"/>
			<point x="290.667" y="-131.333" type="line"/>
			<point x="437.667" y="658.667" type="line"/>
			<point x="541.667" y="658.667" type="line"/>
			<point x="394.667" y="-131.333" type="line"/>
			<point x="478.333" y="-131.333" type="line"/>
			<point x="640" y="739" type="line"/>
			<point x="413.333" y="739" type="line" smooth="yes"/>
			<point x="347" y="739"/>
			<point x="298.667" y="729.667"/>
			<point x="260" y="709" type="curve" smooth="yes"/>
			<point x="195.667" y="676"/>
			<point x="151" y="614.667"/>
			<point x="138" y="543.667" type="curve" smooth="yes"/>
			<point x="135" y="529.333"/>
			<point x="134" y="515.667"/>
			<point x="134" y="502.333" type="curve" smooth="yes"/>
			<point x="134" y="413.333"/>
			<point x="193.333" y="354"/>
			<point x="296" y="346.667" type="curve"/>
		</contour>
	</outline>
</glyph>
<glyph name="periodcentered" format="2">
	<unicode hex="00B7"/>
	<advance width="278"/>
	<outline>
		<contour>
			<point x="138.667" y="252.667" type="line"/>
			<point x="232.333" y="252.667" type="line"/>
			<point x="256.667" y="381" type="line"/>
			<point x="162.667" y="381" type="line"/>
		</contour>
	</outline>
</glyph>
<glyph name="cedilla" format="2">
	<unicode hex="00B8"/>
	<advance width="324"/>
	<outline>
		<contour>
			<point x="43" y="-148.667" type="line"/>
			<point x="44.333" y="-196.667"/>
			<point x="73.333" y="-225.667"/>
			<point x="121" y="-225.667" type="curve" smooth="yes"/>
			<point x="174.667" y="-225.667"/>
			<point x="219" y="-186.333"/>
			<point x="229.333" y="-130" type="curve" smooth="yes"/>
			<point x="230.333" y="-123.667"/>
			<point x="231.333" y="-117.333"/>
			<point x="231.333" y="-111.333" type="curve" smooth="yes"/>
			<point x="231.333" y="-71.333"/>
			<point x="205.333" y="-43"/>
			<point x="164.667" y="-43" type="curve" smooth="yes"/>
			<point x="154.333" y="-43"/>
			<point x="146.333" y="-45"/>
			<point x="131" y="-50.667" type="curve"/>
			<point x="160.333" y="0" type="line"/>
			<point x="119" y="0" type="line"/>
			<point x="67" y="-88.333" type="line"/>
			<point x="100" y="-108.333" type="line"/>
			<point x="117.333" y="-90.333"/>
			<point x="129.667" y="-83.333"/>
			<point x="146.667" y="-83.333" type="curve" smooth="yes"/>
			<point x="168" y="-83.333"/>
			<point x="181.667" y="-98.333"/>
			<point x="181.667" y="-121" type="curve" smooth="yes"/>
			<point x="181.667" y="-124.667"/>
			<point x="181.667" y="-129"/>
			<point x="180.667" y="-132.667" type="curve"/>
			<point x="175.667" y="-159"/>
			<point x="154.333" y="-178.667"/>
			<point x="129.667" y="-178.667" type="curve" smooth="yes"/>
			<point x="108.667" y="-178.667"/>
			<point x="96.333" y="-166.667"/>
			<point x="93.333" y="-145.333" type="curve"/>
		</contour>
	</outline>
</glyph>
<glyph name="onesuperior" format="2">
	<unicode hex="00B9"/>
	<advance width="333"/>
	<outline>
		<contour>
			<point x="215.667" y="290.667" type="line"/>
			<point x="285" y="290.667" type="line"/>
			<point x="368.333" y="739" type="line"/>
			<point x="229.333" y="739" type="line"/>
			<point x="217.667" y="675.667" type="line"/>
			<point x="287.333" y="675.667" type="line"/>
		</contour>
	</outline>
</glyph>
<glyph name="ordmasculine" format="2">
	<unicode hex="00BA"/>
	<advance width="368"/>
	<outline>
		<contour>
			<point x="138.667" y="567" type="curve" smooth="yes"/>
			<point x="138.667" y="496.333"/>
			<point x="191.667" y="442"/>
			<point x="266" y="442" type="curve" smooth="yes"/>
			<point x="350.333" y="442"/>
			<point x="432" y="511"/>
			<point x="447.333" y="595" type="curve"/>
			<point x="449.333" y="604.333"/>
			<point x="450" y="612.667"/>
			<point x="450" y="621.667" type="curve" smooth="yes"/>
			<point x="450" y="691.333"/>
			<point x="397.667" y="746.667"/>
			<point x="324.333" y="746.667" type="curve" smooth="yes"/>
			<point x="238.667" y="746.667"/>
			<point x="157.667" y="679"/>
			<point x="141.667" y="594.667" type="curve" smooth="yes"/>
			<point x="139.667" y="585.333"/>
			<point x="138.667" y="576"/>
		</contour>
		<contour>
			<point x="254.667" y="521" type="curve"/>
			<point x="222" y="522.667"/>
			<point x="199.667" y="548"/>
			<point x="200" y="582" type="curve"/>
			<point x="202.667" y="601.667"/>
			<point x="217.667" y="618"/>
			<point x="232.667" y="622.667" type="curve"/>
			<point x="252.667" y="660"/>
			<point x="297.333" y="681"/>
			<point x="333.333" y="668.333" type="curve"/>
			<point x="366.667" y="666.667"/>
			<point x="389.333" y="641.667"/>
			<point x="389" y="608" type="curve"/>
			<point x="386" y="587.667"/>
			<point x="372" y="572"/>
			<point x="356" y="567.333" type="curve"/>
			<point x="335" y="529.333"/>
			<point x="291.333" y="508.333"/>
		</contour>
		<contour>
			<point x="90" y="316.333" type="line"/>
			<point x="395.667" y="316.333" type="line"/>
			<point x="406.667" y="373.667" type="line"/>
			<point x="101" y="373.667" type="line"/>
		</contour>
	</outline>
</glyph>
<glyph name="guillemotright" format="2">
	<unicode hex="00BB"/>
	<advance width="437"/>
	<outline>
		<contour>
			<point x="78" y="165" type="line"/>
			<point x="105.667" y="102" type="line"/>
			<point x="262" y="278.333" type="line"/>
			<point x="268.333" y="314.333" type="line"/>
			<point x="177.333" y="489" type="line"/>
			<point x="127" y="426.667" type="line"/>
			<point x="188" y="296.333" type="line"/>
		</contour>
		<contour>
			<point x="264.333" y="165" type="line"/>
			<point x="292" y="102" type="line"/>
			<point x="447" y="278.333" type="line"/>
			<point x="453.333" y="314.333" type="line"/>
			<point x="363.667" y="489" type="line"/>
			<point x="313.333" y="426.667" type="line"/>
			<point x="374.333" y="296.333" type="line"/>
		</contour>
	</outline>
</glyph>
<glyph name="onequarter" format="2">
	<unicode hex="00BC"/>
	<advance width="834"/>
	<outline>
		<contour>
			<point x="207.667" y="290.667" type="line"/>
			<point x="277" y="290.667" type="line"/>
			<point x="360.333" y="739" type="line"/>
			<point x="221.333" y="739" type="line"/>
			<point x="209.667" y="675.667" type="line"/>
			<point x="279.333" y="675.667" type="line"/>
		</contour>
		<contour>
			<point x="199.667" y="0" type="line"/>
			<point x="267.333" y="0" type="line"/>
			<point x="734.333" y="739" type="line"/>
			<point x="666" y="739" type="line"/>
		</contour>
		<contour>
			<point x="481.667" y="74.667" type="line"/>
			<point x="700.333" y="74.667" type="line"/>
			<point x="686.333" y="0" type="line"/>
			<point x="755.667" y="0" type="line"/>
			<point x="769.667" y="74.667" type="line"/>
			<point x="813.667" y="74.667" type="line"/>
			<point x="825" y="136.667" type="line"/>
			<point x="781" y="136.667" type="line"/>
			<point x="839" y="448.333" type="line"/>
			<point x="771" y="448.333" type="line"/>
			<point x="492" y="130.333" type="line"/>
		</contour>
		<contour>
			<point x="573.667" y="136.667" type="line"/>
			<point x="749.333" y="338" type="line"/>
			<point x="711.667" y="136.667" type="line"/>
		</contour>
	</outline>
</glyph>
<glyph name="onehalf" format="2">
	<unicode hex="00BD"/>
	<advance width="834"/>
	<outline>
		<contour>
			<point x="188" y="0" type="line"/>
			<point x="255.667" y="0" type="line"/>
			<point x="722.667" y="739" type="line"/>
			<point x="654.333" y="739" type="line"/>
		</contour>
		<contour>
			<point x="203" y="290.667" type="line"/>
			<point x="272.333" y="290.667" type="line"/>
			<point x="355.667" y="739" type="line"/>
			<point x="216.667" y="739" type="line"/>
			<point x="205" y="675.667" type="line"/>
			<point x="274.667" y="675.667" type="line"/>
		</contour>
		<contour>
			<point x="494" y="0" type="line"/>
			<point x="801.667" y="0" type="line"/>
			<point x="813.333" y="63.333" type="line"/>
			<point x="608.333" y="63.333" type="line"/>
			<point x="748.333" y="169" type="line"/>
			<point x="805.667" y="211"/>
			<point x="864" y="263.667"/>
			<point x="864" y="339.667" type="curve" smooth="yes"/>
			<point x="864" y="407"/>
			<point x="812.667" y="456.333"/>
			<point x="736.667" y="456.333" type="curve" smooth="yes"/>
			<point x="635.333" y="456.333"/>
			<point x="566.667" y="388.333"/>
			<point x="550" y="292" type="curve"/>
			<point x="619" y="292" type="line"/>
			<point x="629.333" y="349.667"/>
			<point x="663" y="393.333"/>
			<point x="723.333" y="393.333" type="curve" smooth="yes"/>
			<point x="765" y="393.333"/>
			<point x="793.667" y="365.333"/>
			<point x="793.667" y="329" type="curve" smooth="yes"/>
			<point x="793.667" y="296.333"/>
			<point x="765.667" y="263.333"/>
			<point x="740.333" y="242.667" type="curve" smooth="yes"/>
			<point x="504.667" y="58.667" type="line"/>
		</contour>
	</outline>
</glyph>
<glyph name="threequarters" format="2">
	<unicode hex="00BE"/>
	<advance width="834"/>
	<outline>
		<contour>
			<point x="91.667" y="437.667" type="line"/>
			<point x="89.333" y="424.667"/>
			<point x="88.333" y="413.667"/>
			<point x="88.333" y="404" type="curve" smooth="yes"/>
			<point x="88.333" y="331.667"/>
			<point x="145" y="282.667"/>
			<point x="220.333" y="282.667" type="curve" smooth="yes"/>
			<point x="313.667" y="282.667"/>
			<point x="406.333" y="362.333"/>
			<point x="406.333" y="458.333" type="curve" smooth="yes"/>
			<point x="406.333" y="496.333"/>
			<point x="389.333" y="526.333"/>
			<point x="356.333" y="547.667" type="curve"/>
			<point x="392" y="574.333"/>
			<point x="411.667" y="604.333"/>
			<point x="411.667" y="649.333" type="curve" smooth="yes"/>
			<point x="411.667" y="706"/>
			<point x="368.667" y="746.667"/>
			<point x="305.667" y="746.667" type="curve" smooth="yes"/>
			<point x="230" y="746.667"/>
			<point x="174" y="696.333"/>
			<point x="156.333" y="619.333" type="curve"/>
			<point x="226.667" y="619.333" type="line"/>
			<point x="236" y="655.667"/>
			<point x="254" y="684"/>
			<point x="294" y="684" type="curve" smooth="yes"/>
			<point x="322.667" y="684"/>
			<point x="341.333" y="666.333"/>
			<point x="341.333" y="641" type="curve" smooth="yes"/>
			<point x="341.333" y="591.333"/>
			<point x="293.333" y="576.667"/>
			<point x="251.333" y="576.667" type="curve" smooth="yes"/>
			<point x="235.667" y="576.667" type="line"/>
			<point x="224" y="513.333" type="line"/>
			<point x="242.333" y="513.333" type="line" smooth="yes"/>
			<point x="292.333" y="513.333"/>
			<point x="334.667" y="495.667"/>
			<point x="334.667" y="443.667" type="curve" smooth="yes"/>
			<point x="334.667" y="390.333"/>
			<point x="283.333" y="345.667"/>
			<point x="231.333" y="345.667" type="curve" smooth="yes"/>
			<point x="191.667" y="345.667"/>
			<point x="160" y="372.667"/>
			<point x="160" y="412.333" type="curve" smooth="yes"/>
			<point x="160" y="419"/>
			<point x="160" y="427.667"/>
			<point x="161.667" y="437.667" type="curve"/>
		</contour>
		<contour>
			<point x="243.333" y="0" type="line"/>
			<point x="311" y="0" type="line"/>
			<point x="778" y="739" type="line"/>
			<point x="709.667" y="739" type="line"/>
		</contour>
		<contour>
			<point x="496.667" y="74.667" type="line"/>
			<point x="715.333" y="74.667" type="line"/>
			<point x="701.333" y="0" type="line"/>
			<point x="770.667" y="0" type="line"/>
			<point x="784.667" y="74.667" type="line"/>
			<point x="828.667" y="74.667" type="line"/>
			<point x="840" y="136.667" type="line"/>
			<point x="796" y="136.667" type="line"/>
			<point x="854" y="448.333" type="line"/>
			<point x="786" y="448.333" type="line"/>
			<point x="507" y="130.333" type="line"/>
		</contour>
		<contour>
			<point x="588.667" y="136.667" type="line"/>
			<point x="764.333" y="338" type="line"/>
			<point x="726.667" y="136.667" type="line"/>
		</contour>
	</outline>
</glyph>
<glyph name="questiondown" format="2">
	<unicode hex="00BF"/>
	<advance width="567"/>
	<outline>
		<contour>
			<point x="429" y="37.333" type="line"/>
			<point x="405" y="-50.333"/>
			<point x="355" y="-114"/>
			<point x="261.667" y="-114" type="curve" smooth="yes"/>
			<point x="193.667" y="-114"/>
			<point x="149.667" y="-72"/>
			<point x="149.667" y="-10.667" type="curve" smooth="yes"/>
			<point x="149.667" y="51.667"/>
			<point x="195" y="97"/>
			<point x="246" y="137.333" type="curve" smooth="yes"/>
			<point x="318" y="193.667"/>
			<point x="375.667" y="249"/>
			<point x="394.667" y="343.333" type="curve" smooth="yes"/>
			<point x="397.667" y="358.333" type="line"/>
			<point x="306.667" y="358.333" type="line"/>
			<point x="304.667" y="347.333" type="line" smooth="yes"/>
			<point x="293" y="285"/>
			<point x="261" y="248.333"/>
			<point x="185.333" y="191.333" type="curve" smooth="yes"/>
			<point x="108" y="133"/>
			<point x="54.667" y="74.667"/>
			<point x="54.667" y="-26" type="curve" smooth="yes"/>
			<point x="54.667" y="-130.333"/>
			<point x="129.333" y="-202.667"/>
			<point x="243.667" y="-202.667" type="curve" smooth="yes"/>
			<point x="392" y="-202.667"/>
			<point x="489.333" y="-99.333"/>
			<point x="520" y="37.333" type="curve"/>
		</contour>
		<contour>
			<point x="316.333" y="422.667" type="line"/>
			<point x="410" y="422.667" type="line"/>
			<point x="433.333" y="549.333" type="line"/>
			<point x="339.667" y="549.333" type="line"/>
		</contour>
	</outline>
</glyph>
<glyph name="Aacute" format="2">
	<unicode hex="00C1"/>
	<advance width="740"/>
	<outline>
		<component base="A"/>
		<contour>
			<point x="467.667" y="790.667" type="line"/>
			<point x="693.333" y="906.667" type="line"/>
			<point x="665.667" y="976" type="line"/>
			<point x="439.667" y="854" type="line"/>
		</contour>
	</outline>
</glyph>
<glyph name="Acircumflex" format="2">
	<unicode hex="00C2"/>
	<advance width="740"/>
	<outline>
		<component base="A"/>
		<contour>
			<point x="334.667" y="805" type="line"/>
			<point x="444.333" y="805" type="line"/>
			<point x="534.333" y="875.667" type="line"/>
			<point x="596" y="805" type="line"/>
			<point x="703.667" y="805" type="line"/>
			<point x="584.667" y="935" type="line"/>
			<point x="505" y="935" type="line"/>
		</contour>
	</outline>
</glyph>
<glyph name="Atilde" format="2">
	<unicode hex="00C3"/>
	<advance width="740"/>
	<outline>
		<component base="A"/>
		<contour>
			<point x="411" y="813.667" type="line"/>
			<point x="434.333" y="835.333"/>
			<point x="453.333" y="844"/>
			<point x="480" y="844" type="curve" smooth="yes"/>
			<point x="493" y="844"/>
			<point x="506" y="842"/>
			<point x="521" y="833.333" type="curve" smooth="yes"/>
			<point x="547.333" y="818.333"/>
			<point x="565.333" y="813.667"/>
			<point x="582.667" y="813.667" type="curve" smooth="yes"/>
			<point x="616.333" y="813.667"/>
			<point x="657.333" y="834.333"/>
			<point x="684.333" y="864.667" type="curve"/>
			<point x="655.333" y="922.333" type="line"/>
			<point x="630.333" y="899.667"/>
			<point x="610" y="890.333"/>
			<point x="588.667" y="890.333" type="curve" smooth="yes"/>
			<point x="578" y="890.333"/>
			<point x="560.667" y="895"/>
			<point x="543.667" y="903.333" type="curve" smooth="yes"/>
			<point x="516" y="917"/>
			<point x="506.667" y="920"/>
			<point x="487.333" y="920" type="curve" smooth="yes"/>
			<point x="449.333" y="920"/>
			<point x="415" y="903.333"/>
			<point x="382" y="871" type="curve"/>
		</contour>
	</outline>
</glyph>
<glyph name="Adieresis" format="2">
	<unicode hex="00C4"/>
	<advance width="740"/>
	<outline>
		<component base="A"/>
		<contour>
			<point x="388.667" y="805" type="line"/>
			<point x="482.333" y="805" type="line"/>
			<point x="506.667" y="933.333" type="line"/>
			<point x="413" y="933.333" type="line"/>
		</contour>
		<contour>
			<point x="556.667" y="805" type="line"/>
			<point x="650.333" y="805" type="line"/>
			<point x="674.667" y="933.333" type="line"/>
			<point x="581" y="933.333" type="line"/>
		</contour>
	</outline>
</glyph>
<glyph name="Aring" format="2">
	<unicode hex="00C5"/>
	<advance width="740"/>
	<outline>
		<component base="A"/>
		<contour>
			<point x="436.667" y="867.667" type="curve" smooth="yes"/>
			<point x="436.667" y="823.333"/>
			<point x="469.667" y="789.667"/>
			<point x="516.333" y="789.667" type="curve" smooth="yes"/>
			<point x="578.667" y="789.667"/>
			<point x="631" y="841.333"/>
			<point x="631" y="903" type="curve" smooth="yes"/>
			<point x="631" y="947.333"/>
			<point x="598.667" y="981"/>
			<point x="553" y="981" type="curve" smooth="yes"/>
			<point x="491.667" y="981"/>
			<point x="436.667" y="929"/>
		</contour>
		<contour>
			<point x="487.333" y="876.333" type="curve" smooth="yes"/>
			<point x="487.333" y="905"/>
			<point x="513" y="931.333"/>
			<point x="541.333" y="931.333" type="curve" smooth="yes"/>
			<point x="565.667" y="931.333"/>
			<point x="581" y="915.333"/>
			<point x="581" y="893.667" type="curve" smooth="yes"/>
			<point x="581" y="864"/>
			<point x="554.667" y="839.333"/>
			<point x="525.333" y="839.333" type="curve" smooth="yes"/>
			<point x="502.667" y="839.333"/>
			<point x="487.333" y="854.667"/>
		</contour>
	</outline>
</glyph>
<glyph name="AE" format="2">
	<unicode hex="00C6"/>
	<advance width="956"/>
	<outline>
		<contour>
			<point x="8" y="0" type="line"/>
			<point x="121.667" y="0" type="line"/>
			<point x="316.667" y="230.333" type="line"/>
			<point x="562" y="230.333" type="line"/>
			<point x="519.667" y="0" type="line"/>
			<point x="900" y="0" type="line"/>
			<point x="916" y="88.333" type="line"/>
			<point x="630.667" y="88.333" type="line"/>
			<point x="675.333" y="327.667" type="line"/>
			<point x="949.667" y="327.667" type="line"/>
			<point x="965.667" y="416" type="line"/>
			<point x="691.333" y="416" type="line"/>
			<point x="735.667" y="650.667" type="line"/>
			<point x="1021" y="650.667" type="line"/>
			<point x="1037" y="739" type="line"/>
			<point x="648" y="739" type="line"/>
		</contour>
		<contour>
			<point x="391.333" y="318.667" type="line"/>
			<point x="630.667" y="600.333" type="line"/>
			<point x="579" y="318.667" type="line"/>
		</contour>
	</outline>
</glyph>
<glyph name="Ccedilla" format="2">
	<unicode hex="00C7"/>
	<advance width="809"/>
	<outline>
		<component base="C"/>
		<contour>
			<point x="294" y="-166" type="line"/>
			<point x="297.333" y="-214.667"/>
			<point x="327" y="-243.667"/>
			<point x="375.333" y="-243.667" type="curve" smooth="yes"/>
			<point x="439" y="-243.667"/>
			<point x="488.333" y="-189.333"/>
			<point x="488.333" y="-127.333" type="curve" smooth="yes"/>
			<point x="488.333" y="-86"/>
			<point x="463" y="-57.667"/>
			<point x="421.667" y="-57.667" type="curve" smooth="yes"/>
			<point x="410.667" y="-57.667"/>
			<point x="402" y="-59.667"/>
			<point x="387.333" y="-64.667" type="curve"/>
			<point x="426.667" y="0" type="line"/>
			<point x="384.333" y="2.667" type="line"/>
			<point x="320" y="-104.333" type="line"/>
			<point x="354" y="-125" type="line"/>
			<point x="371.667" y="-107.667"/>
			<point x="383.333" y="-101.333"/>
			<point x="400.333" y="-101.333" type="curve" smooth="yes"/>
			<point x="421.667" y="-101.333"/>
			<point x="436" y="-116.333"/>
			<point x="436" y="-137.667" type="curve" smooth="yes"/>
			<point x="436" y="-140.667"/>
			<point x="436" y="-144.333"/>
			<point x="435" y="-148" type="curve"/>
			<point x="430" y="-175.333"/>
			<point x="409.333" y="-194"/>
			<point x="383.333" y="-194" type="curve" smooth="yes"/>
			<point x="362.333" y="-194"/>
			<point x="351.333" y="-184"/>
			<point x="347.333" y="-161.333" type="curve"/>
		</contour>
	</outline>
</glyph>
<glyph name="Eacute" format="2">
	<unicode hex="00C9"/>
	<advance width="532"/>
	<outline>
		<contour>
			<point x="74.333" y="0" type="line"/>
			<point x="476" y="0" type="line"/>
			<point x="492" y="88.333" type="line"/>
			<point x="185.333" y="88.333" type="line"/>
			<point x="230" y="327.667" type="line"/>
			<point x="525.667" y="327.667" type="line"/>
			<point x="541.667" y="416" type="line"/>
			<point x="246" y="416" type="line"/>
			<point x="290.333" y="650.667" type="line"/>
			<point x="597" y="650.667" type="line"/>
			<point x="613" y="739" type="line"/>
			<point x="211.333" y="739" type="line"/>
		</contour>
		<contour>
			<point x="377.333" y="790.667" type="line"/>
			<point x="603" y="906.667" type="line"/>
			<point x="575.333" y="976" type="line"/>
			<point x="349.333" y="854" type="line"/>
		</contour>
	</outline>
</glyph>
<glyph name="Edieresis" format="2">
	<unicode hex="00CB"/>
	<advance width="532"/>
	<outline>
		<contour>
			<point x="74.333" y="0" type="line"/>
			<point x="476" y="0" type="line"/>
			<point x="492" y="88.333" type="line"/>
			<point x="185.333" y="88.333" type="line"/>
			<point x="230" y="327.667" type="line"/>
			<point x="525.667" y="327.667" type="line"/>
			<point x="541.667" y="416" type="line"/>
			<point x="246" y="416" type="line"/>
			<point x="290.333" y="650.667" type="line"/>
			<point x="597" y="650.667" type="line"/>
			<point x="613" y="739" type="line"/>
			<point x="211.333" y="739" type="line"/>
		</contour>
		<contour>
			<point x="293.667" y="805" type="line"/>
			<point x="387.333" y="805" type="line"/>
			<point x="411.667" y="933.333" type="line"/>
			<point x="318" y="933.333" type="line"/>
		</contour>
		<contour>
			<point x="461.667" y="805" type="line"/>
			<point x="555.333" y="805" type="line"/>
			<point x="579.667" y="933.333" type="line"/>
			<point x="486" y="933.333" type="line"/>
		</contour>
	</outline>
</glyph>
<glyph name="Igrave" format="2">
	<unicode hex="00CC"/>
	<advance width="244"/>
	<outline>
		<contour>
			<point x="74.333" y="0" type="line"/>
			<point x="169.333" y="0" type="line"/>
			<point x="306.333" y="739" type="line"/>
			<point x="211.333" y="739" type="line"/>
		</contour>
		<contour>
			<point x="168.667" y="904" type="line"/>
			<point x="354.333" y="790.667" type="line"/>
			<point x="405.667" y="854.333" type="line"/>
			<point x="221.667" y="972" type="line"/>
		</contour>
	</outline>
</glyph>
<glyph name="Iacute" format="2">
	<unicode hex="00CD"/>
	<advance width="244"/>
	<outline>
		<contour>
			<point x="74.333" y="0" type="line"/>
			<point x="169.333" y="0" type="line"/>
			<point x="306.333" y="739" type="line"/>
			<point x="211.333" y="739" type="line"/>
		</contour>
		<contour>
			<point x="188" y="790.667" type="line"/>
			<point x="413.667" y="906.667" type="line"/>
			<point x="386" y="976" type="line"/>
			<point x="160" y="854" type="line"/>
		</contour>
	</outline>
</glyph>
<glyph name="Icircumflex" format="2">
	<unicode hex="00CE"/>
	<advance width="244"/>
	<outline>
		<contour>
			<point x="74.333" y="0" type="line"/>
			<point x="169.333" y="0" type="line"/>
			<point x="306.333" y="739" type="line"/>
			<point x="211.333" y="739" type="line"/>
		</contour>
		<contour>
			<point x="86.333" y="805" type="line"/>
			<point x="196" y="805" type="line"/>
			<point x="286" y="875.667" type="line"/>
			<point x="347.667" y="805" type="line"/>
			<point x="455.333" y="805" type="line"/>
			<point x="336.333" y="935" type="line"/>
			<point x="256.667" y="935" type="line"/>
		</contour>
	</outline>
</glyph>
<glyph name="Eth" format="2">
	<unicode hex="00D0"/>
	<advance width="775"/>
	<outline>
		<contour>
			<point x="120" y="0" type="line"/>
			<point x="310" y="0" type="line" smooth="yes"/>
			<point x="417.667" y="0"/>
			<point x="492.667" y="14.333"/>
			<point x="560.667" y="46.667" type="curve" smooth="yes"/>
			<point x="688.667" y="107.667"/>
			<point x="774.667" y="222.333"/>
			<point x="801.333" y="367.333" type="curve" smooth="yes"/>
			<point x="806.333" y="396.667"/>
			<point x="809.333" y="424"/>
			<point x="809.333" y="450.333" type="curve" smooth="yes"/>
			<point x="809.333" y="547.667"/>
			<point x="772.333" y="626.667"/>
			<point x="701" y="677.667" type="curve" smooth="yes"/>
			<point x="641.333" y="721.333"/>
			<point x="561.667" y="739"/>
			<point x="429.333" y="739" type="curve" smooth="yes"/>
			<point x="257" y="739" type="line"/>
			<point x="197.333" y="416.667" type="line"/>
			<point x="101.333" y="416.667" type="line"/>
			<point x="86" y="336.333" type="line"/>
			<point x="182" y="336.333" type="line"/>
		</contour>
		<contour>
			<point x="231" y="88.333" type="line"/>
			<point x="277" y="336.333" type="line"/>
			<point x="465" y="336.333" type="line"/>
			<point x="480.333" y="416.667" type="line"/>
			<point x="292.333" y="416.667" type="line"/>
			<point x="336" y="650.667" type="line"/>
			<point x="413.667" y="650.667" type="line" smooth="yes"/>
			<point x="514" y="650.667"/>
			<point x="572.667" y="639.667"/>
			<point x="617.333" y="612.333" type="curve" smooth="yes"/>
			<point x="678" y="576"/>
			<point x="711.667" y="510"/>
			<point x="711.667" y="429.333" type="curve" smooth="yes"/>
			<point x="711.667" y="410.333"/>
			<point x="709.667" y="390.333"/>
			<point x="706" y="369.333" type="curve" smooth="yes"/>
			<point x="689.333" y="277"/>
			<point x="636" y="195.333"/>
			<point x="562.667" y="146.667" type="curve" smooth="yes"/>
			<point x="501.333" y="105"/>
			<point x="427" y="88.333"/>
			<point x="309.667" y="88.333" type="curve" smooth="yes"/>
		</contour>
	</outline>
</glyph>
<glyph name="Ntilde" format="2">
	<unicode hex="00D1"/>
	<advance width="740"/>
	<outline>
		<component base="N"/>
		<contour>
			<point x="416" y="813.667" type="line"/>
			<point x="442.667" y="834.667"/>
			<point x="458.333" y="843.333"/>
			<point x="485" y="843.333" type="curve" smooth="yes"/>
			<point x="498" y="843.333"/>
			<point x="510" y="841"/>
			<point x="527.667" y="832.667" type="curve" smooth="yes"/>
			<point x="556" y="819.333"/>
			<point x="572.667" y="813.667"/>
			<point x="587.667" y="813.667" type="curve" smooth="yes"/>
			<point x="621.333" y="813.667"/>
			<point x="662.333" y="834.333"/>
			<point x="689.333" y="864.667" type="curve"/>
			<point x="660.333" y="922.333" type="line"/>
			<point x="635.333" y="899.667"/>
			<point x="615" y="890.333"/>
			<point x="593.667" y="890.333" type="curve" smooth="yes"/>
			<point x="583" y="890.333"/>
			<point x="565.667" y="895.333"/>
			<point x="548.667" y="903.333" type="curve" smooth="yes"/>
			<point x="521" y="916"/>
			<point x="511.667" y="919.333"/>
			<point x="492.333" y="919.333" type="curve" smooth="yes"/>
			<point x="454.333" y="919.333"/>
			<point x="420" y="903.333"/>
			<point x="387" y="871" type="curve"/>
		</contour>
	</outline>
</glyph>
<glyph name="Oacute" format="2">
	<unicode hex="00D3"/>
	<advance width="860"/>
	<outline>
		<component base="O"/>
		<contour>
			<point x="516.333" y="790.667" type="line"/>
			<point x="742" y="906.667" type="line"/>
			<point x="714.333" y="976" type="line"/>
			<point x="488.333" y="854" type="line"/>
		</contour>
	</outline>
</glyph>
<glyph name="Ocircumflex" format="2">
	<unicode hex="00D4"/>
	<advance width="860"/>
	<outline>
		<component base="O"/>
		<contour>
			<point x="394.333" y="805" type="line"/>
			<point x="504" y="805" type="line"/>
			<point x="594" y="875.667" type="line"/>
			<point x="655.667" y="805" type="line"/>
			<point x="763.333" y="805" type="line"/>
			<point x="644.333" y="935" type="line"/>
			<point x="564.667" y="935" type="line"/>
		</contour>
	</outline>
</glyph>
<glyph name="Otilde" format="2">
	<unicode hex="00D5"/>
	<advance width="860"/>
	<outline>
		<component base="O"/>
		<contour>
			<point x="476" y="813.667" type="line"/>
			<point x="505.333" y="835.333"/>
			<point x="518.333" y="843.333"/>
			<point x="545" y="843.333" type="curve" smooth="yes"/>
			<point x="558" y="843.333"/>
			<point x="568" y="840.333"/>
			<point x="587.667" y="832.667" type="curve" smooth="yes"/>
			<point x="616.667" y="821.333"/>
			<point x="638" y="813.667"/>
			<point x="653" y="813.667" type="curve" smooth="yes"/>
			<point x="686.667" y="813.667"/>
			<point x="722.333" y="834.333"/>
			<point x="749.333" y="864.667" type="curve"/>
			<point x="720.333" y="922.333" type="line"/>
			<point x="695.333" y="899.667"/>
			<point x="675" y="890.333"/>
			<point x="653.667" y="890.333" type="curve" smooth="yes"/>
			<point x="643" y="890.333"/>
			<point x="625.667" y="895.333"/>
			<point x="608.667" y="903.333" type="curve" smooth="yes"/>
			<point x="581" y="916"/>
			<point x="571.667" y="919.333"/>
			<point x="552.333" y="919.333" type="curve" smooth="yes"/>
			<point x="514.333" y="919.333"/>
			<point x="480" y="903.333"/>
			<point x="447" y="871" type="curve"/>
		</contour>
	</outline>
</glyph>
<glyph name="Odieresis" format="2">
	<unicode hex="00D6"/>
	<advance width="860"/>
	<outline>
		<component base="O"/>
		<contour>
			<point x="448.333" y="805" type="line"/>
			<point x="542" y="805" type="line"/>
			<point x="566.333" y="933.333" type="line"/>
			<point x="472.667" y="933.333" type="line"/>
		</contour>
		<contour>
			<point x="616.333" y="805" type="line"/>
			<point x="710" y="805" type="line"/>
			<point x="734.333" y="933.333" type="line"/>
			<point x="640.667" y="933.333" type="line"/>
		</contour>
	</outline>
</glyph>
<glyph name="multiply" format="2">
	<unicode hex="00D7"/>
	<advance width="604"/>
	<outline>
		<contour>
			<point x="125" y="70" type="line"/>
			<point x="350.333" y="260" type="line"/>
			<point x="505" y="70" type="line"/>
			<point x="578" y="131.333" type="line"/>
			<point x="423.333" y="321.333" type="line"/>
			<point x="649" y="512" type="line"/>
			<point x="598.333" y="573.333" type="line"/>
			<point x="373" y="383.333" type="line"/>
			<point x="218.333" y="573.333" type="line"/>
			<point x="145" y="512" type="line"/>
			<point x="299.333" y="321.333" type="line"/>
			<point x="74" y="131.333" type="line"/>
		</contour>
	</outline>
</glyph>
<glyph name="Oslash" format="2">
	<unicode hex="00D8"/>
	<advance width="860"/>
	<outline>
		<contour>
			<point x="84.333" y="-28" type="line"/>
			<point x="145" y="-77" type="line"/>
			<point x="248.333" y="35.667" type="line"/>
			<point x="300" y="3.667"/>
			<point x="363.667" y="-13"/>
			<point x="432.333" y="-13" type="curve" smooth="yes"/>
			<point x="647.667" y="-13"/>
			<point x="848" y="156"/>
			<point x="888" y="371.333" type="curve" smooth="yes"/>
			<point x="893" y="397"/>
			<point x="894.667" y="421"/>
			<point x="894.667" y="444.667" type="curve" smooth="yes"/>
			<point x="894.667" y="526"/>
			<point x="867.333" y="597.667"/>
			<point x="810.667" y="655" type="curve"/>
			<point x="912.667" y="767" type="line"/>
			<point x="854.333" y="817" type="line"/>
			<point x="750" y="703" type="line"/>
			<point x="703.333" y="734.333"/>
			<point x="637" y="752"/>
			<point x="567" y="752" type="curve" smooth="yes"/>
			<point x="350.667" y="752"/>
			<point x="150" y="583.333"/>
			<point x="110.333" y="370" type="curve" smooth="yes"/>
			<point x="105.667" y="345.667"/>
			<point x="103.333" y="322"/>
			<point x="103.333" y="298.333" type="curve" smooth="yes"/>
			<point x="103.333" y="214.333"/>
			<point x="132" y="139"/>
			<point x="186.667" y="83.667" type="curve"/>
		</contour>
		<contour>
			<point x="399" y="272" type="line"/>
			<point x="379" y="292"/>
			<point x="368.667" y="315.333"/>
			<point x="368.667" y="343" type="curve" smooth="yes"/>
			<point x="368.667" y="350.333"/>
			<point x="369.333" y="358.333"/>
			<point x="371" y="366.667" type="curve" smooth="yes"/>
			<point x="384.333" y="438.667"/>
			<point x="450.667" y="495.667"/>
			<point x="520.667" y="495.667" type="curve" smooth="yes"/>
			<point x="550.667" y="495.667"/>
			<point x="578.667" y="487.333"/>
			<point x="596" y="472.333" type="curve"/>
		</contour>
		<contour>
			<point x="599.333" y="467" type="line"/>
			<point x="619" y="445.667"/>
			<point x="628.667" y="424"/>
			<point x="628.667" y="397" type="curve" smooth="yes"/>
			<point x="628.667" y="388.667"/>
			<point x="627.333" y="379"/>
			<point x="625.667" y="369.333" type="curve" smooth="yes"/>
			<point x="612.333" y="298.667"/>
			<point x="546.667" y="243.333"/>
			<point x="476.333" y="243.333" type="curve" smooth="yes"/>
			<point x="447.667" y="243.333"/>
			<point x="427.333" y="249.667"/>
			<point x="402.333" y="266.333" type="curve"/>
		</contour>
	</outline>
</glyph>
<glyph name="Ucircumflex" format="2">
	<unicode hex="00DB"/>
	<advance width="650"/>
	<outline>
		<contour>
			<point x="211.333" y="739" type="line"/>
			<point x="125.667" y="275.667" type="line" smooth="yes"/>
			<point x="119" y="240"/>
			<point x="115.333" y="209"/>
			<point x="115.333" y="182.667" type="curve" smooth="yes"/>
			<point x="115.333" y="144"/>
			<point x="122.333" y="114.333"/>
			<point x="137" y="86" type="curve" smooth="yes"/>
			<point x="168.667" y="23.667"/>
			<point x="238.333" y="-13"/>
			<point x="322.667" y="-13" type="curve" smooth="yes"/>
			<point x="404" y="-13"/>
			<point x="482.333" y="20.333"/>
			<point x="537.667" y="78" type="curve" smooth="yes"/>
			<point x="583.667" y="126.667"/>
			<point x="610" y="182.667"/>
			<point x="627.333" y="275.667" type="curve" smooth="yes"/>
			<point x="713" y="739" type="line"/>
			<point x="618" y="739" type="line"/>
			<point x="532.333" y="275.667" type="line" smooth="yes"/>
			<point x="521" y="212.667"/>
			<point x="503.333" y="171"/>
			<point x="478" y="139.667" type="curve" smooth="yes"/>
			<point x="445.667" y="100.667"/>
			<point x="393" y="76.333"/>
			<point x="338.667" y="76.333" type="curve" smooth="yes"/>
			<point x="285.333" y="76.333"/>
			<point x="241.333" y="100.667"/>
			<point x="223.667" y="139.667" type="curve" smooth="yes"/>
			<point x="216" y="157"/>
			<point x="212" y="176.667"/>
			<point x="212" y="201.667" type="curve" smooth="yes"/>
			<point x="212" y="222.333"/>
			<point x="215.667" y="247"/>
			<point x="220.667" y="275.667" type="curve" smooth="yes"/>
			<point x="306.333" y="739" type="line"/>
		</contour>
		<contour>
			<point x="289.333" y="805" type="line"/>
			<point x="399" y="805" type="line"/>
			<point x="489" y="875.667" type="line"/>
			<point x="550.667" y="805" type="line"/>
			<point x="658.333" y="805" type="line"/>
			<point x="539.333" y="935" type="line"/>
			<point x="459.667" y="935" type="line"/>
		</contour>
	</outline>
</glyph>
<glyph name="Thorn" format="2">
	<unicode hex="00DE"/>
	<advance width="587"/>
	<outline>
		<contour>
			<point x="74.333" y="0" type="line"/>
			<point x="169.333" y="0" type="line"/>
			<point x="199.333" y="160.333" type="line"/>
			<point x="308.667" y="160.333" type="line" smooth="yes"/>
			<point x="409" y="160.333"/>
			<point x="462.333" y="171.667"/>
			<point x="511" y="201" type="curve" smooth="yes"/>
			<point x="570.667" y="236.333"/>
			<point x="613.667" y="302.333"/>
			<point x="628.333" y="381.333" type="curve" smooth="yes"/>
			<point x="632" y="400"/>
			<point x="633.333" y="418.333"/>
			<point x="633.333" y="435" type="curve" smooth="yes"/>
			<point x="633.333" y="494.333"/>
			<point x="613" y="540.333"/>
			<point x="573" y="568" type="curve" smooth="yes"/>
			<point x="532.667" y="596"/>
			<point x="480.667" y="606.667"/>
			<point x="383.667" y="606.667" type="curve" smooth="yes"/>
			<point x="277" y="606.667" type="line"/>
			<point x="301.667" y="739" type="line"/>
			<point x="211.333" y="739" type="line"/>
		</contour>
		<contour>
			<point x="215.333" y="248.667" type="line"/>
			<point x="265.333" y="518.333" type="line"/>
			<point x="350.667" y="518.333" type="line" smooth="yes"/>
			<point x="414.333" y="518.333"/>
			<point x="451.333" y="514.333"/>
			<point x="478.667" y="505.333" type="curve" smooth="yes"/>
			<point x="516" y="493"/>
			<point x="535.667" y="461"/>
			<point x="535.667" y="415.333" type="curve" smooth="yes"/>
			<point x="535.667" y="404.333"/>
			<point x="534.667" y="393"/>
			<point x="532.333" y="381" type="curve" smooth="yes"/>
			<point x="522.333" y="328"/>
			<point x="492.333" y="286.333"/>
			<point x="450" y="268.667" type="curve"/>
			<point x="419.667" y="254.333"/>
			<point x="378.667" y="248.667"/>
			<point x="320" y="248.667" type="curve" smooth="yes"/>
		</contour>
	</outline>
</glyph>
<glyph name="germandbls" format="2">
	<unicode hex="00DF"/>
	<advance width="575"/>
	<outline>
		<contour>
			<point x="57.333" y="0" type="line"/>
			<point x="147.333" y="0" type="line"/>
			<point x="165.667" y="99" type="line"/>
			<point x="189" y="24.333"/>
			<point x="243.667" y="-13"/>
			<point x="328.333" y="-13" type="curve" smooth="yes"/>
			<point x="470" y="-13"/>
			<point x="587" y="108.667"/>
			<point x="587" y="248.667" type="curve" smooth="yes"/>
			<point x="587" y="325"/>
			<point x="544" y="373.667"/>
			<point x="472" y="395.333" type="curve"/>
			<point x="545.333" y="434.333"/>
			<point x="585.333" y="502.333"/>
			<point x="585.333" y="584.667" type="curve" smooth="yes"/>
			<point x="585.333" y="682.667"/>
			<point x="514" y="752"/>
			<point x="406" y="752" type="curve" smooth="yes"/>
			<point x="243.667" y="752"/>
			<point x="172.667" y="623.667"/>
			<point x="146.667" y="483" type="curve" smooth="yes"/>
		</contour>
		<contour>
			<point x="188" y="198.333" type="line"/>
			<point x="241.333" y="488.333" type="line" smooth="yes"/>
			<point x="258" y="579.333"/>
			<point x="294.333" y="666"/>
			<point x="391" y="666" type="curve" smooth="yes"/>
			<point x="451" y="666"/>
			<point x="489" y="627.667"/>
			<point x="489" y="570.667" type="curve" smooth="yes"/>
			<point x="489" y="479"/>
			<point x="414" y="416.333"/>
			<point x="325" y="416.333" type="curve" smooth="yes"/>
			<point x="312.667" y="416.333" type="line"/>
			<point x="296.667" y="332.333" type="line"/>
			<point x="350.333" y="332.333" type="line" smooth="yes"/>
			<point x="438.667" y="332.333"/>
			<point x="489.667" y="299"/>
			<point x="489.667" y="227.333" type="curve" smooth="yes"/>
			<point x="489.667" y="149.333"/>
			<point x="427.667" y="73"/>
			<point x="345.667" y="73" type="curve" smooth="yes"/>
			<point x="288.333" y="73"/>
			<point x="246.667" y="110"/>
			<point x="246.667" y="171.333" type="curve" smooth="yes"/>
			<point x="246.667" y="180"/>
			<point x="247.667" y="188.667"/>
			<point x="249.333" y="198.333" type="curve"/>
		</contour>
	</outline>
</glyph>
<glyph name="agrave" format="2">
	<unicode hex="00E0"/>
	<advance width="678"/>
	<outline>
		<component base="a"/>
		<contour>
			<point x="325.667" y="724.333" type="line"/>
			<point x="511.333" y="611" type="line"/>
			<point x="562.333" y="674.667" type="line"/>
			<point x="378.667" y="792.333" type="line"/>
		</contour>
	</outline>
</glyph>
<glyph name="acircumflex" format="2">
	<unicode hex="00E2"/>
	<advance width="678"/>
	<outline>
		<component base="a"/>
		<contour>
			<point x="279.667" y="625.333" type="line"/>
			<point x="389.333" y="625.333" type="line"/>
			<point x="479.333" y="696" type="line"/>
			<point x="541" y="625.333" type="line"/>
			<point x="648.667" y="625.333" type="line"/>
			<point x="529.333" y="755.333" type="line"/>
			<point x="449.667" y="755.333" type="line"/>
		</contour>
	</outline>
</glyph>
<glyph name="atilde" format="2">
	<unicode hex="00E3"/>
	<advance width="678"/>
	<outline>
		<component base="a"/>
		<contour>
			<point x="354" y="634" type="line"/>
			<point x="382" y="654.333"/>
			<point x="399" y="663.667"/>
			<point x="423" y="663.667" type="curve" smooth="yes"/>
			<point x="436" y="663.667"/>
			<point x="447.667" y="661"/>
			<point x="465.333" y="653" type="curve" smooth="yes"/>
			<point x="494" y="640"/>
			<point x="510.667" y="634"/>
			<point x="525.667" y="634" type="curve" smooth="yes"/>
			<point x="559.333" y="634"/>
			<point x="600" y="654.667"/>
			<point x="627" y="685" type="curve"/>
			<point x="598" y="742.667" type="line"/>
			<point x="573" y="720"/>
			<point x="553" y="710.667"/>
			<point x="531.667" y="710.667" type="curve" smooth="yes"/>
			<point x="521" y="710.667"/>
			<point x="503.667" y="715.667"/>
			<point x="486.667" y="723.667" type="curve" smooth="yes"/>
			<point x="459" y="736.333"/>
			<point x="449.333" y="739.667"/>
			<point x="430" y="739.667" type="curve" smooth="yes"/>
			<point x="392" y="739.667"/>
			<point x="358" y="723.667"/>
			<point x="325" y="691.333" type="curve"/>
		</contour>
	</outline>
</glyph>
<glyph name="adieresis" format="2">
	<unicode hex="00E4"/>
	<advance width="678"/>
	<outline>
		<component base="a"/>
		<contour>
			<point x="333.667" y="625.333" type="line"/>
			<point x="427.333" y="625.333" type="line"/>
			<point x="451.333" y="753.667" type="line"/>
			<point x="357.667" y="753.667" type="line"/>
		</contour>
		<contour>
			<point x="501.667" y="625.333" type="line"/>
			<point x="595.333" y="625.333" type="line"/>
			<point x="619.333" y="753.667" type="line"/>
			<point x="525.667" y="753.667" type="line"/>
		</contour>
	</outline>
</glyph>
<glyph name="aring" format="2">
	<unicode hex="00E5"/>
	<advance width="678"/>
	<outline>
		<component base="a"/>
		<contour>
			<point x="381.667" y="688" type="curve" smooth="yes"/>
			<point x="381.667" y="644"/>
			<point x="414.667" y="610"/>
			<point x="461.667" y="610" type="curve" smooth="yes"/>
			<point x="520.667" y="610"/>
			<point x="577" y="664"/>
			<point x="577" y="723.333" type="curve" smooth="yes"/>
			<point x="577" y="767"/>
			<point x="544" y="801.333"/>
			<point x="498" y="801.333" type="curve" smooth="yes"/>
			<point x="439.333" y="801.333"/>
			<point x="381.667" y="747.667"/>
		</contour>
		<contour>
			<point x="432.667" y="696.667" type="curve" smooth="yes"/>
			<point x="432.667" y="724.333"/>
			<point x="458.333" y="751.667"/>
			<point x="487.333" y="751.667" type="curve" smooth="yes"/>
			<point x="511.667" y="751.667"/>
			<point x="526.333" y="735.333"/>
			<point x="526.333" y="713" type="curve" smooth="yes"/>
			<point x="526.333" y="684.667"/>
			<point x="499.333" y="659.667"/>
			<point x="472" y="659.667" type="curve" smooth="yes"/>
			<point x="447.667" y="659.667"/>
			<point x="432.667" y="675.667"/>
		</contour>
	</outline>
</glyph>
<glyph name="ae" format="2">
	<unicode hex="00E6"/>
	<advance width="1130"/>
	<outline>
		<contour>
			<point x="82.667" y="217.333" type="curve" smooth="yes"/>
			<point x="82.667" y="83"/>
			<point x="179.333" y="-13"/>
			<point x="324.667" y="-13" type="curve" smooth="yes"/>
			<point x="410.667" y="-13"/>
			<point x="472.333" y="14"/>
			<point x="541.333" y="81.333" type="curve"/>
			<point x="526.333" y="0" type="line"/>
			<point x="614.333" y="0" type="line"/>
			<point x="629.333" y="81.333" type="line"/>
			<point x="672.333" y="17.667"/>
			<point x="732.667" y="-13"/>
			<point x="815.333" y="-13" type="curve" smooth="yes"/>
			<point x="934" y="-13"/>
			<point x="1055.33" y="63.667"/>
			<point x="1112" y="173.333" type="curve"/>
			<point x="1012.33" y="173.333" type="line"/>
			<point x="969.333" y="110.333"/>
			<point x="901.333" y="73"/>
			<point x="828.667" y="73" type="curve" smooth="yes"/>
			<point x="733" y="73"/>
			<point x="656.333" y="141.333"/>
			<point x="663.667" y="237.667" type="curve"/>
			<point x="1136.33" y="237.667" type="line"/>
			<point x="1146.67" y="274.667"/>
			<point x="1151.67" y="308"/>
			<point x="1151.67" y="339.333" type="curve" smooth="yes"/>
			<point x="1151.67" y="470"/>
			<point x="1050.67" y="562.333"/>
			<point x="917.667" y="562.333" type="curve" smooth="yes"/>
			<point x="834.667" y="562.333"/>
			<point x="768.333" y="533"/>
			<point x="701" y="467.667" type="curve"/>
			<point x="716" y="549.333" type="line"/>
			<point x="628" y="549.333" type="line"/>
			<point x="613" y="467.667" type="line"/>
			<point x="574" y="533"/>
			<point x="517.667" y="562.333"/>
			<point x="429.667" y="562.333" type="curve" smooth="yes"/>
			<point x="244.333" y="562.333"/>
			<point x="82.667" y="402"/>
		</contour>
		<contour>
			<point x="180" y="234.667" type="curve" smooth="yes"/>
			<point x="180" y="360"/>
			<point x="287" y="476.333"/>
			<point x="415" y="476.333" type="curve" smooth="yes"/>
			<point x="516.333" y="476.333"/>
			<point x="582" y="412"/>
			<point x="582" y="318" type="curve" smooth="yes"/>
			<point x="582" y="191"/>
			<point x="472" y="73"/>
			<point x="342.667" y="73" type="curve" smooth="yes"/>
			<point x="244.667" y="73"/>
			<point x="180" y="140.667"/>
		</contour>
		<contour>
			<point x="678.333" y="321.667" type="line"/>
			<point x="715" y="416"/>
			<point x="800" y="476.333"/>
			<point x="898.333" y="476.333" type="curve" smooth="yes"/>
			<point x="996.667" y="476.333"/>
			<point x="1057.67" y="417.667"/>
			<point x="1059.67" y="321.667" type="curve"/>
		</contour>
	</outline>
</glyph>
<glyph name="ccedilla" format="2">
	<unicode hex="00E7"/>
	<advance width="640"/>
	<outline>
		<component base="c"/>
		<contour>
			<point x="216.667" y="-156" type="line"/>
			<point x="217.333" y="-204"/>
			<point x="246" y="-233"/>
			<point x="293" y="-233" type="curve" smooth="yes"/>
			<point x="356.667" y="-233"/>
			<point x="403.667" y="-179.667"/>
			<point x="403.667" y="-118.333" type="curve" smooth="yes"/>
			<point x="403.667" y="-77.667"/>
			<point x="379" y="-51"/>
			<point x="338" y="-51" type="curve" smooth="yes"/>
			<point x="327" y="-51"/>
			<point x="319" y="-52"/>
			<point x="304.333" y="-58" type="curve"/>
			<point x="340.333" y="0" type="line"/>
			<point x="301" y="2.667" type="line"/>
			<point x="239.667" y="-95.667" type="line"/>
			<point x="273.333" y="-116.333" type="line"/>
			<point x="290" y="-98.333"/>
			<point x="302.333" y="-92.333"/>
			<point x="318.333" y="-92.333" type="curve" smooth="yes"/>
			<point x="340.667" y="-92.333"/>
			<point x="354.667" y="-106.667"/>
			<point x="354.667" y="-129.333" type="curve" smooth="yes"/>
			<point x="354.667" y="-158.667"/>
			<point x="333.667" y="-186"/>
			<point x="302.333" y="-186" type="curve" smooth="yes"/>
			<point x="281.667" y="-186"/>
			<point x="269.333" y="-174.667"/>
			<point x="266.667" y="-152.667" type="curve"/>
		</contour>
	</outline>
</glyph>
<glyph name="egrave" format="2">
	<unicode hex="00E8"/>
	<advance width="645"/>
	<outline>
		<component base="e"/>
		<contour>
			<point x="302.667" y="724.333" type="line"/>
			<point x="488.333" y="611" type="line"/>
			<point x="539.333" y="674.667" type="line"/>
			<point x="355.667" y="792.333" type="line"/>
		</contour>
	</outline>
</glyph>
<glyph name="ecircumflex" format="2">
	<unicode hex="00EA"/>
	<advance width="645"/>
	<outline>
		<component base="e"/>
		<contour>
			<point x="259" y="625.333" type="line"/>
			<point x="368.667" y="625.333" type="line"/>
			<point x="458.667" y="696" type="line"/>
			<point x="520.333" y="625.333" type="line"/>
			<point x="628" y="625.333" type="line"/>
			<point x="508.667" y="755.333" type="line"/>
			<point x="429" y="755.333" type="line"/>
		</contour>
	</outline>
</glyph>
<glyph name="edieresis" format="2">
	<unicode hex="00EB"/>
	<advance width="645"/>
	<outline>
		<component base="e"/>
		<contour>
			<point x="312.667" y="625.333" type="line"/>
			<point x="406.333" y="625.333" type="line"/>
			<point x="430.333" y="753.667" type="line"/>
			<point x="336.667" y="753.667" type="line"/>
		</contour>
		<contour>
			<point x="480.667" y="625.333" type="line"/>
			<point x="574.333" y="625.333" type="line"/>
			<point x="598.333" y="753.667" type="line"/>
			<point x="504.667" y="753.667" type="line"/>
		</contour>
	</outline>
</glyph>
<glyph name="igrave" format="2">
	<unicode hex="00EC"/>
	<advance width="214"/>
	<outline>
		<contour>
			<point x="60" y="0" type="line"/>
			<point x="153.667" y="0" type="line"/>
			<point x="255.333" y="549.333" type="line"/>
			<point x="161.667" y="549.333" type="line"/>
		</contour>
		<contour>
			<point x="119" y="724.333" type="line"/>
			<point x="304.667" y="611" type="line"/>
			<point x="355.667" y="674.667" type="line"/>
			<point x="172" y="792.333" type="line"/>
		</contour>
	</outline>
</glyph>
<glyph name="iacute" format="2">
	<unicode hex="00ED"/>
	<advance width="214"/>
	<outline>
		<contour>
			<point x="60" y="0" type="line"/>
			<point x="153.667" y="0" type="line"/>
			<point x="255.333" y="549.333" type="line"/>
			<point x="161.667" y="549.333" type="line"/>
		</contour>
		<contour>
			<point x="139" y="611" type="line"/>
			<point x="364.667" y="727" type="line"/>
			<point x="337" y="796.333" type="line"/>
			<point x="110.667" y="674.333" type="line"/>
		</contour>
	</outline>
</glyph>
<glyph name="icircumflex" format="2">
	<unicode hex="00EE"/>
	<advance width="214"/>
	<outline>
		<contour>
			<point x="60" y="0" type="line"/>
			<point x="153.667" y="0" type="line"/>
			<point x="255.333" y="549.333" type="line"/>
			<point x="161.667" y="549.333" type="line"/>
		</contour>
		<contour>
			<point x="38" y="625.333" type="line"/>
			<point x="147.667" y="625.333" type="line"/>
			<point x="237.667" y="696" type="line"/>
			<point x="299.333" y="625.333" type="line"/>
			<point x="407" y="625.333" type="line"/>
			<point x="287.667" y="755.333" type="line"/>
			<point x="208" y="755.333" type="line"/>
		</contour>
	</outline>
</glyph>
<glyph name="idieresis" format="2">
	<unicode hex="00EF"/>
	<advance width="214"/>
	<outline>
		<contour>
			<point x="88" y="415.333" type="line"/>
			<point x="181.667" y="415.333" type="line"/>
			<point x="232" y="684" type="line"/>
			<point x="138.333" y="684" type="line"/>
		</contour>
		<contour>
			<point x="190" y="625.333" type="line"/>
			<point x="283.667" y="625.333" type="line"/>
			<point x="307.667" y="753.667" type="line"/>
			<point x="214" y="753.667" type="line"/>
		</contour>
		<contour>
			<point x="134.667" y="210" type="line"/>
			<point x="228.333" y="210" type="line"/>
			<point x="303.667" y="619" type="line"/>
			<point x="210" y="619" type="line"/>
		</contour>
	</outline>
</glyph>
<glyph name="eth" format="2">
	<unicode hex="00F0"/>
	<advance width="652"/>
	<outline>
		<contour>
			<point x="83" y="220" type="curve" smooth="yes"/>
			<point x="83" y="85"/>
			<point x="181.333" y="-13"/>
			<point x="328.333" y="-13" type="curve" smooth="yes"/>
			<point x="523.667" y="-13"/>
			<point x="673" y="157"/>
			<point x="673" y="346.333" type="curve" smooth="yes"/>
			<point x="673" y="473"/>
			<point x="586.667" y="575.667"/>
			<point x="503.333" y="661.667" type="curve"/>
			<point x="596.333" y="699.333" type="line"/>
			<point x="565" y="745" type="line"/>
			<point x="464.667" y="703.667" type="line"/>
			<point x="445" y="724.667"/>
			<point x="429" y="738.667"/>
			<point x="407.333" y="756" type="curve"/>
			<point x="332.333" y="725" type="line"/>
			<point x="351.333" y="707.333"/>
			<point x="363" y="694.333"/>
			<point x="385.333" y="669.333" type="curve"/>
			<point x="299.667" y="633.667" type="line"/>
			<point x="329" y="587.667" type="line"/>
			<point x="423" y="627" type="line"/>
			<point x="449.333" y="600"/>
			<point x="472.333" y="574.333"/>
			<point x="496" y="541" type="curve"/>
			<point x="460.333" y="552.333"/>
			<point x="440.333" y="556"/>
			<point x="412" y="556" type="curve" smooth="yes"/>
			<point x="236.333" y="556"/>
			<point x="83" y="393.667"/>
		</contour>
		<contour>
			<point x="178.667" y="233.667" type="curve" smooth="yes"/>
			<point x="178.667" y="358"/>
			<point x="284.667" y="476.333"/>
			<point x="412" y="476.333" type="curve" smooth="yes"/>
			<point x="510.667" y="476.333"/>
			<point x="574.333" y="410.333"/>
			<point x="574.333" y="315.667" type="curve" smooth="yes"/>
			<point x="574.333" y="189.667"/>
			<point x="472" y="73"/>
			<point x="342.667" y="73" type="curve" smooth="yes"/>
			<point x="243.333" y="73"/>
			<point x="178.667" y="140"/>
		</contour>
	</outline>
</glyph>
<glyph name="ntilde" format="2">
	<unicode hex="00F1"/>
	<advance width="606"/>
	<outline>
		<component base="n"/>
		<contour>
			<point x="301" y="634" type="line"/>
			<point x="328.333" y="655"/>
			<point x="343.333" y="663.667"/>
			<point x="370" y="663.667" type="curve" smooth="yes"/>
			<point x="387" y="663.667"/>
			<point x="406" y="657.667"/>
			<point x="419.667" y="650.333" type="curve" smooth="yes"/>
			<point x="440.667" y="639.333"/>
			<point x="459" y="634"/>
			<point x="472.667" y="634" type="curve" smooth="yes"/>
			<point x="506.333" y="634"/>
			<point x="547" y="654.667"/>
			<point x="574" y="685" type="curve"/>
			<point x="545" y="742.667" type="line"/>
			<point x="520" y="720"/>
			<point x="500" y="710.667"/>
			<point x="478.667" y="710.667" type="curve" smooth="yes"/>
			<point x="468" y="710.667"/>
			<point x="450.667" y="715.667"/>
			<point x="433.667" y="723.667" type="curve" smooth="yes"/>
			<point x="406" y="736.333"/>
			<point x="396.333" y="739.667"/>
			<point x="377" y="739.667" type="curve" smooth="yes"/>
			<point x="339" y="739.667"/>
			<point x="305" y="723.667"/>
			<point x="272" y="691.333" type="curve"/>
		</contour>
	</outline>
</glyph>
<glyph name="ograve" format="2">
	<unicode hex="00F2"/>
	<advance width="652"/>
	<outline>
		<component base="o"/>
		<contour>
			<point x="303.667" y="724.333" type="line"/>
			<point x="489.333" y="611" type="line"/>
			<point x="540.333" y="674.667" type="line"/>
			<point x="356.667" y="792.333" type="line"/>
		</contour>
	</outline>
</glyph>
<glyph name="oacute" format="2">
	<unicode hex="00F3"/>
	<advance width="652"/>
	<outline>
		<component base="o"/>
		<contour>
			<point x="390" y="611" type="line"/>
			<point x="615.667" y="727" type="line"/>
			<point x="588" y="796.333" type="line"/>
			<point x="361.667" y="674.333" type="line"/>
		</contour>
	</outline>
</glyph>
<glyph name="ocircumflex" format="2">
	<unicode hex="00F4"/>
	<advance width="652"/>
	<outline>
		<component base="o"/>
		<contour>
			<point x="256.667" y="625.333" type="line"/>
			<point x="366.333" y="625.333" type="line"/>
			<point x="456.333" y="696" type="line"/>
			<point x="518" y="625.333" type="line"/>
			<point x="625.667" y="625.333" type="line"/>
			<point x="506.333" y="755.333" type="line"/>
			<point x="426.667" y="755.333" type="line"/>
		</contour>
	</outline>
</glyph>
<glyph name="otilde" format="2">
	<unicode hex="00F5"/>
	<advance width="652"/>
	<outline>
		<component base="o"/>
		<contour>
			<point x="336.667" y="634" type="line"/>
			<point x="366" y="656.333"/>
			<point x="379" y="663.667"/>
			<point x="399.667" y="663.667" type="curve" smooth="yes"/>
			<point x="415.333" y="663.667"/>
			<point x="439.667" y="656.333"/>
			<point x="454" y="649.667" type="curve" smooth="yes"/>
			<point x="470.333" y="642"/>
			<point x="494.667" y="634"/>
			<point x="515" y="634" type="curve" smooth="yes"/>
			<point x="546.667" y="634"/>
			<point x="582.667" y="654.667"/>
			<point x="609.667" y="685" type="curve"/>
			<point x="580.667" y="742.667" type="line"/>
			<point x="555.667" y="720"/>
			<point x="535.667" y="710.667"/>
			<point x="514.333" y="710.667" type="curve" smooth="yes"/>
			<point x="503.667" y="710.667"/>
			<point x="486.333" y="715.667"/>
			<point x="469.333" y="723.667" type="curve" smooth="yes"/>
			<point x="441.667" y="736.333"/>
			<point x="432" y="739.667"/>
			<point x="410" y="739.667" type="curve" smooth="yes"/>
			<point x="374.667" y="739.667"/>
			<point x="340.667" y="723.667"/>
			<point x="307.667" y="691.333" type="curve"/>
		</contour>
	</outline>
</glyph>
<glyph name="divide" format="2">
	<unicode hex="00F7"/>
	<advance width="604"/>
	<outline>
		<contour>
			<point x="334" y="452" type="line"/>
			<point x="437" y="452" type="line"/>
			<point x="455.667" y="553.667" type="line"/>
			<point x="352.667" y="553.667" type="line"/>
		</contour>
		<contour>
			<point x="268.667" y="99" type="line"/>
			<point x="371.667" y="99" type="line"/>
			<point x="390.333" y="200.667" type="line"/>
			<point x="287.333" y="200.667" type="line"/>
		</contour>
		<contour>
			<point x="102" y="282" type="line"/>
			<point x="606" y="282" type="line"/>
			<point x="622.667" y="370.667" type="line"/>
			<point x="118.667" y="370.667" type="line"/>
		</contour>
	</outline>
</glyph>
<glyph name="oslash" format="2">
	<unicode hex="00F8"/>
	<advance width="651"/>
	<outline>
		<contour>
			<point x="67" y="-2.667" type="line"/>
			<point x="122.667" y="-48.333" type="line"/>
			<point x="189" y="23.667" type="line"/>
			<point x="234.667" y="-2.667"/>
			<point x="273.333" y="-13"/>
			<point x="325.333" y="-13" type="curve" smooth="yes"/>
			<point x="488.667" y="-13"/>
			<point x="633.667" y="112.333"/>
			<point x="665" y="279.667" type="curve" smooth="yes"/>
			<point x="668.667" y="299"/>
			<point x="670.667" y="318.667"/>
			<point x="670.667" y="336.333" type="curve" smooth="yes"/>
			<point x="670.667" y="393.333"/>
			<point x="652.333" y="441.333"/>
			<point x="615.333" y="482.667" type="curve"/>
			<point x="682.667" y="556.333" type="line"/>
			<point x="627.333" y="603.667" type="line"/>
			<point x="558" y="528" type="line"/>
			<point x="520.333" y="551.333"/>
			<point x="480" y="562.333"/>
			<point x="431" y="562.333" type="curve" smooth="yes"/>
			<point x="269.667" y="562.333"/>
			<point x="117.667" y="433.667"/>
			<point x="87.667" y="273.667" type="curve" smooth="yes"/>
			<point x="84" y="253.667"/>
			<point x="82.667" y="234.667"/>
			<point x="82.667" y="217" type="curve" smooth="yes"/>
			<point x="82.667" y="164"/>
			<point x="99" y="117.667"/>
			<point x="134" y="70" type="curve"/>
		</contour>
		<contour>
			<point x="199.667" y="142.333" type="line"/>
			<point x="185" y="172.333"/>
			<point x="178.333" y="199.333"/>
			<point x="178.333" y="229" type="curve" smooth="yes"/>
			<point x="178.333" y="241.667"/>
			<point x="179.333" y="255.667"/>
			<point x="182" y="270" type="curve" smooth="yes"/>
			<point x="203.667" y="386"/>
			<point x="305.333" y="476.333"/>
			<point x="415" y="476.333" type="curve" smooth="yes"/>
			<point x="445" y="476.333"/>
			<point x="471" y="470.667"/>
			<point x="495" y="458.667" type="curve"/>
		</contour>
		<contour>
			<point x="550.333" y="411.667" type="line"/>
			<point x="566.667" y="384"/>
			<point x="574.667" y="356"/>
			<point x="574.667" y="323" type="curve" smooth="yes"/>
			<point x="574.667" y="308.667"/>
			<point x="573" y="294.667"/>
			<point x="570.333" y="278.667" type="curve" smooth="yes"/>
			<point x="548" y="159.333"/>
			<point x="450" y="73"/>
			<point x="336.333" y="73" type="curve" smooth="yes"/>
			<point x="304" y="73"/>
			<point x="283" y="78"/>
			<point x="252.333" y="92.333" type="curve"/>
		</contour>
	</outline>
</glyph>
<glyph name="ugrave" format="2">
	<unicode hex="00F9"/>
	<advance width="605"/>
	<outline>
		<contour>
			<point x="454.667" y="0" type="line"/>
			<point x="545" y="0" type="line"/>
			<point x="646.667" y="549.333" type="line"/>
			<point x="553" y="549.333" type="line"/>
			<point x="502" y="275" type="line" smooth="yes"/>
			<point x="489.667" y="206.667"/>
			<point x="474" y="167"/>
			<point x="448.333" y="136" type="curve" smooth="yes"/>
			<point x="414" y="95.333"/>
			<point x="364" y="73"/>
			<point x="310" y="73" type="curve" smooth="yes"/>
			<point x="259.333" y="73"/>
			<point x="221.333" y="92.667"/>
			<point x="204.333" y="127.333" type="curve" smooth="yes"/>
			<point x="197" y="142.333"/>
			<point x="193" y="161.333"/>
			<point x="193" y="186" type="curve" smooth="yes"/>
			<point x="193" y="207.333"/>
			<point x="196" y="232.667"/>
			<point x="201.667" y="262.333" type="curve" smooth="yes"/>
			<point x="254.667" y="549.333" type="line"/>
			<point x="161" y="549.333" type="line"/>
			<point x="106.667" y="253.667" type="line" smooth="yes"/>
			<point x="100" y="217"/>
			<point x="96" y="187"/>
			<point x="96" y="160.667" type="curve" smooth="yes"/>
			<point x="96" y="127.333"/>
			<point x="102" y="100.667"/>
			<point x="113.667" y="77.333" type="curve" smooth="yes"/>
			<point x="141.667" y="18.667"/>
			<point x="200.667" y="-13"/>
			<point x="282.333" y="-13" type="curve" smooth="yes"/>
			<point x="361.333" y="-13"/>
			<point x="415.333" y="12.667"/>
			<point x="468.667" y="74.333" type="curve"/>
		</contour>
		<contour>
			<point x="278" y="724.333" type="line"/>
			<point x="463.667" y="611" type="line"/>
			<point x="514.667" y="674.667" type="line"/>
			<point x="331" y="792.333" type="line"/>
		</contour>
	</outline>
</glyph>
<glyph name="ucircumflex" format="2">
	<unicode hex="00FB"/>
	<advance width="605"/>
	<outline>
		<contour>
			<point x="454.667" y="0" type="line"/>
			<point x="545" y="0" type="line"/>
			<point x="646.667" y="549.333" type="line"/>
			<point x="553" y="549.333" type="line"/>
			<point x="502" y="275" type="line" smooth="yes"/>
			<point x="489.667" y="206.667"/>
			<point x="474" y="167"/>
			<point x="448.333" y="136" type="curve" smooth="yes"/>
			<point x="414" y="95.333"/>
			<point x="364" y="73"/>
			<point x="310" y="73" type="curve" smooth="yes"/>
			<point x="259.333" y="73"/>
			<point x="221.333" y="92.667"/>
			<point x="204.333" y="127.333" type="curve" smooth="yes"/>
			<point x="197" y="142.333"/>
			<point x="193" y="161.333"/>
			<point x="193" y="186" type="curve" smooth="yes"/>
			<point x="193" y="207.333"/>
			<point x="196" y="232.667"/>
			<point x="201.667" y="262.333" type="curve" smooth="yes"/>
			<point x="254.667" y="549.333" type="line"/>
			<point x="161" y="549.333" type="line"/>
			<point x="106.667" y="253.667" type="line" smooth="yes"/>
			<point x="100" y="217"/>
			<point x="96" y="187"/>
			<point x="96" y="160.667" type="curve" smooth="yes"/>
			<point x="96" y="127.333"/>
			<point x="102" y="100.667"/>
			<point x="113.667" y="77.333" type="curve" smooth="yes"/>
			<point x="141.667" y="18.667"/>
			<point x="200.667" y="-13"/>
			<point x="282.333" y="-13" type="curve" smooth="yes"/>
			<point x="361.333" y="-13"/>
			<point x="415.333" y="12.667"/>
			<point x="468.667" y="74.333" type="curve"/>
		</contour>
		<contour>
			<point x="233.333" y="625.333" type="line"/>
			<point x="343" y="625.333" type="line"/>
			<point x="433" y="696" type="line"/>
			<point x="494.667" y="625.333" type="line"/>
			<point x="602.333" y="625.333" type="line"/>
			<point x="483" y="755.333" type="line"/>
			<point x="403.333" y="755.333" type="line"/>
		</contour>
	</outline>
</glyph>
<glyph name="yacute" format="2">
	<unicode hex="00FD"/>
	<advance width="547"/>
	<outline>
		<contour>
			<point x="86.667" y="-189.667" type="line"/>
			<point x="187" y="-189.667" type="line"/>
			<point x="641.333" y="549.333" type="line"/>
			<point x="537.667" y="549.333" type="line"/>
			<point x="294" y="139" type="line"/>
			<point x="213.333" y="549.333" type="line"/>
			<point x="108.667" y="549.333" type="line"/>
			<point x="221.333" y="29.333" type="line"/>
		</contour>
		<contour>
			<point x="333.333" y="611" type="line"/>
			<point x="559" y="727" type="line"/>
			<point x="531.333" y="796.333" type="line"/>
			<point x="305" y="674.333" type="line"/>
		</contour>
	</outline>
</glyph>
<glyph name="thorn" format="2">
	<unicode hex="00FE"/>
	<advance width="675"/>
	<outline>
		<contour>
			<point x="24.667" y="-189.667" type="line"/>
			<point x="118.333" y="-189.667" type="line"/>
			<point x="168.667" y="82.333" type="line"/>
			<point x="203.333" y="19.667"/>
			<point x="267" y="-13"/>
			<point x="351" y="-13" type="curve" smooth="yes"/>
			<point x="513.667" y="-13"/>
			<point x="658.667" y="110.667"/>
			<point x="689" y="274.333" type="curve" smooth="yes"/>
			<point x="693" y="294.333"/>
			<point x="694.333" y="314"/>
			<point x="694.333" y="332.667" type="curve" smooth="yes"/>
			<point x="694.333" y="467.667"/>
			<point x="601" y="562.333"/>
			<point x="458.667" y="562.333" type="curve" smooth="yes"/>
			<point x="372.667" y="562.333"/>
			<point x="297" y="529.667"/>
			<point x="240.333" y="467" type="curve"/>
			<point x="290.667" y="739" type="line"/>
			<point x="197" y="739" type="line"/>
		</contour>
		<contour>
			<point x="195" y="234.667" type="curve" smooth="yes"/>
			<point x="195" y="247.667"/>
			<point x="196" y="260.333"/>
			<point x="198.667" y="274.333" type="curve" smooth="yes"/>
			<point x="220" y="388"/>
			<point x="321.333" y="476.333"/>
			<point x="431.333" y="476.333" type="curve" smooth="yes"/>
			<point x="532.333" y="476.333"/>
			<point x="598.333" y="410.667"/>
			<point x="598.333" y="315.333" type="curve" smooth="yes"/>
			<point x="598.333" y="301.667"/>
			<point x="596.333" y="287.667"/>
			<point x="593.667" y="273" type="curve" smooth="yes"/>
			<point x="572.333" y="159.333"/>
			<point x="471.667" y="73"/>
			<point x="359.667" y="73" type="curve" smooth="yes"/>
			<point x="260.667" y="73"/>
			<point x="195" y="140.667"/>
		</contour>
	</outline>
</glyph>
<glyph name="ydieresis" format="2">
	<unicode hex="00FF"/>
	<advance width="547"/>
	<outline>
		<contour>
			<point x="86.667" y="-189.667" type="line"/>
			<point x="187" y="-189.667" type="line"/>
			<point x="641.333" y="549.333" type="line"/>
			<point x="537.667" y="549.333" type="line"/>
			<point x="294" y="139" type="line"/>
			<point x="213.333" y="549.333" type="line"/>
			<point x="108.667" y="549.333" type="line"/>
			<point x="221.333" y="29.333" type="line"/>
		</contour>
		<contour>
			<point x="256.667" y="625.333" type="line"/>
			<point x="350.333" y="625.333" type="line"/>
			<point x="374.333" y="753.667" type="line"/>
			<point x="280.667" y="753.667" type="line"/>
		</contour>
		<contour>
			<point x="424.667" y="625.333" type="line"/>
			<point x="518.333" y="625.333" type="line"/>
			<point x="542.333" y="753.667" type="line"/>
			<point x="448.667" y="753.667" type="line"/>
		</contour>
	</outline>
</glyph>
<glyph name="dotlessi" format="2">
	<unicode hex="0131"/>
	<advance width="214"/>
	<outline>
		<contour>
			<point x="60" y="0" type="line"/>
			<point x="153.667" y="0" type="line"/>
			<point x="255.333" y="549.333" type="line"/>
			<point x="161.667" y="549.333" type="line"/>
		</contour>
	</outline>
</glyph>
<glyph name="ldot" format="2">
	<unicode hex="0140"/>
	<advance width="410"/>
	<outline>
		<contour>
			<point x="60.333" y="0" type="line"/>
			<point x="154" y="0" type="line"/>
			<point x="291" y="739" type="line"/>
			<point x="197.333" y="739" type="line"/>
		</contour>
		<contour>
			<point x="289.333" y="252.667" type="line"/>
			<point x="383" y="252.667" type="line"/>
			<point x="407.333" y="381" type="line"/>
			<point x="313.333" y="381" type="line"/>
		</contour>
	</outline>
</glyph>
<glyph name="Lslash" format="2">
	<unicode hex="0141"/>
	<advance width="506"/>
	<outline>
		<contour>
			<point x="119" y="0" type="line"/>
			<point x="493.333" y="0" type="line"/>
			<point x="509.333" y="87.333" type="line"/>
			<point x="230" y="87.333" type="line"/>
			<point x="279" y="352" type="line"/>
			<point x="456.333" y="477" type="line"/>
			<point x="474" y="574" type="line"/>
			<point x="297.333" y="448.667" type="line"/>
			<point x="351" y="739" type="line"/>
			<point x="256" y="739" type="line"/>
			<point x="191.667" y="390.333" type="line"/>
			<point x="80.667" y="310.667" type="line"/>
			<point x="63" y="214" type="line"/>
			<point x="173.333" y="293" type="line"/>
		</contour>
	</outline>
</glyph>
<glyph name="lslash" format="2">
	<unicode hex="0142"/>
	<advance width="314"/>
	<outline>
		<contour>
			<point x="112.333" y="0" type="line"/>
			<point x="206" y="0" type="line"/>
			<point x="276.333" y="380.333" type="line"/>
			<point x="368.667" y="437.333" type="line"/>
			<point x="384" y="519" type="line"/>
			<point x="291.667" y="461.333" type="line"/>
			<point x="343" y="739" type="line"/>
			<point x="249.333" y="739" type="line"/>
			<point x="189.333" y="417.667" type="line"/>
			<point x="100.667" y="361.333" type="line"/>
			<point x="85" y="280.333" type="line"/>
			<point x="174.667" y="336.333" type="line"/>
		</contour>
	</outline>
</glyph>
<glyph name="OE" format="2">
	<unicode hex="0152"/>
	<advance width="1149"/>
	<outline>
		<contour>
			<point x="711.667" y="0" type="line"/>
			<point x="1092.67" y="0" type="line"/>
			<point x="1108.67" y="88.333" type="line"/>
			<point x="823.333" y="88.333" type="line"/>
			<point x="868" y="327.667" type="line"/>
			<point x="1142.33" y="327.667" type="line"/>
			<point x="1158.33" y="416" type="line"/>
			<point x="884" y="416" type="line"/>
			<point x="928.333" y="650.667" type="line"/>
			<point x="1213.67" y="650.667" type="line"/>
			<point x="1229.67" y="739" type="line"/>
			<point x="848.667" y="739" type="line"/>
			<point x="825.667" y="613.667" type="line"/>
			<point x="782.333" y="703.667"/>
			<point x="690.333" y="752"/>
			<point x="564" y="752" type="curve" smooth="yes"/>
			<point x="344.333" y="752"/>
			<point x="150.333" y="588.667"/>
			<point x="110" y="370" type="curve" smooth="yes"/>
			<point x="105" y="344"/>
			<point x="103" y="318.667"/>
			<point x="103" y="294.667" type="curve" smooth="yes"/>
			<point x="103" y="114"/>
			<point x="233.667" y="-13"/>
			<point x="433.333" y="-13" type="curve" smooth="yes"/>
			<point x="554.333" y="-13"/>
			<point x="659.333" y="36"/>
			<point x="735.333" y="127.667" type="curve"/>
		</contour>
		<contour>
			<point x="200.333" y="312" type="curve" smooth="yes"/>
			<point x="200.333" y="330.667"/>
			<point x="202.333" y="349.667"/>
			<point x="206" y="369.333" type="curve" smooth="yes"/>
			<point x="237" y="536.333"/>
			<point x="382.333" y="662.667"/>
			<point x="543.333" y="662.667" type="curve" smooth="yes"/>
			<point x="694.667" y="662.667"/>
			<point x="788.667" y="570.667"/>
			<point x="788.667" y="432.667" type="curve" smooth="yes"/>
			<point x="788.667" y="412.667"/>
			<point x="786.667" y="391.667"/>
			<point x="782.667" y="370" type="curve" smooth="yes"/>
			<point x="751" y="200"/>
			<point x="608.333" y="76.333"/>
			<point x="444" y="76.333" type="curve" smooth="yes"/>
			<point x="297.667" y="76.333"/>
			<point x="200.333" y="175"/>
		</contour>
	</outline>
</glyph>
<glyph name="oe" format="2">
	<unicode hex="0153"/>
	<advance width="1116"/>
	<outline>
		<contour>
			<point x="83.333" y="219.333" type="curve" smooth="yes"/>
			<point x="83.333" y="84.333"/>
			<point x="180" y="-13"/>
			<point x="326" y="-13" type="curve" smooth="yes"/>
			<point x="428.667" y="-13"/>
			<point x="509.333" y="29.667"/>
			<point x="584.667" y="125.333" type="curve"/>
			<point x="615.667" y="37.667"/>
			<point x="697.333" y="-13"/>
			<point x="805.333" y="-13" type="curve" smooth="yes"/>
			<point x="927.333" y="-13"/>
			<point x="1045" y="64"/>
			<point x="1098.67" y="173.667" type="curve"/>
			<point x="1002" y="173.667" type="line"/>
			<point x="954.667" y="107.667"/>
			<point x="890.667" y="73"/>
			<point x="817.667" y="73" type="curve" smooth="yes"/>
			<point x="717.333" y="73"/>
			<point x="649.333" y="140.333"/>
			<point x="653.333" y="238" type="curve"/>
			<point x="1121.67" y="238" type="line"/>
			<point x="1131.67" y="269.333"/>
			<point x="1139" y="304.667"/>
			<point x="1139" y="340.667" type="curve" smooth="yes"/>
			<point x="1139" y="473"/>
			<point x="1040.33" y="562.333"/>
			<point x="901.667" y="562.333" type="curve" smooth="yes"/>
			<point x="799.667" y="562.333"/>
			<point x="716.667" y="519.333"/>
			<point x="640.667" y="428" type="curve"/>
			<point x="596" y="519.333"/>
			<point x="530" y="562.333"/>
			<point x="426.333" y="562.333" type="curve" smooth="yes"/>
			<point x="244.333" y="562.333"/>
			<point x="83.333" y="400.667"/>
		</contour>
		<contour>
			<point x="179.333" y="234.667" type="curve" smooth="yes"/>
			<point x="179.333" y="357.667"/>
			<point x="284.333" y="476.333"/>
			<point x="410" y="476.333" type="curve" smooth="yes"/>
			<point x="509.667" y="476.333"/>
			<point x="573.667" y="410.667"/>
			<point x="573.667" y="317" type="curve" smooth="yes"/>
			<point x="573.667" y="193"/>
			<point x="470.667" y="73"/>
			<point x="343" y="73" type="curve" smooth="yes"/>
			<point x="244.667" y="73"/>
			<point x="179.333" y="141"/>
		</contour>
		<contour>
			<point x="666.667" y="321.667" type="line"/>
			<point x="711" y="419.333"/>
			<point x="790.667" y="476.333"/>
			<point x="884" y="476.333" type="curve" smooth="yes"/>
			<point x="983" y="476.333"/>
			<point x="1044.33" y="416.667"/>
			<point x="1046.67" y="321.667" type="curve"/>
		</contour>
	</outline>
</glyph>
